<?xml version="1.0" encoding="UTF-8"?>
<svg id="Layer_1" data-name="Layer 1" xmlns="http://www.w3.org/2000/svg" xmlns:xlink="http://www.w3.org/1999/xlink" viewBox="0 0 200.99 202">
  <defs>
    <style>
      .cls-1 {
        fill: #d9a79d;
      }

      .cls-2 {
        fill: #eca2a5;
      }

      .cls-3 {
        fill: #176c80;
      }

      .cls-4 {
        fill: #87bcda;
      }

      .cls-5 {
        fill: url(#linear-gradient-5);
      }

      .cls-6 {
        fill: url(#linear-gradient-6);
      }

      .cls-7 {
        fill: url(#linear-gradient-4);
      }

      .cls-8 {
        fill: url(#linear-gradient-3);
      }

      .cls-9 {
        fill: url(#linear-gradient-2);
      }

      .cls-10 {
        fill: #d2d3d1;
      }

      .cls-11 {
        fill: #ca6b59;
      }

      .cls-12 {
        fill: #6d2119;
      }

      .cls-13 {
        fill: #b4dff7;
      }

      .cls-14 {
        fill: #e9dde3;
      }

      .cls-15 {
        fill: #823c36;
      }

      .cls-16 {
        fill: #8f91c7;
      }

      .cls-17 {
        fill: url(#linear-gradient);
      }

      .cls-18 {
        fill: #b1afd7;
      }

      .cls-19 {
        fill: #b7d6e7;
      }

      .cls-20 {
        fill: #9ca7ae;
      }

      .cls-21 {
        fill: #b69698;
      }

      .cls-22 {
        fill: #e07c32;
      }

      .cls-23 {
        fill: #68c4a8;
      }

      .cls-24 {
        fill: #d8eaf6;
      }

      .cls-25 {
        fill: #b07671;
      }

      .cls-26 {
        fill: #d24b42;
      }

      .cls-27 {
        fill: #4763ae;
      }

      .cls-28 {
        fill: #a67b7d;
      }

      .cls-29 {
        fill: #e9a482;
      }

      .cls-30 {
        fill: #1c76a5;
      }

      .cls-31 {
        fill: #fff;
      }

      .cls-32 {
        fill: #204473;
      }

      .cls-33 {
        fill: #2891c0;
      }

      .cls-34 {
        fill: #181818;
      }

      .cls-35 {
        fill: #8bc4e0;
      }

      .cls-36 {
        fill: #5772b7;
      }

      .cls-37 {
        fill: #2392c7;
      }

      .cls-38 {
        fill: #dabdb8;
      }

      .cls-39 {
        fill: #b35d43;
      }

      .cls-40 {
        fill: #982b20;
      }

      .cls-41 {
        fill: #f2c3c4;
      }

      .cls-42 {
        fill: #a8635c;
      }

      .cls-43 {
        fill: #83d4f1;
      }

      .cls-44 {
        fill: #d7cac8;
      }

      .cls-45 {
        fill: #53b4db;
      }

      .cls-46 {
        fill: #216194;
      }

      .cls-47 {
        fill: #5fa3c7;
      }

      .cls-48 {
        fill: #3193c9;
      }

      .cls-49 {
        fill: #c95328;
      }

      .cls-50 {
        fill: #451614;
      }

      .cls-51 {
        fill: #32a5d2;
      }

      .cls-52 {
        fill: #ba8781;
      }

      .cls-53 {
        fill: #bb4627;
      }

      .cls-54 {
        fill: #a94837;
      }

      .cls-55 {
        fill: #6f7bbb;
      }

      .cls-56 {
        fill: #e3f4fd;
      }

      .cls-57 {
        fill: #c1aab0;
      }

      .cls-58 {
        fill: #b0b0af;
      }
    </style>
    <linearGradient id="linear-gradient" x1="191.97" y1="164.79" x2="99.15" y2="154.8" gradientTransform="translate(0 202) scale(1 -1)" gradientUnits="userSpaceOnUse">
      <stop offset="0" stop-color="#dfdcdb"/>
      <stop offset=".06" stop-color="#b2b8bf"/>
      <stop offset=".2" stop-color="#dbdddc"/>
      <stop offset=".28" stop-color="#e5e4e4"/>
      <stop offset=".34" stop-color="#e7e6e5"/>
      <stop offset=".57" stop-color="#e0dedd"/>
      <stop offset=".59" stop-color="#dddddc"/>
      <stop offset=".63" stop-color="#dbdada"/>
      <stop offset=".96" stop-color="#99a4ac"/>
      <stop offset="1" stop-color="#dddada"/>
    </linearGradient>
    <linearGradient id="linear-gradient-2" x1="148.95" y1="163.43" x2="150.29" y2="149.65" gradientTransform="translate(0 202) scale(1 -1)" gradientUnits="userSpaceOnUse">
      <stop offset="0" stop-color="#ad3e26"/>
      <stop offset="1" stop-color="#491715"/>
    </linearGradient>
    <linearGradient id="linear-gradient-3" x1="121.76" y1="161.51" x2="125.23" y2="148.66" gradientTransform="translate(0 202) scale(1 -1)" gradientUnits="userSpaceOnUse">
      <stop offset="0" stop-color="#9b3021"/>
      <stop offset="1" stop-color="#4a1815"/>
    </linearGradient>
    <linearGradient id="linear-gradient-4" x1="176.92" y1="159.73" x2="175.4" y2="150.78" gradientTransform="translate(0 202) scale(1 -1)" gradientUnits="userSpaceOnUse">
      <stop offset="0" stop-color="#912a1f"/>
      <stop offset="1" stop-color="#541713"/>
    </linearGradient>
    <linearGradient id="linear-gradient-5" x1="186.68" y1="162.43" x2="104.08" y2="153.98" gradientTransform="translate(0 202) scale(1 -1)" gradientUnits="userSpaceOnUse">
      <stop offset=".09" stop-color="#32a3cc"/>
      <stop offset=".39" stop-color="#78c9e5"/>
      <stop offset=".53" stop-color="#56b8dc"/>
      <stop offset="1" stop-color="#1b89b5"/>
    </linearGradient>
    <linearGradient id="linear-gradient-6" x1="144.74" y1="160.91" x2="122.57" y2="149.48" gradientTransform="translate(0 202) scale(1 -1)" gradientUnits="userSpaceOnUse">
      <stop offset="0" stop-color="#44b2d9"/>
      <stop offset="1" stop-color="#2f97c4"/>
    </linearGradient>
  </defs>
  <rect class="cls-34" width="200.99" height="202"/>
  <g>
    <g>
      <polygon class="cls-37" points="173.57 184.69 181.27 175.1 177 132.5 5.72 134.5 19.22 153.19 27.77 178.04 43.28 189.15 154.95 189.11 173.57 184.69"/>
      <path class="cls-31" d="M178.5,174.28c.09-.01.18-.03.27-.04-.08.21-.17.42-.27.63-2.77,5.88-12.05,12.27-18.85,12.93-1.55.15-3.13.02-4.7.02-27.96.33-55.04.72-82.12.99-3.8.04-9.35.29-13.14,0-5.94-.65-11.48-.09-16.4-.95-15.34-2.68-19.29-18.42-22.84-28.74-.02-.06-.04-.12-.06-.17.02-.14.04-.27.06-.41.36-2.38,1.11-5.05,2.76-7.98,3.73-6.62,11.52-11.45,20.13-10.99,1.27.07,10.07.33,13.17,4.27.77.98,2.91,3.69,2.22,7.09-.4,2.01-1.59,3.34-2.22,3.96.22-.78.28-1.57.19-2.33-.09-.77-.33-1.51-.72-2.17-.32-.63-.78-1.31-1.45-1.92-2.5-2.31-5.89-1.8-6.85-1.65-3.89.59-6.09,3.44-6.59,4.12.69-.56,1.81-1.32,3.35-1.85.9-.31,2.22-.77,3.86-.57.07.01.13.02.2.03-2.05,1.08-2.77,3.17-3.12,4.19-.98,2.86-.2,5.48.32,6.77.06.15.12.29.17.4.32.69.7,1.31,1.11,1.86.01.02.03.04.05.06,2.34,3.03,6.59,3.48,9.54,1.41.56-.39,1.07-.87,1.51-1.44.01-.02.03-.04.05-.06.64-.82,1.19-1.56,1.67-2.23,2.72-3.75,3.36-5.35,5.19-6.69.41-.3,3.01-2.15,6.42-1.73.54.07,3.56.49,5.49,3.05.54.71,1.76,2.32,1.36,4.33-.08.39-.2.73-.35,1.04h-.88c-.04-.36-.13-.7-.27-1.02-.18-.56-.54-1.35-1.27-2.02-1.69-1.55-3.97-1.21-4.61-1.11-2.61.4-4.1,2.31-4.44,2.77.46-.37,1.22-.89,2.25-1.25.61-.21,1.5-.51,2.6-.38.44.05.84.16,1.2.31-.13.04-.25.09-.36.15-1.3.62-1.76,1.89-1.99,2.55,0,.02-.01.05-.02.07-.71,2.08.08,3.92.3,4.38.28.58.63,1.07,1.01,1.48.97,1.04,2.11,1.57,2.71,1.84.63.29,1.12.64,1.68.76.72.36,1.56.4,2.37.49,2.32.28,8.17-.41,14.38-1.31.42-1.96,1.17-4.12,2.58-6.45,3.73-6.16,11.52-10.65,20.13-10.23,1.27.06,10.07.3,13.17,3.97.77.91,2.91,3.43,2.22,6.6-.4,1.87-1.59,3.11-2.22,3.68.22-.72.28-1.46.19-2.17-.09-.72-.33-1.4-.72-2.02-.32-.59-.78-1.22-1.44-1.79-2.51-2.15-5.9-1.67-6.85-1.54-3.88.55-6.09,3.2-6.59,3.83.69-.52,1.81-1.23,3.35-1.72.91-.29,2.22-.71,3.86-.53.07,0,.13.01.2.02-2.06,1.01-2.77,2.95-3.12,3.9-.98,2.66-.2,5.1.32,6.3.07.14.12.27.17.37.32.64.69,1.22,1.11,1.74.02.01.03.03.05.05,2.34,2.81,6.59,3.24,9.54,1.31.56-.36,1.07-.81,1.51-1.34.01-.02.03-.04.04-.05.64-.76,1.19-1.45,1.67-2.08,2.72-3.49,3.36-4.98,5.19-6.22.41-.28,3.02-2,6.42-1.61.54.07,3.56.46,5.49,2.84.53.66,1.76,2.16,1.36,4.03-.08.36-.21.69-.36.97h-.88c-.04-.33-.12-.65-.27-.95-.18-.53-.54-1.26-1.27-1.88-1.69-1.45-3.97-1.12-4.61-1.03-2.61.37-4.1,2.15-4.43,2.58.46-.35,1.22-.83,2.25-1.16.6-.2,1.49-.48,2.6-.36.44.05.84.15,1.2.29-.13.04-.25.09-.36.14-1.3.58-1.76,1.75-1.99,2.37,0,.02-.01.04-.02.06-.71,1.93.08,3.65.3,4.08.28.54.64.99,1.01,1.38.97.97,2.12,1.46,2.71,1.71.63.27,1.12.6,1.68.71.72.33,1.56.37,2.37.46,4.18.46,19.79-2,28.37-3.21h0Z"/>
      <path class="cls-32" d="M173.67,101.86c-43.54-.05-87,.18-130.53-.33-10.31-.12-16.84,3.77-21.3,12.54-.91,1.78-2.35,4.28-3.9,4.58-5.98,1.14-8.85,5.79-12.36,9.75-4.48,5.04-2.86,11.76,3.05,14.92,6.44,4.56,9.08,15.02,13.12,24.96,4.78,11.76,11.51,22.79,28.79,22.49,34.17-.23,68.34-.46,102.5.11,11.41.19,20.41-2.87,27.51-11.67.1-.13.56.03,1.18.08M42.27,105.98c41.97.25,83.95.51,125.93.8,1.89.01,3.78.21,6,.35.6,5.62,1.33,10.95,1.67,16.3.21,3.3-7.06,7.68-12.53,7.69-20.73.02-41.46,0-62.19-.01-17.77,0-34.49-.2-51.21.1-6.3.12-11.95-.91-17.21-4.46-3-2.02-6.33-3.57-9.46-5.31,2.7-10.77,8.54-15.52,19-15.45h0ZM21.69,125.59c2.3,1.16,4.58,2.38,6.85,3.6.57.31,1.09.73,2.87,1.93H10.93c1.39-6.81,4.95-8.47,10.77-5.54h0ZM160.84,186.39c-1.55.15-3.13.02-4.7.02-27.96.33-55.04.72-82.12.99-3.8.04-9.35.29-13.14,0-5.94-.65-11.48-.09-16.4-.95-15.34-2.68-19.29-18.42-22.84-28.74-.78-2.26-1.54-4.27-2.41-5.81l-11.24-15.31c50.44-2.06,112.44,0,169.35,0,1.1,11.01,2.72,22.19,3.17,33.41.04,1.09-.25,2.26-.81,3.45-2.77,5.88-12.05,12.27-18.85,12.93h0ZM183.34,175.17"/>
      <path class="cls-37" d="M100.63,131.1c-17.25,0-33.97-.2-50.69.1-6.3.12-11.95-.91-17.21-4.45-3-2.02-6.33-3.57-9.46-5.31,2.7-10.77,8.54-15.52,19-15.46,41.98.25,83.95.52,125.93.8,1.89.01,3.78.21,6,.35.6,5.62,1.33,10.95,1.68,16.3.21,3.3-7.07,7.68-12.53,7.69-20.73.02-41.46,0-62.71-.01h0Z"/>
      <path class="cls-37" d="M10.49,131.06c1.82-6.74,5.38-8.41,11.2-5.47,2.3,1.16,4.58,2.38,6.85,3.6.57.31,1.09.73,2.87,1.93-7.69,0-14.09,0-20.92-.07h0Z"/>
      <path class="cls-48" d="M181.67,180.27h.04c-.02.21-.03.42-.04.62,0-.2,0-.41,0-.62Z"/>
    </g>
    <g>
      <polygon class="cls-37" points="112.69 149.06 108.83 147.42 99.87 53.08 141.01 58.55 179.73 54.96 193.52 49.76 184.29 150.06 112.69 149.06"/>
      <line class="cls-37" x1="112.53" y1="178.82" x2="106.36" y2="137.04"/>
      <path class="cls-31" d="M186.99,128.28l-7.24,58.5s-10.53,9.88-34.03,9.88c-20.42,0-32.97-10.65-32.97-10.65l-4.58-45.28h.11c-.04-.23-.07-.45-.11-.68.21-.2-1.34-11.2-1.32-11.5.23-3.88-.02-8.99,3.48-15.2,4.03-7.15,12.43-12.36,21.73-11.87,1.37.07,10.87.35,14.22,4.6.83,1.06,3.14,3.98,2.4,7.65-.43,2.16-1.72,3.61-2.4,4.27.23-.84.3-1.69.2-2.52-.1-.83-.36-1.63-.78-2.34-.34-.68-.84-1.41-1.56-2.08-2.71-2.49-6.37-1.93-7.4-1.78-4.2.64-6.58,3.71-7.12,4.45.75-.6,1.96-1.43,3.62-2,.97-.34,2.4-.82,4.17-.61.07,0,.14.02.21.03-2.22,1.17-2.99,3.42-3.37,4.53-1.06,3.09-.22,5.92.35,7.31.07.16.13.31.19.43.34.75.75,1.41,1.2,2.01.01.02.03.04.05.06,2.53,3.27,7.11,3.76,10.3,1.52.6-.42,1.15-.94,1.63-1.56.02-.02.03-.04.05-.07.69-.88,1.28-1.68,1.8-2.41,2.93-4.05,3.63-5.78,5.6-7.22.45-.33,3.26-2.32,6.93-1.87.59.07,3.84.53,5.93,3.29.58.76,1.9,2.5,1.47,4.67-.08.42-.22.8-.38,1.13h-.96c-.04-.38-.14-.76-.29-1.1-.2-.61-.59-1.46-1.37-2.19-1.82-1.68-4.28-1.3-4.98-1.2-2.82.43-4.42,2.5-4.79,2.99.5-.4,1.31-.96,2.43-1.35.65-.23,1.61-.56,2.81-.41.47.06.91.18,1.29.34-.14.05-.27.1-.39.16-1.4.67-1.9,2.04-2.15,2.76,0,.02-.02.05-.02.07-.77,2.24.09,4.23.33,4.73.31.63.69,1.16,1.09,1.6,1.05,1.13,2.28,1.69,2.93,1.99.68.31,1.21.69,1.81.83.78.38,1.69.43,2.56.53,5.84.69,13.34-4.29,17.31-4.47h.01Z"/>
      <path class="cls-32" d="M109.89,183.74c.1-.13.56.03,1.18.08-.24,2.43.45,4.23,1.65,5.64,1.32,1.54,3.25,2.62,5.24,3.52,19.99,9.08,39.81,8.63,59.13-1.93,1.85-1.01,3.47-3.85,3.77-6.04,1.32-9.48,2.11-19.04,3.15-29.04,4.07-36.27,7.12-71.58,11.56-107.5,1.13-7.84.36-10.63-6.59-14.16h0c-13.62-6.92-70.12-9.41-87.76.88-6.45,3.76-7.72,7.04-4.65,13.96,3.64,18.67,3.96,37.94,6.45,57.26M103.56,111.67c.6,5.62,1.33,10.95,1.67,16.3M109.86,174.54c.04,1.09-.25,2.26-.81,3.45M106.7,141.13,185.74,118.9c-.27,1.24-.38,1.57-.49,1.9-.37.12-.45.15-.46.16-.71,8.58-1.25,17.23-2.1,25.85-1.21,12.25-2.54,24.49-4.13,36.7-.24,1.86-1.78,4.15-3.39,5.14-9.48,5.85-20.18,7.54-31.01,7.01-7.18-.36-14.4-2.03-21.36-3.96-4.48-1.24-7.83-3.56-9.32-7.97-.4-1.18-.67-2.51-.78-4.01-.06-.73-.12-1.45-.17-2.18-1.72-21.57-4.14-43.09-6.28-64.63-.29-3.13-.6-5.38-.91-7.64,0-2.19-.11-3.54-.22-4.88-.72-7.11-1.69-13.42-2.41-19.75-1.04-9.14-1.9-18.3-2.85-27.56,31,10.03,61.54,10.24,92.73-.47-2.27,21.92-4.56,44.11-6.85,66.29h0Z"/>
      <path class="cls-37" d="M103.56,111.67c.6,5.62,1.33,10.95,1.68,16.3"/>
      <path class="cls-48" d="M184.99,120.88c-.14-.24-.02-.56.34-.98.14.23.03.56-.34.98Z"/>
      <ellipse class="cls-43" cx="145.68" cy="42.88" rx="48.66" ry="12.27"/>
      <g id="Generative_Object" data-name="Generative Object">
        <path class="cls-10" d="M136.87,37.5c-.47.02-.94.06-1.41.09-1.33.07-2.64.16-3.97.26l-5.69.44c-.36-.84-.93-1.53-1.37-2.34-.32-.58-.5-1.81-1.15-2.38-.56-.49-.49,0-.75.04-1.16.19-2.5.19-3.44.35-.46.08-.99.12-1.32.18-.43.08-1.75.69-2.47.79-.3.04-1.34-.21-1.85-.09-.09.02-.84.67-.97.71-.45.14-1.8.04-2.29.18-.36.1-.57.52-.62.53-.04,0-.34-.38-.71-.18-.18.1.14.46.13.49-.04.26-2.51.53-2.78.66-.14.07-.28.52-.44.62-.21.13-1,.68-1.06.71-1.04.49-2.44.29-3.09,1.76l-1.89,1.5c-.05-.33-.25-.25-.26-.31-.08-.41.27-1.15.44-.53.13-.58.54-.96.88-1.41.05-.06.06-.49.13-.57.03-.03.71-.28.79-.35.35-.3.19-.55.44-.79.64-.62,2.32-1.12,3-1.41.49-.21.98-.46,1.5-.62l-.22-.26c3.5-1.23,7.45-2.17,11.11-2.82.04.97,1.36.12,1.63.09,1.39-.2,2.87-.33,4.14-.26.14,0,.25.26.26.26.27,0,1.19-.35,1.41-.35.29,0,.53.31,1.15.26.45-.03,2.19-1.09,2.34-.75.24.55-.27.44-.57.57.54-.12,1.38.12,1.85.09.09,0,.14-.26.18-.26,1.13-.06,2.3.19,3.35-.26.29.19-.13.35-.13.66l3.62,3.53c.21.45.38.71.09,1.19h0Z"/>
        <path class="cls-23" d="M139.33,30.63c.39,1.08,1.91,1.56,2.78,2.29.49.41,2.14,2.1,2.42,2.6.24.43.38,1.52.44,1.59.13.15.63-.13.62.22-2.92,0-5.82.04-8.73.18.29-.48.12-.74-.09-1.19l-3.62-3.53c0-.31.43-.47.13-.66-1.04.45-2.22.21-3.35.26-.03,0-.09.26-.18.26-.47.03-1.31-.2-1.85-.09.3-.14.82-.02.57-.57-.15-.34-1.88.71-2.34.75-.62.05-.85-.27-1.15-.26-.22,0-1.15.36-1.41.35-.02,0-.13-.26-.26-.26-1.28-.06-2.75.07-4.14.26-.27.04-1.59.88-1.63-.09,6.96-1.25,14.69-1.92,21.77-2.12h0Z"/>
        <path class="cls-10" d="M150.53,54.96c.43-.38,1.67-.15,1.98-.35.21-.14.21-.84.26-.88.15-.1,3.13-.23,3.62-.26,7.45-.49,15.19-1.42,22.21-3.09,2.96-.7,6.59-1.74,9.34-3.09,2.14-1.04,5.14-3.15,4.89-5.86,0-.02-.26-.25-.26-.26-.14-.69-.03-.73.53-1.1,2.09,2.37,1.39,4.34-.84,6.26-7.5,6.45-31.85,8.59-41.74,8.64h0Z"/>
        <path class="cls-58" d="M131.49,37.86c-1.77.14-3.53.31-5.29.53-5.62.7-11.31,1.78-16.66,3.62-2.46.84-5.1,1.84-7.14,3.44-1.82-1.18-2.31-1.45-2.64-3.62l1.89-1.5c.64-1.48,2.04-1.28,3.09-1.76.06-.03.85-.58,1.06-.71.16-.1.3-.55.44-.62.27-.13,2.74-.4,2.78-.66,0-.03-.31-.38-.13-.49.36-.21.67.18.71.18.04,0,.26-.43.62-.53.5-.13,1.85-.03,2.29-.18.12-.04.88-.69.97-.71.51-.12,1.55.13,1.85.09.72-.1,2.04-.71,2.47-.79.33-.06.86-.1,1.32-.18.94-.16,2.28-.16,3.44-.35.26-.04.19-.54.75-.04.65.57.83,1.8,1.15,2.38.44.81,1.01,1.49,1.37,2.34l5.69-.44h0Z"/>
        <g>
          <path class="cls-23" d="M193.1,40.06c-.56.37-.67.41-.53,1.1,0,.02.26.25.26.26.25,2.71-2.75,4.82-4.89,5.86-2.76,1.34-6.38,2.39-9.34,3.09-7.02,1.66-14.76,2.59-22.21,3.09-.49.03-3.46.16-3.62.26-.05.04-.05.74-.26.88-.31.21-1.55-.02-1.98.35h-.18c-1.12,0-2.22.04-3.31-.18-13.9-.16-29.98-.87-43.33-5.91-.03,0-.06,0-.09,0-.38-.6-1.26-.68-1.81-.97-.69-.37-1.98-1.14-2.6-1.59-.04-.05.08-.24-.26-.18-.12-.09-.17-.18-.26-.26l-.26-.26c-.11-.14-.09-.12-.18-.26-.08-.13-.07-.31-.26-.26-3.61-4.92,4.92-8.28,8.46-9.52l.22.26c-.52.16-1,.4-1.5.62-.68.29-2.35.79-3,1.41-.26.25-.1.49-.44.79-.09.08-.77.32-.79.35-.07.08-.08.51-.13.57-.34.45-.75.83-.88,1.41-.17-.62-.52.12-.44.53.01.05.21-.02.26.31.34,2.16.83,2.43,2.64,3.62.47.3.85.46,1.32.71.25.13.45.23.71.35,1.55.74,2.69,1.15,4.32,1.67,5.51,1.79,11.39,2.88,17.14,3.62.13.02.89.13.93-.09,1.78.68,8.13.88,10.36.97,5.18.21,10.46.17,15.65,0,5.27-.17,10.56-.58,15.78-1.32,6.14-.88,12.3-2.2,18.03-4.58.13-.16-1.16-.56-1.32-.62-.89-.29-2.02-.65-3-.97-.46-.15-1.8-.22-1.98-.35s.11-.25-.13-.35c-.11-.05-.39.1-.62,0s-1.83-.87-1.85-.97l.22-.26c.29.16.84.66,1.23.4-.59-.2-.98-.71-1.45-1.02-.38-.25-1.08.03-.4-.75l-.13-.22c-.28,0-.94-.04-1.1-.35,2.58.64,5.45,1.42,7.8,2.47.54.24,3.68,1.9,3.66,2.34-.24.28-.59.22-.93.22.51.62,1.74-.63,2.34-.93-3.97-2.61-8.9-4.16-13.53-5.25-9.7-2.26-19.89-2.82-29.84-2.82.01-.35-.49-.07-.62-.22-.05-.06-.2-1.16-.44-1.59-.28-.5-1.93-2.19-2.42-2.6-.87-.73-2.39-1.21-2.78-2.29,8.86-.24,18.23,0,27.02,1.06,6.69.8,22.26,3.29,26.75,8.38h0Z"/>
          <g>
            <path class="cls-10" d="M150.35,54.96c-9.12.21-18.33-.1-27.37-1.32-6.48-.88-13.24-2.23-19.26-4.76,13.35,5.03,29.43,5.74,43.33,5.91,1.08.21,2.18.18,3.31.18Z"/>
            <path class="cls-10" d="M103.63,48.87c-1.16-.44-3.64-1.61-4.41-2.56.62.45,1.91,1.22,2.6,1.59.54.29,1.43.37,1.81.97Z"/>
            <path class="cls-10" d="M98.25,45.35c-.21.05-.18-.14-.26-.26.19-.04.19.14.26.26Z"/>
            <path class="cls-10" d="M98.7,45.88c-.11-.1-.17-.14-.26-.26l.26.26Z"/>
            <path class="cls-10" d="M99.23,46.32c-.09-.06-.17-.1-.26-.18.34-.07.22.12.26.18Z"/>
            <path class="cls-18" d="M179.4,43.76s.35.09.31.22c-.02.05-.54-.09-.31-.22Z"/>
          </g>
        </g>
        <g>
          <path class="cls-55" d="M144.71,38.56c-.04.35.07.24.31.26.88.08,1.91-.03,2.82,0,.16,0,.43-.09.4.18-6.38-.16-13.33.18-19.44,1.23-2.79.48-11.13,2.63-12.65,4.8-.78,1.11-.63,1.85.31,2.78,1.15,1.13,5.45,2.45,6.96,2.64.59.08,2.73-.19,2.95.4.05.14-.05.72,0,.79.08.1.34,0,.44.04-.03.22-.8.1-.93.09-5.76-.73-11.63-1.82-17.14-3.62.18-.09.23-.69.26-.75,1.41-2.3,8.38-5.16,11.02-5.86.48-.13,1.32-.61,1.37.09,3.26-1.05,6.62-1.65,10.01-2.12,4.39-.6,8.88-.95,13.31-.97h0Z"/>
          <path class="cls-55" d="M180.32,44.82c.19.13,1.52.21,1.98.35.98.32,2.11.68,3,.97.16.05,1.46.46,1.32.62-5.72,2.39-11.89,3.7-18.03,4.58l.4-.62c1.26-.6,2.59-1.05,3.83-1.67,2.12-1.07,4.39-2.38,1.63-4.58-4.96-3.96-19.87-5.3-26.22-5.47.04-.27-.23-.17-.4-.18-.91-.03-1.93.08-2.82,0-.24-.02-.35.09-.31-.26,9.68-.05,23.98,1.15,32.31,6.26.35.22.98.93,1.23,1.06.02,0,.15-.25.35-.18.03.01.41.44.44.44.24.03,1.06-1.13,1.28-1.32Z"/>
          <path class="cls-16" d="M175.03,41.12c-.55.7.98.69,1.45.97.19.11.23.5.26.53.1.08.54.04.62.09.16.1.22.34.57.53l-.22.26c.02.1,1.61.87,1.85.97s.51-.05.62,0c.24.11-.05.22.13.35-.21.2-1.04,1.35-1.28,1.32-.03,0-.41-.43-.44-.44-.2-.07-.34.19-.35.18-.25-.13-.88-.84-1.23-1.06-8.33-5.11-22.63-6.31-32.31-6.26-4.44.02-8.92.37-13.31.97.23-.33.19-.57.18-.97.47-.04.95-.05,1.41-.09,1.23-.1,2.47-.2,3.7-.26,12.84-.71,25.84-.04,38.35,2.91h0Z"/>
          <path class="cls-55" d="M145.59,37.33c9.95,0,20.14.56,29.84,2.82,4.63,1.08,9.56,2.64,13.53,5.25-.6.29-1.83,1.55-2.34.93.34,0,.69.06.93-.22.02-.43-3.12-2.09-3.66-2.34-2.35-1.04-5.22-1.83-7.8-2.47-.36-.09-.7-.09-1.06-.18-12.51-2.95-25.51-3.62-38.35-2.91l.22-.44-1.45-.18c.47-.03.94-.07,1.41-.09,2.9-.13,5.81-.18,8.73-.18h0Z"/>
          <path class="cls-27" d="M124.35,39.44c-.02.21.1.3-.13.44-.5.31-4.41.85-5.38,1.15-.04.01-.15.12-.22.13.62.32,1.4-.82,1.41.4-2.64.7-9.61,3.57-11.02,5.86-.04.07-.08.66-.26.75-1.63-.53-2.77-.93-4.32-1.67.22-.09-.21-.05-.04-.26.47-.61,3.65-2.25,4.49-2.64.62-.28,1.78-.47,2.07-1.06,2.31-.8,4.31-1.32,6.7-1.85,1.59-.36,3.15-.7,4.76-.97.64-.11,1.3-.17,1.94-.26h0Z"/>
          <path class="cls-3" d="M118.18,39.97c.15.68-.38.23-.53.71-2.39.54-4.39,1.06-6.7,1.85-2.54.88-5.21,1.81-7.23,3.62-.47-.25-.86-.4-1.32-.71,2.04-1.6,4.69-2.59,7.14-3.44.07.25.31.13.49.09,2.82-.75,5.23-1.54,8.15-2.12h0Z"/>
          <path class="cls-16" d="M172.83,49.05c-1.25.63-2.58,1.07-3.83,1.67l-.4.62c-5.22.75-10.51,1.15-15.78,1.32.21-.36.93-.11,1.28-.18.06-.01.29-.34.35-.35.68-.1,1.71.07,2.38,0s1.43-.38,1.94-.44c.91-.1,2.21-.01,3.35-.18.05,0,.22-.26.26-.26.04,0,.34.24.79.18.37-.05,1.37-.55,1.85-.62.16-.02.31.27.35.26.52-.08,1.06-.27,1.59-.35,1.85,0,3.64-1.29,5.38-1.94l.49.26h0Z"/>
          <path class="cls-46" d="M110.95,42.53c-.29.58-1.45.78-2.07,1.06-.85.39-4.02,2.03-4.49,2.64-.16.21.26.18.04.26-.25-.12-.46-.22-.71-.35,2.01-1.8,4.69-2.74,7.23-3.62h0Z"/>
          <path class="cls-18" d="M176.09,41.29c.16.31.82.35,1.1.35l.13.22c-.69.78.01.5.4.75.47.31.86.82,1.45,1.02-.4.26-.95-.24-1.23-.4-.35-.19-.41-.43-.57-.53-.08-.05-.52,0-.62-.09-.03-.03-.08-.42-.26-.53-.47-.28-2-.27-1.45-.97.36.08.7.09,1.06.18h0Z"/>
          <path class="cls-36" d="M135.45,37.59l1.45.18-.22.44c-1.23.07-2.47.17-3.7.26l.31-.53-7.1.44c1.76-.22,3.52-.38,5.29-.53,1.32-.11,2.64-.19,3.97-.26h0Z"/>
          <path class="cls-27" d="M132.99,38.47c-.47.04-.95.05-1.41.09-2.42.21-4.83.53-7.23.88-.64.1-1.3.16-1.94.26l-.22-.53c-1.34.22-2.68.53-4.01.79-2.93.57-5.34,1.37-8.15,2.12-.17.05-.41.16-.49-.09,5.35-1.84,11.04-2.92,16.66-3.62l7.1-.44-.31.53h0Z"/>
          <path class="cls-55" d="M131.58,38.56c0,.4.05.64-.18.97-3.39.46-6.75,1.06-10.01,2.12-.05-.7-.89-.22-1.37-.09-.01-1.22-.79-.08-1.41-.4.07-.01.18-.12.22-.13.97-.29,4.88-.83,5.38-1.15.23-.14.11-.23.13-.44,2.4-.35,4.81-.67,7.23-.88h0Z"/>
          <path class="cls-46" d="M122.41,39.71c-1.61.27-3.17.61-4.76.97.15-.47.68-.02.53-.71,1.34-.26,2.67-.57,4.01-.79l.22.53h0Z"/>
          <g>
            <path class="cls-16" d="M148.24,39c6.35.16,21.27,1.51,26.22,5.47,2.76,2.2.49,3.52-1.63,4.58l-.49-.26c-1.73.65-3.52,1.95-5.38,1.94-.53.08-1.06.28-1.59.35-.04,0-.19-.29-.35-.26-.49.07-1.48.57-1.85.62-.46.06-.75-.18-.79-.18-.05,0-.22.26-.26.26-1.14.16-2.44.07-3.35.18-.51.06-1.27.37-1.94.44s-1.7-.1-2.38,0c-.06,0-.29.34-.35.35-.34.06-1.07-.19-1.28.18-5.19.17-10.46.21-15.65,0-2.23-.09-8.58-.29-10.36-.97-.1-.04-.37.06-.44-.04-.05-.08.05-.65,0-.79-.22-.58-2.36-.32-2.95-.4-1.51-.2-5.82-1.52-6.96-2.64-.94-.93-1.08-1.67-.31-2.78,1.52-2.17,9.86-4.32,12.65-4.8,6.11-1.06,13.06-1.4,19.44-1.23h0Z"/>
            <path class="cls-18" d="M120.64,45.44c.05-.1.55-.52.66-.71-.06.31.8.49.84.66,0,.03-.22.14-.18.26.44,1.32,1.68,1.92,2.78,2.25,2.18,1.05,4.88,1.78,7.27,1.85,7.58,1.23,28.26,1.72,34.86-1.85,1.85-1,2.54-2.29.71-3.79-.86-.7-1.91-1-2.87-1.41-.45-.19-1.07-.3-1.32-.62s-.14-.19-.09-.62c1.52.39,3.35.75,4.8,1.32.02,0,.12.25.35.35.19.08.34-.1.35-.09.09.04,0,.22.09.26.2.09.47.06.53.09.08.04-.13.15.09.26.14.07.27-.13.35-.09.22.11.49.49.71.62.99.55,1.44.12,1.1,1.98-.06.36-1.07,1.64-1.37,1.81-.38.21-1.02.21-1.32.35-.2.09-.42.49-.53.53-6.58,2.51-20.17,2.8-27.33,2.56-4.93-.17-15.06-1.04-19.13-3.53-.85-.52-1.87-1.45-1.37-2.47h0Z"/>
            <path class="cls-16" d="M163.31,41.47c-.05.43-.16.31.09.62-1.04.24-2.05-.39-3.04-.62-9.9-2.28-23.93-2.22-33.54,1.15-.07.02-.11-.13-.22-.09-1.21.44-3.89,1.75-3.66,3.31.33,2.23,7.19,3.62,9.08,3.92-2.4-.07-5.09-.81-7.27-1.85-1.1-.32-2.34-.93-2.78-2.25-.04-.12.18-.23.18-.26-.04-.18-.9-.35-.84-.66-.11.18-.61.6-.66.71-.95.34.39-1.38.49-1.41.44-.14.5.18.53.18.09-.01,0-.21.09-.26,3.18-1.8,6.67-2.94,10.31-3.53,9.78-1.58,21.67-1.38,31.25,1.06h0Z"/>
            <path class="cls-16" d="M126.82,42.62c-2.48,1.25-4.47,3.05-1.02,4.85,7.08,3.69,28.8,3.19,36.67,1.32,1.93-.46,7.32-1.96,4.32-4.67-.62-.56-1.67-.77-2.07-1.41.95.41,2.01.71,2.87,1.41,1.84,1.5,1.15,2.79-.71,3.79-6.6,3.57-27.28,3.09-34.86,1.85-1.89-.31-8.75-1.69-9.08-3.92-.23-1.55,2.44-2.87,3.66-3.31.11-.04.15.11.22.09h0Z"/>
            <g>
              <path class="cls-55" d="M163.4,42.09c.25.31.87.42,1.32.62.4.64,1.45.85,2.07,1.41,3,2.72-2.39,4.21-4.32,4.67-7.87,1.87-29.59,2.37-36.67-1.32-3.45-1.8-1.46-3.6,1.02-4.85,9.61-3.37,23.65-3.42,33.54-1.15.99.23,2,.86,3.04.62Z"/>
              <path class="cls-16" d="M130.34,42.97c.11.37-.7.69-.93.88l-.09-.18c-3.53,2.52,2.16,4.06,4.1,4.49-3.62-.08-9.62-2.64-3.09-5.2Z"/>
              <path class="cls-16" d="M161.72,47.02c1.64-.87,2.53-1.88.71-3.26,1.25.72,2.5,1.75.75,2.91-.17.11-1.32.71-1.45.35Z"/>
              <g>
                <path class="cls-16" d="M162.43,43.76c1.82,1.38.93,2.39-.71,3.26-5.46,2.9-22.17,2.53-28.3,1.15-1.94-.44-7.63-1.98-4.1-4.49l.09.18c.23-.19,1.04-.51.93-.88,7.29-2.86,25.23-3.16,32.09.79h0Z"/>
                <path class="cls-16" d="M158.37,43.76c-.63-.27-2.09-.95-2.47-.26-3.7-1.81-15.01-1.53-19.08-.53-1.72.42-3.8,1.12-1.54,2.82-.03,0-.28.11-.57,0-.22-.08-1.28-.82-1.37-.75-.08.96.62,1.23,1.41,1.54-.68-.05-2.03-.44-2.38-1.06.08-1.76,1.55-2.21,2.95-2.73l-.22-.26c5.94-1.7,15.4-1.52,21.37-.09.41.1,3.42.99,3.53,1.15.38.58-.4.42-.44.44-.08.03-.31.35-.35.35-.05,0-.47-.45-.84-.62h0Z"/>
                <path class="cls-55" d="M158.37,43.76c.78,1.02.47,1.67-.57,2.29-3.88,2.33-18.8,2.2-23.05.53-.79-.31-1.49-.58-1.41-1.54.08-.07,1.15.67,1.37.75.29.11.55,0,.57,0,4.93,1.68,14.66,2.23,19.61.62,1.63-.53,3.34-1.77,1.02-2.91.38-.69,1.84-.01,2.47.26h0Z"/>
                <path class="cls-16" d="M135.1,42.53l.22.26c-1.41.52-2.88.97-2.95,2.73-.33-.58-.04-.63-.09-.84,0-.03-.39-.01-.44-.26-.21-1.08,2.57-1.69,3.26-1.89h0Z"/>
                <g>
                  <path class="cls-16" d="M155.9,43.5c2.33,1.14.61,2.38-1.02,2.91-4.96,1.62-14.69,1.06-19.61-.62-2.26-1.7-.18-2.4,1.54-2.82,4.07-1,15.38-1.28,19.08.53h0Z"/>
                  <path class="cls-55" d="M151.06,43.32c-.59.98,1.63.73,1.15,1.72-.08.17-.93.29-1.1.49-.42.05-.04-.3-.26-.53-.34.22-.82.22-1.1.26.18-1.03-2.45-1.19-3.22-1.23-.75-.04-4.4.14-4.85.53-.86.75,1.7,1.06,2.12,1.06.22,0,.73-.15,1.02-.13l-1.02-.49,3.88-.09.09.18c-.14.14-2.49.57-.4.53.05.1.05.49-.04.53-.45.2-5.38-.12-6.17-.26-.56-.1-2.35-.42-2.16-1.1.22-.76,3.16-1.15,3.92-1.19l-.04-.53c2.59-.18,5.64-.19,8.2.26h0Z"/>
                  <path class="cls-55" d="M142.86,43.06l.04.53c-.77.04-3.7.43-3.92,1.19-.19.68,1.6,1,2.16,1.1.79.14,5.72.46,6.17.26.1-.04.1-.43.04-.53.86-.01,1.56-.21,2.38-.35.28-.05.76-.05,1.1-.26.23.23-.16.58.26.53.17-.19,1.02-.31,1.1-.49.49-.99-1.74-.74-1.15-1.72.68.12,4.39.79,2.87,1.94-2.15,1.62-13.86,1.85-16.04.26-.31-.22-.64-.75-.49-1.1.4-.95,4.47-1.3,5.47-1.37h0Z"/>
                  <path class="cls-36" d="M149.73,45.26c-.82.14-1.52.34-2.38.35-2.09.04.26-.39.4-.53l-.09-.18-3.88.09,1.02.49c-.28-.01-.8.13-1.02.13-.41,0-2.98-.31-2.12-1.06.45-.39,4.1-.57,4.85-.53.76.04,3.39.21,3.22,1.23h0Z"/>
                </g>
              </g>
            </g>
          </g>
        </g>
      </g>
      <g id="Generative_Object1" data-name="Generative Object1">
        <path class="cls-30" d="M193.37,40.41c.43,1.11.31,2.35-.26,3.39-.34.61-2.62,2.69-.22,1.1l1.45-1.67c-.15,1.3-1.19,2.29-2.12,3.09l-5.25,2.47-.04.53c-8.75,3.55-21.01,4.94-30.46,5.47-13.69.77-29.46.23-42.84-2.73-4.11-.91-15.89-3.91-16.62-8.81.93,1.03,1.82,2.21,3.17,2.73,5.76,4.47,23.44,6.81,30.9,7.4,15.4,1.23,34.8.79,49.72-3.26,3.55-.97,16.89-5.29,11.41-10.84.51.21.83.73,1.15,1.15h0Z"/>
        <path class="cls-2" d="M194.34,43.23l-1.45,1.67c-2.4,1.59-.12-.49.22-1.1.57-1.04.69-2.28.26-3.39.75.98,1.13,1.46.97,2.82h0Z"/>
        <path class="cls-41" d="M100.19,45.97c-1.35-.52-2.24-1.7-3.17-2.73-.17-1.17.11-1.55.71-2.47-.39,2.2.81,3.91,2.47,5.2h0Z"/>
        <path class="cls-26" d="M192.22,46.32c-1.53,1.31-3.43,2.24-5.29,3l.04-.53,5.25-2.47h0Z"/>
        <g>
          <path class="cls-17" d="M192.22,39.26c5.47,5.55-7.86,9.88-11.41,10.84-14.92,4.05-34.32,4.49-49.72,3.26-7.45-.6-25.13-2.93-30.9-7.4-1.66-1.29-2.86-3-2.47-5.2,3.64-5.64,21.09-8.5,27.55-9.25,12.49-1.47,26.46-1.47,38.96-.18,6.57.68,23.38,3.27,27.99,7.93h0Z"/>
          <g>
            <g>
              <path class="cls-20" d="M191.16,40.41l-3.62,3.79c-.8-.49-1.79-.93-2.64-1.32,1.49-1.22,2.57-2.9,3.48-4.58.94.44,2.2,1.25,2.78,2.12h0Z"/>
              <path class="cls-20" d="M104.95,43.59c-.67.35-1.47.89-2.03,1.41-.26.14-.48.25-.62.53-1.92-1.3-3.8-3.08-1.89-5.38,1.44,1.29,1.47,2.54,3.53,3.09.21.05,1.16-.08,1.02.35h0Z"/>
              <path class="cls-20" d="M191.16,40.41c1.49,2.25-.26,3.82-2.03,5.02-.51-.4-1.04-.9-1.59-1.23l3.62-3.79h0Z"/>
            </g>
            <g>
              <path class="cls-22" d="M178.56,40.68l.09.13-.35.13c-1.84-.52-5.34-1.61-7.14-1.59-.17,0-.36-.02-.53,0-.21-.19-.91-.38-1.19-.44-12.4-2.48-29.37-2.37-41.91-.79v-.35c15.84-1.97,35.69-1.59,51.04,2.91h0Z"/>
              <path class="cls-49" d="M127.52,37.77v.35c-5.93.74-12.95,2.13-18.56,4.14-.85.31-1.82.7-2.6,1.15-.45,0-2.9,1.28-3.44,1.59.56-.52,1.36-1.06,2.03-1.41,6.26-3.29,15.56-4.95,22.57-5.82h0Z"/>
              <path class="cls-40" d="M184.46,42.7c.14.06.3.12.44.18.86.39,1.85.84,2.64,1.32.55.34,1.08.83,1.59,1.23-.29.2-.58.35-.88.53-.27-.43-1.21-.9-1.72-1.15-1.68-.81-3.56-1.45-5.33-2.03.05-.29.04-.67.35-.79.69.23,2.06.81,2.64.93.28.05.28.08.26-.22h0Z"/>
              <path class="cls-40" d="M106.36,43.41c.14,0,.93.29,1.15.35-.25.04-3.82,1.65-4.1,1.85-.21.15-.26.12-.22.44-.29-.17-.6-.34-.88-.53.14-.28.36-.38.62-.53.54-.3,2.98-1.59,3.44-1.59h0Z"/>
              <path class="cls-49" d="M184.46,42.7c.02.3.02.27-.26.22-.58-.11-1.95-.69-2.64-.93-1.1-.37-2.13-.74-3.26-1.06l.35-.13-.09-.13c2,.59,3.99,1.2,5.91,2.03h0Z"/>
              <path class="cls-53" d="M170.63,39.35c-.65.08-1.64.63-2.2.62-.21,0-1.24-.39-1.63-.44-6.47-.82-12.86-1.37-19.39-1.5-.86-.02-2.02-.12-2.78.18-.1-.12-.2-.31-.35-.35-.11-.03-.38,0-.53,0,0-.14-.05-.32-.22-.35-.95-.22-4.37.03-5.55.09-3.99.19-8,.67-11.94,1.23-.95.14-7.77,1.12-8.07,1.41-.12.12-.02.32.04.44-2.14.49-4.25,1.13-6.35,1.76-1.24.37-2.73.63-3.79,1.32-.11,0-.25-.02-.35,0-.21-.06-1-.35-1.15-.35.78-.45,1.75-.84,2.6-1.15,5.61-2.02,12.63-3.4,18.56-4.14,12.54-1.57,29.52-1.69,41.91.79.28.05.97.25,1.19.44h0Z"/>
              <path class="cls-40" d="M145.33,39.62c-.45.08-1.51.91-1.98,1.15.73-.15,1.46-.71,2.07-1.15.27-.02.77-.03.79.35-.02.02.05.27-.22.44-.22.14-1.17.3-1.5.44-2.58,1.1-2.19.82-4.89.26-.05-.19.1-.27.09-.44.75-.01,1.5-.07,2.25-.09.16,0,.43.09.4-.18.39,0,.73.22,1.19.09.08-.02,1.28-.75,1.5-.88.14-.08.38-.14.22-.35.01.02.34-.04.09.35h0Z"/>
              <path class="cls-12" d="M138.1,44.29l-4.98,1.32-.18.18c1.18-.19,2.33-.57,3.48-.88.15.28.42.12.04.44l-1.81.97c-.54.11-.96.07-1.5.09-.82-.15-1.41-.03-2.16-.18l-.57-.35s.46-.08.53-.09c.37-.05.5.03,1.06-.09.13-.03.24-.08.26-.09.87-.21,1.7-.48,2.56-.71,1.08-.29,2.19-.47,3.26-.79,0,.06,0,.12,0,.18h0Z"/>
              <g>
                <path class="cls-19" d="M170.63,39.35c.16-.02.36,0,.53,0,.28.31.54.83.88,1.06l.75,1.23c-.93.04-2.59.19-3.35.71-.18.12-.63.85-.79.88-.04,0-.6-.19-.84-.18-.43-.34-1.06-.04-1.06-.71l.57-1.06c.08.02.41,1.2.79,1.32.23.07.98-.09,1.02-.31.04-.25-1.19-1.42-1.41-1.67.38-.05.1-.36.71-.57v-.09c.57.02,1.55-.54,2.2-.62h0Z"/>
                <path class="cls-24" d="M168.42,40.06c-.6.21-.32.53-.71.57.22.26,1.45,1.42,1.41,1.67-.04.22-.79.38-1.02.31-.38-.12-.72-1.3-.79-1.32l-.57,1.06c0-.11.54-1.99.62-2.07.11-.12.85-.13,1.06-.22h0Z"/>
              </g>
              <path class="cls-12" d="M130.34,46.23c.11.38.84.34,1.15.57l-.44.49c-.22-.07-1.32-.3-1.37-.35-.23-.22.37-.04-.4-.44l.09-.18c.24.06.91-.1.97-.09h0Z"/>
              <path class="cls-12" d="M133.16,46.4c-.29.01-.85-.06-.97.18-.63-.08-1.22-.25-1.85-.35-.03-.12-.03-.26.09-.35l.57.35c.75.14,1.34.03,2.16.18h0Z"/>
              <path class="cls-29" d="M143.74,37.86c-.2-.01-.41,0-.62,0s-.52.08-.79.09c-.39.02-.82.16-1.15.18-6.02.27-12.03.62-17.98,1.59.68-.14,2-.27,2.51-.44.27-.09.36-.11.31-.44,3.95-.56,7.96-1.04,11.94-1.23,1.19-.05,4.6-.31,5.55-.09.16.04.21.21.22.35h0Z"/>
              <path class="cls-11" d="M126.02,38.82c.05.33-.03.35-.31.44-.51.16-1.83.3-2.51.44-1.72.35-3.49.58-5.2.97-.07-.12-.17-.32-.04-.44.29-.29,7.12-1.28,8.07-1.41h0Z"/>
              <path class="cls-40" d="M111.65,42.44l.18.18c-.46.31-1.7,1.79-2.12,2.29.24-.78-1.2-1.15-1.85-1.15,1.06-.69,2.55-.95,3.79-1.32h0Z"/>
              <path class="cls-12" d="M119.67,45.7c-.62.74-1.7,1.19-2.51,1.76-.6.43-.56.97-1.63,1.15-.46-.16-1.15-.12-.22-.18.09-.05.02-.25.04-.26.54-.32,2.39-1.32,2.38-2.07,0-.03-.22-.42-.26-.49.45-.28,2.37.58,1.76-.44.25.19.32.22.44.53h0Z"/>
              <path class="cls-12" d="M136.07,49.93c0,.09,0,.18,0,.26-.02.26.04.31.18.53-.65-.32-.18.73-.35,1.06-.06-.12-.34-.46-.35-.57-.06-.45.36-.73.09-.93.25-.4.4-.3.44-.35h0Z"/>
              <path class="cls-53" d="M178.29,40.94c1.13.32,2.16.69,3.26,1.06-.32.13-.3.5-.35.79-2.52-.82-5.14-1.47-7.71-2.12-.49-.12-.86.14-1.45-.26-.34-.23-.6-.75-.88-1.06,1.8-.02,5.3,1.07,7.14,1.59h0Z"/>
              <g>
                <g>
                  <path class="cls-24" d="M164.63,40.32c-.05.35-.52.39-.71.66-.11.16.32.05.04.31-.17.16-.42.08-.44.09-.04.03-.21.42-.44.44-.13.01-.33-.18-.35-.18-.38.01-.33.18-.35.18-.58-.07-3.24-1.22-3.62-1.06-.17.08-.14.3-.13.44-.08-.03-.1-.08-.18-.09.16-.56,1.3-1.41,1.81-1.5.43-.07,3.99.5,4.36.71h0Z"/>
                  <path class="cls-4" d="M158.64,41.21c.21.08.23-.13.57-.09.65.08,1.19.2,1.45.66.05.09.23,0,.26.09.01.04-.23.6-.26.84-.63.18-.36,1.38-.62,1.85-.63-.02-1.08-.14-1.67-.18-.07-.17,0-2.96.09-3.26.07,0,.1.06.18.09Z"/>
                  <path class="cls-19" d="M165.25,41.91c.04.15.07.28.09.44-.49.27-.34,1.28-.62,1.76,0,0-.04.03-.09.09-.37.43-.45-.18-1.06.26-.03-.08.05-.28-.04-.35l-.49.26s-.18.03-.18-.04c0-.04.18-.14.18-.18,0-.51-.26-1.81-.18-2.03.04-.11,1.76-1.06,1.98-1.28l-.4.49c.49-.12.41.25.44.26.28.16.13-.47.35.31h0Z"/>
                  <path class="cls-4" d="M165.34,42.35c.02.12.09.92.09.97-.03.62-.03.75-.71.79.28-.48.12-1.49.62-1.76h0Z"/>
                </g>
                <g>
                  <path class="cls-50" d="M162.25,50.11c.78.34,3.2,1.31,3.92,1.06.14-.05,1.23-.89,1.45-1.06.3-.23.6-.46.88-.71-.02.23-.14.21-.18.44-.01.09.35.88-.18,1.23-.29.25-.74.37-.62.53-.45.05-1.28.24-1.67.18-.3-.05-.33-.26-.35-.26-1.4-.37-2.8-.78-4.23-1.06-.47-.79-.88-1.65-1.32-2.38.51.17.08-.12.26-.44.26.44.58,1.67.88,1.98.24.25.8.33,1.15.49h0Z"/>
                  <path class="cls-24" d="M164.63,44.2c.47.34,1.07.35,1.59.53.07.02.11.06.18.09.27.11,1.05.34,1.19.44.61.43,1.13,3.22,1.02,3.97-.63-.46-1.41-1.06-2.16-.79-.23-.23.48-.03.09-.26-.78-.48-1.28-.41-2.03-1.15-.07-.07-.17.1-.18.09-.26-.34-.51-2.06-.75-2.64.61-.44.69.16,1.06-.26h0Z"/>
                  <path class="cls-4" d="M167.63,50.11c-.23.17-1.32,1.01-1.45,1.06-.72.25-3.14-.71-3.92-1.06.07-.03.25-.26.26-.26.03,0,.06,0,.09,0,.03,0,.19.29.4.35.17.05.09-.23.26-.18.12.03.25.42.53.44.51.03,2.13-1.29,2.2-1.94l2.2.79-.57.79h0Z"/>
                  <g>
                    <path class="cls-4" d="M165.25,41.91c-.23-.78-.08-.15-.35-.31-.03-.02.05-.38-.44-.26l.4-.49c-.22.22-1.94,1.17-1.98,1.28-.09.22.18,1.52.18,2.03,0,.03-.17.14-.18.18,0,.07.18.03.18.04,0,.06-.12.25-.18.31l.44-.18.66,2.25c.03-.33-.51-2.39-.62-2.47-.07-.05-.2.14-.31.09l.49-.26c.1.07,0,.27.04.35.24.58.49,2.3.75,2.64,0,0,.11-.15.18-.09.74.74,1.25.67,2.03,1.15.39.24-.32.03-.09.26.75-.27,1.52.34,2.16.79-.01.09-.08.09-.09.18-.29.25-.58.48-.88.71l.57-.79-2.2-.79c-.07.65-1.69,1.98-2.2,1.94-.28-.02-.41-.4-.53-.44-.17-.05-.09.23-.26.18-.2-.06-.37-.35-.4-.35.36-.37,1.14-1.37,1.54-1.59.15-.08.62.13.84-.22-.68-1.21-2.04,1.15-2.82,1.5l.35.31s-.19.23-.26.26c-.35-.15-.91-.24-1.15-.49-.3-.31-.62-1.55-.88-1.98.19-.32,1.81-1.94,1.76-2.07l-3.62-1.19c.59.03,1.05.15,1.67.18.03,0,.27.35.44.04-.04-.64.1-1.27.18-1.89.03-.24.28-.8.26-.84-.03-.09-.21,0-.26-.09-.27-.46-.8-.58-1.45-.66-.35-.04-.36.16-.57.09,0-.14-.04-.36.13-.44.37-.16,3.04.99,3.62,1.06.02,0-.03-.16.35-.18.02,0,.23.19.35.18.23-.02.4-.42.44-.44.02-.01.27.08.44-.09.27-.26-.16-.15-.04-.31.19-.27.65-.31.71-.66.54.3.66,1.02.62,1.59h0Z"/>
                    <path class="cls-19" d="M162.82,45.44c.43,0,1.17,1.72,1.1,2.16-.13.21-1.79,1.71-1.89,1.63.03-1.24-.55-3.22.79-3.79h0Z"/>
                    <path class="cls-47" d="M162.6,49.84s-.06,0-.09,0l-.35-.31c.78-.35,2.14-2.71,2.82-1.5-.22.35-.69.14-.84.22-.4.22-1.18,1.22-1.54,1.59Z"/>
                    <path class="cls-19" d="M160.66,42.7c-.08.63-.22,1.25-.18,1.89-.16.3-.41-.04-.44-.04.26-.47-.01-1.67.62-1.85Z"/>
                    <path class="cls-19" d="M163.04,44.38c.11.06.24-.14.31-.09.1.08.65,2.13.62,2.47l-.66-2.25-.44.18c.05-.06.17-.25.18-.31Z"/>
                  </g>
                </g>
              </g>
              <g>
                <path class="cls-19" d="M143.74,37.86c.15,0,.42-.03.53,0l-1.15,2.07c.27-.22.32.17.57-.04.2-.17.11-.51.44-.62.43-.14.75.49.31-.84l.35.22c.15.21.3.4.44.62.16.21-.08.27-.22.35-.22.13-1.41.86-1.5.88-.46.13-.8-.09-1.19-.09-.59,0-1.18,0-1.76,0l-.75-.26c.7-.22,1.45-.16,2.16-.26.19-.03.53.05.66,0,.25-.09,1.19-1.51,1.1-1.89l-.62-.13c.2,0,.42-.01.62,0h0Z"/>
                <path class="cls-24" d="M144.62,38.21c.1.11.14.4.18.44l-.35-.22c.45,1.33.12.7-.31.84-.33.11-.24.45-.44.62-.26.21-.31-.18-.57.04l1.15-2.07c.15.05.25.23.35.35Z"/>
                <path class="cls-52" d="M145.41,39.62c-.61.43-1.34,1-2.07,1.15.47-.23,1.54-1.07,1.98-1.15.03,0,.06,0,.09,0Z"/>
                <path class="cls-24" d="M142.33,37.94c-.07.34.41.36.44.49.09.41-1.37.95-.79,1.45-.71.1-1.46.04-2.16.26l.75.26c-.26,0-.67-.07-.88.09,0-.01-.19-.08-.18-.13.08-.36,1.37-1.86,1.67-2.25.33-.01.75-.16,1.15-.18h0Z"/>
                <path class="cls-39" d="M140.57,40.41c.59,0,1.18,0,1.76,0,.04.26-.23.17-.4.18-.75.02-1.5.08-2.25.09v-.18c.21-.16.62-.09.88-.09h0Z"/>
                <path class="cls-24" d="M143.12,37.86l.62.13c.09.39-.85,1.81-1.1,1.89-.13.05-.48-.03-.66,0-.58-.5.88-1.04.79-1.45-.03-.12-.51-.14-.44-.49.27-.01.58-.08.79-.09h0Z"/>
              </g>
              <g>
                <path class="cls-9" d="M168.42,39.97v.09c-.21.09-.95.1-1.06.22-.07.08-.62,1.96-.62,2.07,0,.66.63.37,1.06.71-.15,0-.35.11-.53.13l.44.31c-.45-.11-1.54-.79-1.63-.79-.03,0-.19.16-.22.18-.19.11-.3-.01-.44.44,0-.05-.07-.85-.09-.97-.02-.16-.04-.29-.09-.44.05-.57-.08-1.29-.62-1.59-.37-.21-3.94-.78-4.36-.71-.5.08-1.65.94-1.81,1.5-.09.31-.16,3.09-.09,3.26l3.62,1.19c.05.13-1.58,1.75-1.76,2.07s.25.61-.26.44c-.06-.1-.19-.21-.22-.35-.46-.02.87,2.69,1.63,3,1.02.41,3.01.56,4.14.79.02,0,.05.21.35.26-8.92,1.15-17.97,1.32-26.97,1.06.1-.01.4-.1.49-.18-.45-.07-1.18.1-1.59,0-.23-.05-.21-.26-.22-.26l5.25.26.75-.88c.36-.33.74-1.01,1.15-1.37-.72-.8-1.52-3.36-2.29-3.92-.13-.09-.16-.17-.35-.18s-3.51.95-3.7,1.06c.03-.38-.08-.26-.31-.18-.59.2-.93.42-1.63.62-.12-.21-.38-.05-.53,0l-3.88-.26c-.32-.09-.65-.16-.97-.26l.44-.49c-.3-.23-1.03-.19-1.15-.57.63.1,1.22.27,1.85.35.73.1,1.67.45,2.42.35.27-.03,4.9-2.03,5.11-2.2.14-.12.26-.28.4-.4.17-.74-1.5-1.44-2.07-1.63.26.52,1.68.79,1.37,1.54-.18.43-3.14,1.76-3.17,1.59-.02-.11.68-.24.4-.4-.6.31-1.31.75-1.98.88l1.81-.97c.37-.32.11-.16-.04-.44.62-.17,1.27-.27,1.89-.44.08-.19-.22-.16-.22-.18,0-.05,0-.12,0-.18,0-.02.27.08.18-.31-.12-.5-1.14-2.86-1.41-3.39.52.44,1.44.14,2.2.71,2.92,1.32,3.59.65,6.13-.26.68-.24,2.83-.18,1.15-1.06-.03.1-.07.11-.13.18-.02-.39-.52-.37-.79-.35-.03,0-.06,0-.09,0,.26-.4-.08-.33-.09-.35-.14-.22-.29-.41-.44-.62-.03-.04-.08-.33-.18-.44.76-.3,1.92-.19,2.78-.18,6.53.12,12.92.68,19.39,1.5.39.05,1.42.43,1.63.44h-.01Z"/>
                <g>
                  <path class="cls-52" d="M132.19,46.58c.12-.24.68-.16.97-.18.54-.02.95.02,1.5-.09.67-.13,1.38-.57,1.98-.88.29.15-.42.28-.4.4.03.18,3-1.16,3.17-1.59.31-.76-1.11-1.02-1.37-1.54.57.19,2.24.89,2.07,1.63-.14.12-.25.28-.4.4-.22.17-4.84,2.17-5.11,2.2-.75.1-1.69-.26-2.42-.35h0Z"/>
                  <path class="cls-52" d="M156.13,44.64c1.52,1.35-.1.99-.97,1.32-.51.2-1.61,1-2.03,1.06-.98.13-2.73-1.11-3.75-1.37l3.57,1.1c.47-.43,3.07-1.28,3.22-1.63.07-.16-.2-.32-.04-.49h0Z"/>
                  <path class="cls-52" d="M139.07,41.12c.1-.2.37-.03.53,0,2.71.56,2.31.83,4.89-.26.32-.14,1.28-.3,1.5-.44.27-.18.2-.42.22-.44.06-.06.1-.08.13-.18,1.69.87-.47.81-1.15,1.06-2.54.92-3.2,1.59-6.13.26h0Z"/>
                  <path class="cls-52" d="M135.89,47.82c-.15.05-.29.02-.26.26-1.53.28-2.18-.11-3.62-.53l3.88.26h0Z"/>
                  <path class="cls-40" d="M144.8,46.14c-.2-.41-.4.16,0,.09,0,.07.17.39.09.57-.39.87-2.36-.79-.31-1.19l.22.13c.1.12,0,.38,0,.4h0Z"/>
                  <path class="cls-42" d="M159.96,48.08c.45.73.86,1.59,1.32,2.38.05.08.11.16.09.26-.76-.31-2.09-3.02-1.63-3,.04.15.16.25.22.35h0Z"/>
                  <path class="cls-42" d="M148.94,46.67s-.24.05-.26.09c-.94-.4-1.47-.6-2.29-1.23l.18-.18c.68.55,1.67.82,2.38,1.32h0Z"/>
                  <path class="cls-57" d="M165.51,51.52c-1.13-.23-3.13-.38-4.14-.79.02-.11-.04-.18-.09-.26,1.43.28,2.83.68,4.23,1.06h0Z"/>
                  <path class="cls-12" d="M155.37,49.05s-.25.34.26.09c.26.16.26.03.26.04,0,.44-.41.76-.84.66-.58-.14-.47-1.41.31-.79h0Z"/>
                  <path class="cls-25" d="M157.01,43.41c.07.38-.47.44-.31,1.02.1.38,1.33.74,1.45,1.19-1.01-.42-2.78-1.15-1.15-2.2Z"/>
                  <path class="cls-52" d="M146.56,45.35l-.18.18c-.93-.73-1.66-1.23,0-1.89-1.04.68-.58,1.1.18,1.72Z"/>
                  <path class="cls-15" d="M147.84,51.69c.6.11.21.43.4.84l-.22.22c-.63-.18-.84-.75-.18-1.06Z"/>
                  <path class="cls-38" d="M148.94,46.67c.12.01,1.73.57,1.81.62.16.1.14.16,0,.26-.79-.13-1.38-.5-2.07-.79.02-.04.25-.09.26-.09h0Z"/>
                  <path class="cls-15" d="M144.58,47.38c.16.12.47-.12.57.13.26.62-1.06.61-.57-.13Z"/>
                  <path class="cls-15" d="M146.78,49.49c.06.06.47,0,.49.04.22.51-.8,1.05-.49-.04Z"/>
                  <path class="cls-57" d="M144.8,46.14s0,.06,0,.09c-.4.07-.2-.5,0-.09Z"/>
                  <path class="cls-25" d="M155.64,49.14c-.52.25-.25-.07-.26-.09.22-.18.2.05.26.09Z"/>
                  <path class="cls-14" d="M165.2,40.06c.24.09-.28.41-.22.13,0-.01.21-.14.22-.13Z"/>
                  <g>
                    <path class="cls-24" d="M150.79,39.62c.1.45,1.89,1.06,2.12.62.21.08.41.19.62.26l.62.49-2.25,1.98-3.26-1.15c1.05-.49-.04-.09-.09-.53-.24.39-.06.7-.57.18.2-.33,1.74-1.96,1.98-2.03.34-.08.57.12.84.18h0Z"/>
                    <path class="cls-4" d="M152.38,44.64c.03.47-.02.94,0,1.41-.15,0-.51-.06-.71-.09.38-.51-.27-1.38.4-1.67l.31.35h0Z"/>
                    <path class="cls-24" d="M152.91,40.24c-.23.44-2.01-.17-2.12-.62.62.12,1.52.4,2.12.62Z"/>
                    <path class="cls-24" d="M152.64,44.55c.16-1.78.48-1.37,1.5-2.47.66,1.43-.51,1.8-1.5,2.47Z"/>
                    <g>
                      <path class="cls-19" d="M155.02,44.73l-.4-1.32c-.27.5-.35,1.52-.66,1.94-.12.16-.87.57-1.06.62-.56-.05-.31-.96-.26-1.41.98-.67,2.15-1.04,1.5-2.47.33-.35.81-.73.31-1.06-.3.96-2.2,1.7-2.25,2.78,0,.11.16.62.18.84l-.31-.35c-.66.29-.02,1.16-.4,1.67-.4-.05-3.86-.93-3.97-1.1-.08-.14-.14-2.75-.09-3,.04-.19.32-.34.35-.4.51.52.34.22.57-.18.05.44,1.14.04.09.53l3.26,1.15,2.25-1.98-.62-.49c.38.15,1.19.18,1.32.66.05.19.21,3.4.18,3.57h0Z"/>
                      <path class="cls-24" d="M154.14,42.09c-1.02,1.1-1.34.68-1.5,2.47-.04.45-.29,1.36.26,1.41-.2.05-.31.08-.53.09-.02-.47.03-.95,0-1.41-.01-.22-.18-.73-.18-.84.05-1.08,1.95-1.82,2.25-2.78.5.33.02.71-.31,1.06h0Z"/>
                      <path class="cls-4" d="M155.02,44.73c-.09.5-.6.53-1.06.62.32-.42.39-1.44.66-1.94l.4,1.32h0Z"/>
                      <path class="cls-4" d="M147.84,41.82c.1-.06,1.94.66,2.16.84-.13.1-1.22-.02-1.28-.04-.09-.03,0-.23-.09-.26-.06-.03-1.3-.19-.79-.53h0Z"/>
                    </g>
                  </g>
                  <g>
                    <path class="cls-12" d="M153.66,50.2c.53-.14,1.16.32,1.02.93-.17.71-1.78.58-1.23-.09-.61.16-.01-.78.22-.84h0Z"/>
                    <path class="cls-28" d="M153.57,50.46c.35-.16.12.23-.09.35-.11-.05-.03-.29.09-.35Z"/>
                    <path class="cls-38" d="M154.1,50.73c.11-.08.12.34,0,.26-.07-.04-.08-.21,0-.26Z"/>
                  </g>
                </g>
              </g>
              <g>
                <path class="cls-24" d="M136.87,40.41c.27.53,1.29,2.9,1.41,3.39.09.39-.18.29-.18.31-1.07.33-2.18.51-3.26.79-.51-.63-.81-1.53-1.06-2.29.05.06.2.08.22.26l.13-.13c.04-.39-.62-1.25-.62-1.32,0-.23,2.47-1.41,2.69-1.81-1.09.23-2.14,1.3-3.09,1.67-.65.26-3.31.65-3.62.88-.16.12-.14.21-.13.4.01.16,1.06,2.12,1.23,2.6-.31-.57-1.51-2.52-1.41-3.04.22-.51.93-.65,1.32-.93-.17.27.02.16.18.13.94-.19,3.26-.78,4.01-1.28.11-.07.05-.35.44-.53-.45.22-1.17.04-1.54.09,1.7-.08,2.39-.91,3.26.79h0Z"/>
                <path class="cls-57" d="M136.42,44.91c-1.15.32-2.3.69-3.48.88l.18-.18,4.98-1.32s.3-.01.22.18c-.62.17-1.28.27-1.89.44h0Z"/>
                <path class="cls-19" d="M130.52,41.21c1.08-.76,1.72-1.42,3.09-1.59.38-.05,1.1.13,1.54-.09-.39.18-.34.46-.44.53-.75.49-3.07,1.09-4.01,1.28-.16.03-.34.14-.18-.13Z"/>
                <g>
                  <path class="cls-4" d="M133.78,42.62c-.06-.18.01-.55-.22-.71-.09.18.12.57.22.71.25.76.55,1.66,1.06,2.29-.86.23-1.69.5-2.56.71l-.75-3.26c-.44.92-.17,2.54.49,3.35-.56.12-.69.04-1.06.09-.24-.12-.27-.4-.35-.62-.17-.48-1.22-2.44-1.23-2.6-.01-.18-.03-.28.13-.4.31-.23,2.97-.62,3.62-.88.95-.38,2-1.45,3.09-1.67-.22.39-2.69,1.58-2.69,1.81,0,.08.66.93.62,1.32l-.13.13c-.02-.18-.17-.2-.22-.26h0Z"/>
                  <path class="cls-19" d="M132.28,45.61s-.14.06-.26.09c-.66-.82-.93-2.43-.49-3.35l.75,3.26h0Z"/>
                  <path class="cls-24" d="M133.21,41.82c.49,1.02.93,2.09,1.23,3.17-.16.06-1.24-2.89-1.23-3.17Z"/>
                  <path class="cls-24" d="M133.78,42.62c-.11-.13-.31-.52-.22-.71.23.16.16.52.22.71Z"/>
                </g>
              </g>
              <g>
                <path class="cls-4" d="M116.15,45l.18-.04c-.19-.14-.45-.45-.62-.57.47-.56.51.31.97.35.17.2.71.76.79.88.04.06.26.46.26.49.01.75-1.84,1.75-2.38,2.07-.14.01-.3-.02-.44,0-.07-.61,1.39-1.67.71-1.85-.09-.02-.67-.15-.71-.13-.09.05-.81,1.61-.71,1.81-.12.11-.1.2-.35.22l.18.13c-.92.03-1.36-.17-2.2-.44-.15-.51.09,0,.18-.31.02-.08-.48-.21.18-.31.01,0-.19.22.04.18.16-.25,1.97-2.08,1.67-2.2-.11.26-.79.69-1.02.71.46-.4.9-1.44.09-1.76-.18-.56-.88-1.16-1.41-.97.23-.27.43-.54.75-.71l.93.93-.62-.26c.2.45.96.72,1.15.88s.44.81.66.93c.43.22,1.84.27,2.38.53-.11-.19-.47-.41-.66-.53h0Z"/>
                <path class="cls-19" d="M112.97,44.2c.81.32.37,1.37-.09,1.76-.63.04-1.04-.92-2.34-.71-.61.1-2.08,1.1-.79,1.5.55-1.07,3.22-1.12,2.42.53-.66.1-.15.23-.18.31-.09.31-.33-.2-.18.31-.57-.18-2.64-.99-3-1.32v-.4l2.56-2.69c-.08.11-.6.84-.57.88.77-.04,1.33-.5,2.16-.18h0Z"/>
                <path class="cls-24" d="M116.68,44.73c-.46-.04-.5-.92-.97-.35-.54-.4-1.31-.65-1.81-1.15l-1.02-.4c.6.69,1.23,1.44,2.07,1.81.06.03.62,0,1.19.35.19.12.55.34.66.53-.54-.26-1.96-.31-2.38-.53-.23-.12-.47-.76-.66-.93s-.95-.43-1.15-.88l.62.26-.93-.93c-.32.17-.52.44-.75.71-.06.07-.12.19-.18.26l-2.56,2.69v.4c-.09-.08-.28-.14-.26-.31.37-.46.77-.91,1.15-1.37.42-.5,1.66-1.98,2.12-2.29.23-.16.34-.28.66-.26.19.01,3.25,1.27,3.44,1.41.22.16.53.71.75.97h0Z"/>
                <path class="cls-19" d="M114.91,48.17c-.26.04-.62.17-.88.18l-.18-.13c.26-.02.23-.11.35-.22.52-.48,1.17-.98,1.41-1.67.69.18-.78,1.24-.71,1.85h0Z"/>
                <path class="cls-24" d="M112.89,45.97c.23-.01.9-.45,1.02-.71.29.13-1.51,1.96-1.67,2.2-.23.04-.03-.18-.04-.18.79-1.65-1.88-1.6-2.42-.53-1.29-.4.19-1.4.79-1.5,1.3-.21,1.71.74,2.34.71h0Z"/>
                <path class="cls-19" d="M115.71,44.38c.17.13.43.43.62.57l-.18.04c-.56-.36-1.13-.32-1.19-.35-.84-.37-1.47-1.12-2.07-1.81l1.02.4c.5.49,1.27.75,1.81,1.15h0Z"/>
                <path class="cls-4" d="M112.97,44.2c-.82-.32-1.39.14-2.16.18-.03-.05.49-.77.57-.88.06-.08.11-.19.18-.26.52-.19,1.23.41,1.41.97Z"/>
                <path class="cls-4" d="M115.62,46.32c-.24.69-.89,1.19-1.41,1.67-.1-.2.62-1.76.71-1.81.03-.02.62.11.71.13Z"/>
              </g>
              <g>
                <path class="cls-8" d="M141.18,38.12c-.31.39-1.6,1.88-1.67,2.25-.01.05.18.12.18.13v.18c0,.16-.14.26-.09.44-.16-.03-.43-.2-.53,0-.77-.57-1.69-.26-2.2-.71-.87-1.71-1.56-.88-3.26-.79-1.37.17-2,.82-3.09,1.59-.39.27-1.1.42-1.32.93-.1.52,1.1,2.47,1.41,3.04.08.22.12.5.35.62-.07,0-.51.07-.53.09-.12.09-.12.24-.09.35-.07-.01-.73.15-.97.09-.64-.17-1.27-.64-.66-1.23-1.44.58-.06,1.08.57,1.41.77.4.17.22.4.44.05.05,1.15.28,1.37.35.32.1.65.17.97.26,1.44.42,2.08.81,3.62.53.31-.05.52-.19.79-.26.71-.2,1.04-.42,1.63-.62.23-.08.34-.2.31.18-.34.18-1.9,2.11-2.29,2.56-.04.05-.2-.05-.44.35-.63,1.02.04,1.2.44,2.12-.99.31-2.62-.12-3.57-.18-7.33-.45-14.92-1.41-22.17-3.44-.71-.21-1.51-.46-2.2-.71-.09-.03-.19-.06-.26-.09-.24-.1-.77-.55-1.06-.26-1.19-.44-2.51-1.04-3.62-1.67-.04-.32,0-.29.22-.44.28-.2,3.85-1.81,4.1-1.85.11-.02.24,0,.35,0,.65,0,2.09.36,1.85,1.15-.38.46-.77.91-1.15,1.37-.01.17.17.23.26.31.36.33,2.43,1.14,3,1.32.84.27,1.29.47,2.2.44.26,0,.62-.14.88-.18.14-.02.3.01.44,0-.02.01.04.21-.04.26-.92.06-.24.02.22.18-.05,0-.12,0-.18,0-.45.06-.96-.01-1.41-.04,0,.2,1.2.31,1.41.31,1.39-.03,1.89-.98,2.87-1.76.43-.35,1.07-.57,1.45-.97.86-.91-.52-1.47-1.32-1.37.26.1.67.23.88.4.6,1.02-1.31.16-1.76.44-.08-.12-.62-.69-.79-.88-.22-.26-.54-.81-.75-.97-.19-.14-3.25-1.4-3.44-1.41-.32-.02-.43.11-.66.26l-.18-.18c2.1-.63,4.21-1.28,6.35-1.76,1.71-.39,3.48-.62,5.2-.97,5.96-.97,11.97-1.32,17.98-1.59h0Z"/>
                <g>
                  <path class="cls-50" d="M136.07,52.4c.07-.02.23.04.26-.04-.12-.16-.36-.41-.44-.57.17-.33-.29-1.37.35-1.06.07.11.16.27.26.35.07.19.48.82.62.97.21.23.16.2.44.35.01,0-.01.21.22.26.41.1,1.14-.07,1.59,0-.09.08-.39.16-.49.18-1.91.24-6.8-.34-8.95-.53-6.63-.6-13.28-1.69-19.61-3.53,7.25,2.02,14.84,2.99,22.17,3.44.95.06,2.58.49,3.57.18h0Z"/>
                  <path class="cls-50" d="M110.33,48.79c-.88-.25-1.3-.35-2.2-.71.69.24,1.5.5,2.2.71Z"/>
                  <path class="cls-50" d="M107.86,47.99c-.24-.09-.71-.14-1.06-.26.28-.29.82.16,1.06.26Z"/>
                  <path class="cls-50" d="M108.13,48.08c-.07-.03-.13-.03-.26-.09.08.03.18.06.26.09Z"/>
                  <path class="cls-44" d="M136.42,47.82c-.28.08-.49.21-.79.26-.03-.25.12-.21.26-.26s.41-.21.53,0Z"/>
                  <path class="cls-24" d="M125.67,40.85c-.26.95-.51.37-.97.75-.3.25-.36.73-.4.75-.16.08-.95-.1-1.19.18-.12-.04-.26-.09-.4-.09-.15-.22,1.05-1.64,1.15-1.67.09-.03,1.66.06,1.81.09h0Z"/>
                  <path class="cls-4" d="M126.37,41.64c.1.53-.01.36-.35.71-.17.17-.63.41-.79.62-.64-.39-1.46-.24-2.12-.44.24-.28,1.03-.1,1.19-.18.04-.02.1-.5.4-.75.45-.38.71.2.97-.75.03,0,.06,0,.09,0,.02.6-1.1,1.37-.4,1.76.08-.2.63-.76.66-.84.12-.27-.58-.05-.04-.66l.4.53h0Z"/>
                  <path class="cls-52" d="M127.04,48.26c.22-.05-.03.29-.04.31-.21.27-2.03,1.51-2.34,1.54-1.05.12-3.33-.72-4.54-.66,1.22-.41,3.09.56,4.27.4.59-.08,1.99-1.33,2.64-1.59h0Z"/>
                  <path class="cls-42" d="M119.67,46.14c-.38.4-1.02.62-1.45.97-.97.78-1.47,1.73-2.87,1.76v-.26c.06,0,.12,0,.18,0,1.07-.18,1.03-.72,1.63-1.15.82-.58,1.9-1.03,2.51-1.76.15.37-.1.23,0,.44Z"/>
                  <path class="cls-42" d="M107.11,45.7c.25.13-.16.31-.13.57.08.72,3.51,1.4,3.53,1.67-.14.14-.17.23-.4.22-.16,0-2.87-1.06-3-1.15-.66-.46-.51-.81,0-1.32h0Z"/>
                  <path class="cls-24" d="M126.37,41.64l-.4-.53c-.54.61.16.4.04.66-.03.08-.58.64-.66.84-.7-.4.42-1.16.4-1.76.36.09.55.45.62.79h0Z"/>
                  <path class="cls-12" d="M133.56,50.28c.5-.05.95.93.18.97-.59.03-.58-.93-.18-.97Z"/>
                  <path class="cls-52" d="M119.67,46.14c-.1-.21.15-.08,0-.44-.12-.31-.19-.34-.44-.53-.21-.16-.62-.29-.88-.4.8-.1,2.19.46,1.32,1.37h0Z"/>
                  <path class="cls-42" d="M129.37,46.32l-.09.18c-.64-.33-2.01-.83-.57-1.41-.6.59.02,1.06.66,1.23h0Z"/>
                  <path class="cls-52" d="M121.75,42.97c.66.84,1.71.41,2.6.49-.75.25-2.42.54-2.6-.49Z"/>
                  <path class="cls-57" d="M135.89,51.78c.08.16.32.41.44.57-.03.09-.19.02-.26.04-.4-.92-1.07-1.1-.44-2.12.27.2-.15.48-.09.93.01.11.29.45.35.57h0Z"/>
                  <path class="cls-42" d="M125.05,43.23c.1.01.08-.08.09-.09.28-.18.02-.09.09-.18.17-.21.62-.45.79-.62-.22.61-.43.87-.97.88h0Z"/>
                  <path class="cls-57" d="M115.35,48.61v.26c-.21,0-1.42-.11-1.41-.31.45.03.96.1,1.41.04h0Z"/>
                  <path class="cls-57" d="M125.14,43.14s.01.1-.09.09c-.51.01-1.05-.06-1.54-.18l1.63.09h0Z"/>
                  <path class="cls-28" d="M122.72,49.05c.42-.01.93.05,1.28.31-.01.06-1.22-.13-1.28-.31Z"/>
                  <path class="cls-1" d="M127.65,40.41c.17.02.17.42,0,.44-.21.03-.21-.47,0-.44Z"/>
                  <g>
                    <path class="cls-4" d="M125.32,45.97c-.85.54-1.41,1.74-.84,2.73.1-.58,1.24-.85,1.28-.93.15-.33-.45-.98,0-1.37,1.39,1.61.27,2-1.1,2.91l1.5-1.41c-.52.09-1.39,1.21-1.85,1.23-.11,0-1.06-.26-1.54-.26.21-.29-.16-.5-.09-.66.12-.26.55,0,.71-.26-.15-.06-.2-.02-.35-.13.76-.1.79-.31,1.15-.84.1-.15.32-.85.35-.88.04-.03.24.36.44-.31.36.05.24.12.35.18h0Z"/>
                    <path class="cls-24" d="M125.76,46.4c-.45.38.15,1.04,0,1.37-.03.08-1.17.35-1.28.93-.57-.99-.02-2.19.84-2.73.2.11.3.27.44.44h0Z"/>
                    <path class="cls-19" d="M124.96,45.79c-.2.67-.4.27-.44.31-.04.03-.25.73-.35.88-.36.53-.39.73-1.15.84-.13-.09-.35-.09-.35-.31.02-.24,1.3-.84,1.1-1.28-.06-.03-1.34.15-1.41.18-.21.08-.48.84-.84.44.25-.28.19-.43.66-.62.38-.16,2.38-.49,2.78-.44h0Z"/>
                    <g>
                      <path class="cls-24" d="M123.02,47.82c.16.11.2.07.35.13-.15.26-.58,0-.71.26-.08.16.3.37.09.66-.86,0-1.7.06-2.56.04.45-.65.8-1.49,1.32-2.07.36.4.63-.36.84-.44.07-.03,1.35-.21,1.41-.18.19.43-1.08,1.04-1.1,1.28,0,.22.23.22.35.31h0Z"/>
                      <path class="cls-19" d="M121.48,47.99c1.07-.17-.4.64-.84.49.11-.08.79-.48.84-.49Z"/>
                    </g>
                  </g>
                  <g>
                    <path class="cls-54" d="M117.78,42.35c1.36-.17,1.21,1.99-.09,1.41-.63-.28-.45-1.34.09-1.41Z"/>
                    <path class="cls-1" d="M118.22,42.88c.16.01.28-.08.31.13.02.15-.46.12-.31-.13Z"/>
                    <path class="cls-1" d="M117.69,42.79s.06.08.04.13c-.05.33-.16-.13-.04-.13Z"/>
                  </g>
                </g>
              </g>
              <g>
                <path class="cls-7" d="M181.2,42.79c1.78.58,3.65,1.21,5.33,2.03.5.24,1.45.72,1.72,1.15-5.23,3.06-14.67,5.01-20.72,5.64-.12-.16.33-.28.62-.53.46-.4,1.16-.73.18-1.23.04-.23.15-.21.18-.44,0-.08.08-.09.09-.18.12-.75-.4-3.54-1.02-3.97-.14-.1-.93-.34-1.19-.44l-.13-.62-.04.53c-.51-.18-1.12-.19-1.59-.53.05-.05.08-.08.09-.09.68-.05.67-.17.71-.79.14-.46.25-.33.44-.44,1.89,1.26,3.96,1.43,5.77-.09-1.6.48-2.16,1.13-3.92.71l-.44-.31c.17-.02.37-.12.53-.13.24-.01.8.19.84.18.16-.03.62-.76.79-.88.76-.52,2.42-.66,3.35-.71l-.75-1.23c.6.4.97.14,1.45.26,2.57.65,5.19,1.3,7.71,2.12h0Z"/>
                <g>
                  <path class="cls-42" d="M167.72,43.5c1.76.42,2.32-.22,3.92-.71-1.81,1.51-3.88,1.35-5.77.09.03-.01.19-.18.22-.18.09,0,1.18.69,1.63.79h0Z"/>
                  <path class="cls-52" d="M173.05,42.97c.47-.1,1.61.35,1.54.93-.13,1.13-4.95,1.64-5.91,1.41.78.02,5.59-.67,5.29-1.76-.03-.12-.8-.43-.93-.57Z"/>
                  <path class="cls-12" d="M172.03,48.79c-.07-.22-.31-.25-.44-.04.01.05.41.11.44.13.16.1.29.04.26.31-.27.71-1.52.69-1.41-.22.69.1.22-.16.26-.4,0-.02.54.07.26-.31.41-.08,1.13.16.62.53h0Z"/>
                  <path class="cls-57" d="M171.82,41.82h.62c-.27.31-1.19.22-1.67.35-.54.15-1.03.45-1.54.66.64-.78,1.71-.75,2.6-1.02Z"/>
                  <path class="cls-57" d="M168.16,51.08c.53-.36.16-1.15.18-1.23.98.51.28.84-.18,1.23Z"/>
                  <path class="cls-15" d="M171.42,48.26c.28.38-.26.28-.26.31-.05.23.43.5-.26.4.04-.32.11-.63.53-.71h0Z"/>
                  <path class="cls-42" d="M173.67,41.29c.26.39.25.97-.26,1.15.19-.48.34-.58.26-1.15Z"/>
                  <path class="cls-52" d="M166.4,44.82c-.07-.03-.11-.06-.18-.09l.04-.53.13.62h0Z"/>
                  <path class="cls-21" d="M172.03,48.79v.09s-.43-.08-.44-.13c.13-.2.38-.18.44.04h0Z"/>
                  <g>
                    <path class="cls-24" d="M182.17,46.85c.01-.08.1-.42.04-.44l-2.51-.04c.45-.19,2.35,0,2.6-.13,1.02-.54-2.41-.15-2.56-.18-.24-.04-.53-.47-.62-.53-.18-.11,0,.29-.18.18-.16-.11-.48-.76-1.02-1.15-.04-.32-.49-.69-.79-.57l.49.66-.18-.53c.15.16.3.31.49.44,0,.05-.01.12,0,.18,0,0-.18-.03-.18.04.02.25.47.31.04.66-.1,0-.56-1.05-1.63-.26.01-.21.22-.36.35-.53.19-.25.46-.78.75-.88.13-.05,2.6-.29,2.73-.26.18.03,2.5,2.5,2.51,2.69,0,.04-.25.6-.35.66h0Z"/>
                    <path class="cls-4" d="M182.17,46.85c-.05.26-.21.57-.35.79-.87-.29-2.8.56-3.48.35-.16-.05-1.09-1.16-1.37-1.32.39.24.74.4,1.02.79.34-.03,1.07-1.26,1.02-1.5-.04-.18-.43-.6-.62-.71-.12-.19-.18-.43-.44-.53-.01-.05,0-.12,0-.18.53.39.85,1.04,1.02,1.15.18.12,0-.29.18-.18.09.05.38.49.62.53.14.02,3.57-.36,2.56.18-.25.14-2.15-.05-2.6.13l2.51.04c.05.02-.03.36-.04.44h0Z"/>
                    <path class="cls-4" d="M177.94,44.73c.26.1.32.34.44.53.15.24.26.66.62.71.05.25-.68,1.47-1.02,1.5-.28-.4-.63-.55-1.02-.79-.74-.46-1.97-.63-.79-1.5,1.07-.79,1.53.27,1.63.26.43-.36-.03-.41-.04-.66,0-.07.18-.03.18-.04h0Z"/>
                    <path class="cls-4" d="M177.94,44.55c-.18-.13-.33-.28-.49-.44l.18.53-.49-.66c.3-.12.75.25.79.57h0Z"/>
                    <path class="cls-24" d="M179,45.97c-.36-.05-.46-.46-.62-.71.19.1.58.53.62.71Z"/>
                  </g>
                  <g>
                    <path class="cls-12" d="M176.53,44.64c-.13.17-.34.32-.35.53-1.18.87.05,1.04.79,1.5.28.16,1.21,1.28,1.37,1.32.68.21,2.61-.64,3.48-.35-.03.04.18.14-.04.26-1.04-.26-2.91.75-3.79.53-.32-.08-.91-.93-1.23-1.15-.2-.14-.57-.25-.84-.44-.63-.43-1.71-.67-1.02-1.5l-.57.26c.31-.59,1.29-.33,1.54-.44.15-.07.28-.64.66-.53h0Z"/>
                    <path class="cls-25" d="M175.91,46.85c-.57-.14-2.03-.4-1.59-1.23l.57-.26c-.69.84.38,1.07,1.02,1.5Z"/>
                    <path class="cls-21" d="M177.1,47.11l1.1,1.02c-.36-.08-.97-.65-1.1-1.02Z"/>
                  </g>
                </g>
              </g>
              <g>
                <path class="cls-4" d="M143.56,51.78c-.08.07-.75.57-.84.53-.36-.8-1.76-2.54-1.63-3.31.02-.14.62-.92.4-1.02-.02,0-.22.52-.31.22l1.23-1.72c.78.56,1.57,3.13,2.29,3.92-.41.36-.78,1.04-1.15,1.37h0Z"/>
                <path class="cls-24" d="M142.06,46.32c-.12.21-1.06,1.45-1.06,1.54,0,.15.29-.16.26.09,0,.04-.45.6-.49.75-1.56.53-3.27.69-4.72,1.5,0-.09,0-.18,0-.26.39-.45,1.95-2.37,2.29-2.56.19-.1,3.51-1.06,3.7-1.06h0Z"/>
                <path class="cls-4" d="M142.42,46.49l-1.23,1.72c.09.3.29-.23.31-.22.22.09-.37.88-.4,1.02-.13.77,1.27,2.51,1.63,3.31.09.04.76-.46.84-.53l-.75.88-5.25-.26c-.28-.16-.23-.12-.44-.35.96.05,2.1.56,3,.09.78.38,1.28.01,2.07,0-.13-.27-1.2-2.17-1.32-2.2-.26-.07-.23.19-.26.18-.06-.02-.22-.26-.26-.26-.54,0-.91.27-1.45.35-.03-.08.05-.26-.13-.35-.77.13-1.5.47-2.29.44-.16.03,0,.67.04.79-.1-.08-.2-.24-.26-.35-.14-.22-.2-.27-.18-.53,1.45-.81,3.15-.97,4.72-1.5.03-.14.48-.71.49-.75.02-.25-.26.06-.26-.09,0-.09.94-1.34,1.06-1.54.19,0,.22.08.35.18h0Z"/>
                <path class="cls-4" d="M138.89,50.2c.09.21.05.28.09.44,0,.01-.16.05-.09.31.16.61.56.52.62.57.11.11.56.59.62.62-.9.47-2.03-.04-3-.09-.14-.15-.55-.78-.62-.97-.05-.13-.21-.77-.04-.79.8.03,1.52-.32,2.29-.44.19.1.1.27.13.35h0Z"/>
                <path class="cls-4" d="M140.12,52.13c-.06-.03-.5-.51-.62-.62l-.53-.88c-.03-.16,0-.23-.09-.44.55-.08.92-.36,1.45-.35.04,0,.2.25.26.26.03.01,0-.25.26-.18.12.03,1.19,1.93,1.32,2.2-.79.01-1.29.38-2.07,0h0Z"/>
                <path class="cls-19" d="M139.51,51.52c-.05-.05-.46.04-.62-.57-.07-.26.09-.29.09-.31l.53.88h0Z"/>
              </g>
            </g>
          </g>
        </g>
      </g>
      <g id="Generative_Object2" data-name="Generative Object2">
        <path class="cls-32" d="M170.71,52.05c.03.22.27,1,.13,1.15s-3.38.45-3.88.53c-.07.01-.12.17-.13.18-14.87,2.31-34.84,1.61-49.63-1.15.57-.11.47-.68.53-1.15,16.41,2.81,36.51,2.8,52.98.44h0Z"/>
        <path class="cls-32" d="M166.84,53.9s.06-.16.13-.18c.5-.08,3.75-.39,3.88-.53s-.11-.93-.13-1.15c5.68-.81,19.14-3.26,22.83-7.71.28-.34.45-.8.79-1.1-.46,4.69-11.7,7.73-15.56,8.64-3.92.93-7.95,1.48-11.94,2.03h0Z"/>
        <path class="cls-32" d="M117.73,51.61c-.06.46.04,1.03-.53,1.15-4.47-.83-19.12-3.9-20.1-9.17.17-.09.03-.28.26-.04.43.43.72,1.04,1.28,1.54,3.82,3.44,13.97,5.65,19.08,6.52h0Z"/>
        <g>
          <path class="cls-32" d="M194.34,43.23c-.35.3-.51.76-.79,1.1-3.69,4.46-17.15,6.9-22.83,7.71-16.47,2.36-36.57,2.37-52.98-.44-5.12-.88-15.27-3.08-19.08-6.52-.56-.5-.84-1.11-1.28-1.54-.23-.23-.09-.04-.26.04-.92-5,8.5-7.94,12.12-8.99,19.1-5.53,50.12-5.41,69.46-.88,4.11.96,16.18,4.01,15.65,9.52h0Z"/>
          <g>
            <path class="cls-51" d="M173.53,44.73s.22-.23.44-.13c-.1-1.28,1.04.18.88.62-.04.12-1.11.52-.84.66.65-.09,1.3.21,1.89-.09-1.02,1-2.12,2.26-2.91,3.44-.2.5.08.91.35,1.32-.38.07-.76.12-1.15.18-.54-1.56-1.71-2.65-2.82-3.79-.29-.3-.57-.64-.88-.93.97-.13,2.43-.39,2.56-1.54.02-.22-.03-.41-.18-.57.74-.09,2.04.95,2.64.84h0Z"/>
            <path class="cls-33" d="M186.93,46.93c-1.41.64-2.84,1.14-4.32,1.59-.05-.2.08-.3.18-.44.48-.73.14-.89-.53-1.41-.15-.12-.44-.24-.62-.35l.04-.35c.75-.21,3.08,1.31,3.7,1.41.43.07,1.1-.52,1.54-.44h0Z"/>
            <path class="cls-51" d="M122.49,46.67h.09c.02.14.17.06.18.13.07.91-1.95,1.54-2.64,1.85l.88-.04c-1.17.46-3.22,1.29-4.45,1.15-.75-.09-1.48-.92-1.94-.97-.24-.03-.33.27-.35.26-.34-.06-2.3-.83-2.34-1.1-.02-1.04,1.56-.89,1.94-1.54.23,1.1.21,1.95,1.28,2.47,1.68.81,3.07.22,4.67-.44.58-.24,2.64-1.15,2.69-1.76h0Z"/>
            <path class="cls-35" d="M142.95,41.56c-3.76.61-7.56,1.05-11.2,2.2-.11-.12-.62-.48-.79-.62,3.86-1.23,7.94-1.59,11.99-1.59Z"/>
            <path class="cls-45" d="M164.63,41.73c-.29.26-.75.37-.97.71-.31.49-.06,1.52.18,2.12l-.53.35c-.09-.29-.27-.7-.35-.93-.28-.76-.6-1.53-.97-2.25.47-.03.94,0,1.41,0,.29,0,.66.1.84.09.02,0,.07-.21.35-.26.07-.01.03.18.04.18h0Z"/>
            <g>
              <path class="cls-13" d="M176.62,49.31c-.19.22-.38.45-.53.71-.92.18-1.8.37-2.73.53-.27-.41-.56-.83-.35-1.32.1-.25,2.7-3.11,3.09-3.48.2-.19,1.24-1.25,1.45-1.19.19.44,1.23,1.77,1.19,2.16-.05.47-1.98,1.94-2.12,2.6h0Z"/>
              <path class="cls-13" d="M182.79,48.08c-.09.14-.23.24-.18.44-2.17.66-4.31,1.06-6.52,1.5.15-.25.34-.49.53-.71.31-.35,2.13-2.23,2.42-2.29.72-.15,2.99.75,3.75,1.06h0Z"/>
              <path class="cls-13" d="M181.65,46.32c.18.11.46.23.62.35.03.28,1.1,1.08.49,1.15-.17.02-3.03-.93-3.26-1.06-.84-.47-1.39-1.6-1.89-2.38.54-.07,3.43,1.55,4.05,1.94h0Z"/>
              <path class="cls-31" d="M182.26,46.67c.67.52,1.01.68.53,1.41-.75-.31-3.03-1.21-3.75-1.06-.29.06-2.12,1.94-2.42,2.29.14-.66,2.07-2.13,2.12-2.6.04-.39-1-1.72-1.19-2.16-.21-.06-1.26.99-1.45,1.19-.38.37-2.98,3.23-3.09,3.48.79-1.18,1.89-2.44,2.91-3.44.36-.35,1.19-1.35,1.67-1.41.51.78,1.05,1.91,1.89,2.38.24.13,3.09,1.08,3.26,1.06.62-.07-.45-.86-.49-1.15h0Z"/>
            </g>
            <g>
              <path class="cls-5" d="M186.93,46.93c-.45-.08-1.11.51-1.54.44-.62-.1-2.96-1.63-3.7-1.41l-.04.35c-.62-.39-3.52-2.01-4.05-1.94-.49.06-1.32,1.06-1.67,1.41-.59.3-1.24,0-1.89.09-.27-.14.8-.54.84-.66.16-.44-.98-1.89-.88-.62-.22-.1-.42.13-.44.13-.85-.53-1.84-.65-2.73-.97-.34-.12-.77-.59-1.32-.53-.06-.08-.15-.4-.35-.35-.1-.36-.63-1.83-.88-2.03,0,0-.06-.15-.13-.18-.08-.03-.36,0-.49,0-.93.05-2.11.86-2.91,1.06-.03,0-.06,0-.09,0,0,0,.02-.19-.04-.18-.29.05-.33.26-.35.26-.18.01-.54-.09-.84-.09-.46-.04-.28-.34-.31-.35-.21-.08-.46.12-.62.09-3.89-.81-9.68-.73-14.19-.79-.59,0-1.68-.13-2.03.18l.71.09c-.58,0-4.1-.06-4.27.31,0,.02.34.1.26.31-4.04,0-8.13.36-11.99,1.59-.49-.38-1.03-.78-1.59-1.06-.48-.34-.69-.64-1.37-.53-.16.03-2.55,1.57-2.78,1.76-.72.63-.64.76-.79,1.67-.08.46-.27,2.07-.26,2.38-.39.04-.58.59-.93.79-.34.21-.8.22-1.1.35l.18-.13-.35-.13c.11-.05.2-.08.22-.09.62-.31,1.17-.59,1.63-1.1.08-.39-1.17-.99-1.32-.79-.02.16.06.24.09.4h-.09c.01-.13-.53-2.31-.62-2.6-.1-.33-.4-1.24-.62-1.45-.14-.54-1.44-.38-1.94-.35-1.36.06-4.18.8-5.29,1.59-.03.02-.28.07-.35.18-.2.29-.24,1.43-.18,1.85,0,.12-.09.08-.18.09-.69.03-1.4.3-2.03.62-.14.07-.14.04-.35.18-.3.2-.58.32-.71.71-.29.88.45.83.88,1.37-.12.42-2.85-.71-3.22-.84-.18-.06-.34-.14-.44-.18-.04-.01-.42,0-.44,0-.09-.03,0-.23-.09-.26-.03,0-.04.2-.35.09-.12-.04-.13-.25-.18-.26-.06-.02-1.02-.06-1.28-.18-1.01-.43-2-.86-2.95-1.41-.1-.17.34-.52.44-.62,5.15-4.73,24.08-7.34,31.2-7.85,13.57-.96,41.61-.28,53.33,6.7.31.19,2.23,1.45,2.16,1.72-.75.48-1.57.82-2.38,1.19h-.01Z"/>
              <path class="cls-51" d="M112.75,45.44c.21,0,.42-.01.26.26-.6-.14-4.84,1.49-4.98,1.28-.64-.98,4.32-1.56,4.72-1.54h0Z"/>
            </g>
            <g>
              <path class="cls-13" d="M121.26,42.62c.21.21.51,1.12.62,1.45.09.29.63,2.47.62,2.6-.05.61-2.11,1.52-2.69,1.76-1.6.66-3,1.25-4.67.44-1.07-.52-1.05-1.37-1.28-2.47,0-.03,0-.06,0-.09-.09-.46-.24-1.04-.26-1.5l.18-.57c.05-.09,1.84.42,1.98.49,1.21.55,1.19,2.92,1.76,4.05l-.84-3.83c.12-.45,3.76-2.49,4.27-2.51.07,0,.27.14.31.18h0Z"/>
              <path class="cls-13" d="M119.32,42.26c.23.25,1.04-.15.93.35-2.47.81-3.17,2.74-6,1.59-.21-.08-.42-.08-.22-.35,1.11-.78,3.93-1.52,5.29-1.59Z"/>
              <path class="cls-31" d="M121.26,42.62s-.23-.18-.31-.18c-.52.02-4.15,2.06-4.27,2.51l.84,3.83c-.58-1.14-.55-3.5-1.76-4.05-.14-.07-1.93-.57-1.98-.49l-.18.57c-.02-.28,0-.53.09-.79.08-.11.32-.15.35-.18-.2.27.01.27.22.35,2.82,1.15,3.53-.78,6-1.59.11-.5-.69-.1-.93-.35.5-.02,1.8-.19,1.94.35h0Z"/>
            </g>
            <path class="cls-51" d="M121.97,48.26c-.27.12-.68.24-.97.35l-.88.04c.7-.32,2.72-.94,2.64-1.85,0-.07-.16,0-.18-.13-.02-.16-.1-.24-.09-.4.15-.2,1.4.4,1.32.79-.46.51-1.01.8-1.63,1.1-.02,0-.11.04-.22.09h0Z"/>
            <path class="cls-51" d="M113.59,44.82c.03.46.18,1.04.26,1.5-.14.15-.35-.4-.35-.44-.07-.42-.02-1.56.18-1.85-.09.26-.1.52-.09.79Z"/>
            <path class="cls-45" d="M156.08,43.32c-.47.24-1.17.55-1.5.97-.45.58-.42.78-.18,1.5.04.43.44,1.5.62,1.94-.02.14-.28.14-.35.18.12-.21.44-.23.04-.44l-4.63,1.76s0-.2-.09-.35c.76-.51,1.71-.71,2.42-1.32,2.46-2.11-1.77-3.95-3-5.38l6.65,1.15h0Z"/>
            <g>
              <path class="cls-13" d="M169.39,50.02c-.06.08-1.46,1.08-1.59,1.15-1.06.57-2.58.48-3.79.62-.35-.69-.88-1.3-1.15-2.03.43-.62,1.89-.49,2.69-.62.21-.03.91-.33,1.15-.35.83-.08,2.97-.03,2.69,1.23h0Z"/>
              <path class="cls-13" d="M171.07,44.47c-.13,1.15-1.59,1.41-2.56,1.54.31.29.59.62.88.93-.03.25.8.85.79.93-.08.53-.89-.22-1.06-.44-.19-.25-.2-1.1-.62-.88.43.75.78,2.36,1.23,3,.42.59,1.45.74,1.94,1.28-1.02.16-2.7.6-3.66.53-.05,0-.29-.04-.22-.18.13-.07,1.53-1.07,1.59-1.15.1-.14.08-.21.18-.31-.47-1.31-.97-2.63-1.5-3.92,1.08-.32,2.28-.35,3-1.32h0Z"/>
              <path class="cls-13" d="M169.39,46.93c1.11,1.14,2.28,2.23,2.82,3.79-.18.03-.35.06-.53.09-.49-.54-1.52-.69-1.94-1.28-.45-.64-.8-2.25-1.23-3,.42-.22.43.63.62.88.16.22.98.97,1.06.44.01-.08-.82-.67-.79-.93h0Z"/>
              <path class="cls-13" d="M168.07,45.79c.53,1.29,1.03,2.61,1.5,3.92-.1.1-.08.17-.18.31.28-1.27-1.86-1.31-2.69-1.23-.23.02-.93.32-1.15.35-.8.12-2.26,0-2.69.62-.36-.99-.41-1.4.49-2.12,1.21-.97,3.33-1.44,4.72-1.85h0Z"/>
            </g>
            <g>
              <path class="cls-13" d="M168.25,40.85c.25.19.78,1.67.88,2.03.36,1.28.18,1.82-1.23,2.2.06-.61-.97-2.77-.88-3.13.02-.08,1.01-1.06,1.23-1.1Z"/>
              <path class="cls-13" d="M164.72,41.73c.8-.19,1.98-1.01,2.91-1.06.41.21-.56,1.06-.75,1.15-.62.28-1.64.14-2.29.44-.32-.38.19-.24.13-.53h0Z"/>
              <path class="cls-56" d="M168.25,40.85c-.22.04-1.21,1.02-1.23,1.1-.09.36.94,2.52.88,3.13,0,0,.03.05-.18.09.01-.48-.65-2.96-1.02-3.09-.88-.13-1.85.35-2.64.44-.03,0-.03-.21-.4-.09.21-.34.68-.45.97-.71.03,0,.06,0,.09,0,.06.28-.45.14-.13.53.65-.3,1.67-.16,2.29-.44.19-.09,1.16-.94.75-1.15.12,0,.4-.03.49,0,.07.02.12.17.13.18h0Z"/>
              <path class="cls-13" d="M167.72,45.17c-.48.09-3,.19-3.39.09s-.37-.42-.49-.71c-.24-.6-.49-1.63-.18-2.12.36-.12.37.09.4.09.79-.09,1.76-.57,2.64-.44.36.12,1.03,2.61,1.02,3.09h0Z"/>
            </g>
            <g>
              <path class="cls-51" d="M169.48,43.23c.29.35.82.31,1.06.75l.26-.22c.89.32,1.89.44,2.73.97-.6.11-1.91-.93-2.64-.84.15.16.2.35.18.57-.72.97-1.91,1-3,1.32-1.39.41-3.51.88-4.72,1.85-.89.71-.84,1.13-.49,2.12.27.73.8,1.34,1.15,2.03-15.83,1.76-44.24,1.61-58.88-4.58.26.12,1.21.16,1.28.18.05.01.05.22.18.26.32.11.33-.1.35-.09.09.03,0,.23.09.26.02,0,.4-.01.44,0,.1.03.26.12.44.18.37.12,3.09,1.26,3.22.84-.43-.53-1.17-.48-.88-1.37.16,1.37,1.94,1.62,3.04,1.94,7.27,2.11,16.21,2.55,23.71,2.82,2.61.09,5.82.52,8.46.18.19-.03.32,0,.31-.26.23.12,4.68-.09,4.72-1.15.22.13-.23.97-.49,1.02.74.19,1.19-1.13.62-1.59h.53c-.09-.31-.82-.54-.88-.62-.02-.02-.1-.43-.18-.57l4.63-1.76c.4.21.07.23-.04.44-.93.46-1.96.7-2.78,1.23,1.18-.07,2.26-.53,3.39-.79,2.19-.52,4.45-.87,6.61-1.41.18-.05.17-.09.18-.09.62-.16,1.63,0,1.59-.88,0-.1-.29-.85-.35-1.06l.53-.35c.12.29.11.61.49.71s2.91,0,3.39-.09c.2-.04.17-.09.18-.09,1.42-.39,1.59-.93,1.23-2.2.21-.05.29.28.35.35h0Z"/>
              <path class="cls-35" d="M170.8,43.76l-.26.22c-.23-.44-.77-.4-1.06-.75.55-.06.99.41,1.32.53h0Z"/>
              <path class="cls-35" d="M170.32,44.11c.16,0,.21,0,.31.13.53,1.28-5.28,1.65-6,1.32,1.42-.36,3.27.2,4.54-.57.34-.21.61-.87,1.15-.88h0Z"/>
              <path class="cls-35" d="M155.29,48.35c-1.13.27-2.21.72-3.39.79.82-.54,1.85-.78,2.78-1.23.07-.03.33-.03.35-.18.06.15.29.39.26.62h0Z"/>
            </g>
            <g>
              <path class="cls-13" d="M161.9,46.93c-2.17.54-4.42.89-6.61,1.41.02-.23-.21-.47-.26-.62-.17-.45-.57-1.51-.62-1.94-.02-.19.05-.82.04-1.06.21-.25,5.59-1.3,6.08-1.15.54.17,1.14,2.79,1.37,3.35h0Z"/>
              <path class="cls-13" d="M163.66,45.97c.04.88-.97.72-1.59.88-.18-1.36-1.39-2.7-.88-4.05.79.36,1.54,3.11,2.03,3.39.28.17.3-.12.44-.22h0Z"/>
              <path class="cls-13" d="M163.31,44.91c.07.21.35.95.35,1.06-.14.1-.16.39-.44.22-.49-.29-1.24-3.04-2.03-3.39.14-.38.51-.7.71-1.06h.09c.37.72.69,1.49.97,2.25.08.23.26.63.35.93h0Z"/>
              <path class="cls-31" d="M161.9,41.73c-.2.36-.56.67-.71,1.06-.51,1.35.7,2.7.88,4.05,0,0,0,.04-.18.09-.23-.56-.83-3.18-1.37-3.35-.49-.16-5.88.9-6.08,1.15,0,.24-.06.86-.04,1.06-.25-.72-.27-.92.18-1.5.12.04.27.18.4.18.27,0,5.08-1.12,5.38-1.23.36-.14,1.06-.88,1.19-1.19.15-.37-.06-.11-.18-.31.25-.03.36,0,.53,0Z"/>
              <path class="cls-13" d="M161.37,41.73c.11.2.33-.06.18.31-.13.32-.84,1.05-1.19,1.19-.3.12-5.1,1.23-5.38,1.23-.12,0-.27-.14-.4-.18.33-.42,1.03-.73,1.5-.97s1.16-.37,1.5-.79c1.09,0,2.52-.64,3.79-.79h0Z"/>
            </g>
            <g>
              <path class="cls-6" d="M163.4,41.73c-.47,0-.95-.03-1.41,0h-.09c-.17,0-.28-.03-.53,0-1.27.15-2.7.8-3.79.79-1.47-.01-3.29-.49-4.8-.62-1.36-.12-2.82-.03-4.1-.18-.17-.02-.31-.29-.88-.26-.35.01-.35.08-.62.18-.74.27-3.85,2.49-4.14,3.17-.47,1.1,1.06,2.98,1.94,3.66-.38.43-1,.42-1.15,1.02-.27,1.14.4,1.3,1.41,1.23,0,.11.17.11-.04.26-.79-.16-1.63.04-1.85-.97-.71,1.4,1.66,1.1,2.12,1.32.11.05.22.75.31.79.01.25-.12.24-.31.26-2.64.34-5.86-.08-8.46-.18-7.5-.27-16.44-.71-23.71-2.82-1.1-.32-2.88-.57-3.04-1.94.12-.38.4-.51.71-.71.14.06.3-.16.35-.18.19-.07,1.54-.53,1.63-.53.22,0,.08.16.18.26l.22-.35c.08,0,.18.03.18-.09,0,.04.21.59.35.44,0,.03,0,.06,0,.09-.38.65-1.96.51-1.94,1.54.04.27,2,1.04,2.34,1.1.02,0,.12-.29.35-.26.46.05,1.19.88,1.94.97,1.23.14,3.28-.69,4.45-1.15.29-.12.7-.23.97-.35l.35.13-.18.13c-.85.36-1.9.8-2.78,1.06-.34.1-.83-.1-.79.26,1.48-.2,2.89-.63,4.27-1.15l1.28.79c.25-.09.62.17.79.18.39.02-.05-.21.57-.18.57.03,1.21.38,1.81.44.35.03,1.79.06,2.07,0,.3-.07.14-.14.18-.18.02-.02.17-.08.18-.09,0,.11.1.1.18.09,1.34-.26,1.47-.9,1.94-2.03.65-1.58,1.19-2.65-.09-3.97,3.64-1.16,7.44-1.59,11.2-2.2.08-.21-.27-.29-.26-.31.17-.37,3.7-.32,4.27-.31l-.71-.09c.35-.31,1.44-.19,2.03-.18,4.51.07,10.3-.02,14.19.79.16.03.41-.17.62-.09.03.01-.15.31.31.35h0Z"/>
              <g>
                <path class="cls-35" d="M124.17,47.38c0,.09.07.71.09.79-.47.16-.94.35-1.41.53-1.39.52-2.8.95-4.27,1.15-.04-.36.46-.16.79-.26.87-.26,1.93-.7,2.78-1.06.31-.13.76-.15,1.1-.35.34-.21.53-.75.93-.79h0Z"/>
                <path class="cls-51" d="M113.33,45.97l-.22.35c-.1-.11.05-.25-.18-.26-.09,0-1.44.46-1.63.53.63-.32,1.34-.58,2.03-.62h0Z"/>
                <path class="cls-51" d="M111.3,46.58s-.21.23-.35.18c.21-.14.21-.1.35-.18Z"/>
                <g>
                  <path class="cls-35" d="M142.73,49.58c.15.1.15.23.13.4-.14,1.21-4.27,1.54-5.2,1.15,0-.28,5.12.02,5.07-1.54h0Z"/>
                  <g>
                    <path class="cls-13" d="M140.48,49.67c-.22-1.42-1.23-1.92-2.2-2.73-.32-.26-.4-.25-.35-.62.38-.1.88-.02,1.19-.09.04,0,.28-.38.71-.44.45-.07,1.2.08,1.45.49.08.13-.19.14-.18.18.04.09.34.29.35.35.06.37-.17,1.44-.09,1.59.04.07,1.21.27,1.23.79,0,.09-.41.8-.57.93-.23.18-1.73.61-1.98.57-.67-.09.96-.56,1.1-.66.73-.53.17-.61.35-1.15l.84.31-.93-.57c-.34.68-.22.7-.93,1.06h0Z"/>
                    <path class="cls-13" d="M137.92,46.32c-.04.37.04.35.35.62.78.86,2.04,1.46,1.85,2.82-1.95.37-1-.61-1.76-1.45-.67-.75-1.71.24-1.85,0,.34-.78.49-1.74,1.41-1.98h0Z"/>
                    <path class="cls-13" d="M139.82,50.02h.26c.43.24-2.82.64-2.95.4.77-.14,1.94-.39,2.69-.4h0Z"/>
                    <path class="cls-56" d="M140.48,49.67c-.11.06-.23.06-.35.09.19-1.36-1.08-1.96-1.85-2.82.98.82,1.99,1.31,2.2,2.73Z"/>
                  </g>
                  <path class="cls-13" d="M139.55,50.46c.13.02.23.08.22.22-.14.19-2.1.15-2.47.09l2.25-.31h0Z"/>
                </g>
              </g>
            </g>
            <g>
              <path class="cls-13" d="M129.37,42.09c.45.31,2.76,2.13,2.82,2.51.13.85-1.56,2.89-2.16,3.57l-5.25-4.1.44-.75c.22-.2,2.61-1.74,2.78-1.76.68-.11.88.19,1.37.53h0Z"/>
              <path class="cls-13" d="M131.84,47.73c-.47,1.13-.6,1.76-1.94,2.03l.04-.79c-.17.12-.2.67-.22.71,0,0-.16.07-.18.09-.89-.47-4.99-.42-5.29-1.28-.03-.07.02-.22,0-.31-.02-.09-.09-.7-.09-.79,0-.31.19-1.92.26-2.38.37.12.03-.93.57-.62l5.02,4.49,2.38-3.7-.57,2.56h0Z"/>
              <path class="cls-31" d="M130.96,43.14c.18.14.68.5.79.62,1.28,1.32.74,2.39.09,3.97l.57-2.56-2.38,3.7-5.02-4.49c-.54-.31-.21.73-.57.62.15-.92.08-1.04.79-1.67l-.44.75,5.25,4.1c.6-.68,2.29-2.72,2.16-3.57-.06-.38-2.37-2.2-2.82-2.51.56.28,1.1.67,1.59,1.06h0Z"/>
              <path class="cls-51" d="M124.26,48.17c.02.09-.03.23,0,.31.3.86,4.4.8,5.29,1.28-.04.04.12.11-.18.18-1.04-.27-2.15-.5-3.22-.62-.03,0-.88-.11-.66.18-.63-.04-.19.2-.57.18-.17,0-.54-.26-.79-.18l-1.28-.79c.47-.18.94-.36,1.41-.53h0Z"/>
              <path class="cls-35" d="M129.37,49.93c-.28.06-1.72.03-2.07,0-.6-.06-1.24-.41-1.81-.44-.22-.29.63-.18.66-.18,1.07.12,2.18.35,3.22.62h0Z"/>
              <path class="cls-13" d="M129.9,49.76c-.08.02-.18.02-.18-.09.02-.03.05-.59.22-.71l-.04.79Z"/>
            </g>
            <g>
              <g>
                <path class="cls-13" d="M147.79,41.47l1.94,4.01c-.05.59-3.23,3.06-3.79,3.57-.78-.62-1.35-.21-1.94.44-.04-.01-.12,0-.18,0,.14-.59.77-.59,1.15-1.02-.88-.67-2.41-2.56-1.94-3.66,1.17.08,3.35.67,4.05-.57.51-.88.14-1.69.09-2.6.27-.1.27-.16.62-.18h0Z"/>
                <path class="cls-13" d="M148.68,41.73c1.28.15,2.74.06,4.1.18,1.51.13,3.33.6,4.8.62-.34.42-1.01.55-1.5.79l-6.65-1.15c1.23,1.43,5.46,3.27,3,5.38-.71.61-1.67.81-2.42,1.32-.06-.12-.44-.87-.49-.88-.97.21-1.96.47-2.87.88.55-.5,2.78-2.96,3.31-3.09.91-.22,1.89.51,2.78.57-.8-.58-2.18-.58-2.82-1.32-.11-.13-1.47-2.83-1.5-3-.06-.3.12-.23.26-.31h0Z"/>
                <path class="cls-56" d="M143.03,44.82c.29-.69,3.4-2.91,4.14-3.17.05.91.42,1.71-.09,2.6-.71,1.24-2.88.65-4.05.57h0Z"/>
                <path class="cls-56" d="M148.68,41.73c-.14.08-.32.01-.26.31.03.16,1.39,2.87,1.5,3,.64.75,2.02.75,2.82,1.32-.89-.06-1.87-.8-2.78-.57-.53.13-2.75,2.58-3.31,3.09-.01,0,.04.13-.04.18-.14.08-.14-.19-.18-.18-.23.08.03.26-.09.35-.04.03-.74.22-.75.31-.01.16.64-.21.31.13l-.49-.09c.1-.12.4-.41.53-.53.56-.51,3.74-2.98,3.79-3.57l-1.94-4.01c.58-.02.71.25.88.26h0Z"/>
              </g>
              <path class="cls-35" d="M144.01,49.49c.48.16.65.8,1.15.79-.01.2.08.27.09.44-1.01.06-1.69-.1-1.41-1.23.05,0,.13-.01.18,0h0Z"/>
              <path class="cls-51" d="M145.94,49.05c-.13.12-.43.4-.53.53-.03.04-.24.14-.26.22-.03.1,0,.34,0,.49-.49,0-.67-.64-1.15-.79.59-.64,1.16-1.06,1.94-.44h0Z"/>
              <g>
                <path class="cls-13" d="M150,48.87c.08.15.07.32.09.35.08.14.16.55.18.57.06.08.8.3.88.62h-.53c.57.45.12,1.77-.62,1.59.25-.04.7-.88.49-1.02-.03,1.05-4.49,1.26-4.72,1.15-.09-.04-.2-.74-.31-.79-.45-.22-2.82.08-2.12-1.32.22,1.01,1.06.81,1.85.97.22-.15.05-.15.04-.26-.01-.17-.1-.24-.09-.44,0-.14-.03-.38,0-.49.03-.08.23-.19.26-.22l.49.09c.34-.34-.32.02-.31-.13,0-.09.71-.27.75-.31.12-.09-.14-.27.09-.35.04-.01.04.25.18.18.08-.05.03-.17.04-.18.91-.41,1.89-.67,2.87-.88.05.01.42.76.49.88h0Z"/>
                <path class="cls-31" d="M148.9,48.61c-.59.79.16,1.26.18,2.12-.58-1.99-.99-1.38-2.69-1.28.82-.35,1.9-.07,2.51-.84Z"/>
                <path class="cls-56" d="M149.16,50.81c.09-.02.28.68.18.71-.12-.05-.27-.68-.18-.71Z"/>
              </g>
            </g>
          </g>
        </g>
      </g>
      <path class="cls-48" d="M111.03,184.81h.04c-.02.21-.03.42-.04.62,0-.2,0-.41,0-.62Z"/>
      <polygon class="cls-32" points="139.38 52.66 130.9 52.28 121.77 5.89 130 4.27 139.38 52.66"/>
    </g>
  </g>
</svg>