<?xml version="1.0" encoding="UTF-8"?>
<svg id="Layer_1" data-name="Layer 1" xmlns="http://www.w3.org/2000/svg" xmlns:xlink="http://www.w3.org/1999/xlink" viewBox="0 0 200.99 202">
  <defs>
    <style>
      .cls-1 {
        fill: #d9a79d;
      }

      .cls-2 {
        fill: #eca2a5;
      }

      .cls-3 {
        fill: #176c80;
      }

      .cls-4 {
        fill: #87bcda;
      }

      .cls-5 {
        fill: url(#linear-gradient-5);
      }

      .cls-6 {
        fill: url(#linear-gradient-6);
      }

      .cls-7 {
        fill: url(#linear-gradient-4);
      }

      .cls-8 {
        fill: url(#linear-gradient-3);
      }

      .cls-9 {
        fill: url(#linear-gradient-2);
      }

      .cls-10 {
        fill: #d2d3d1;
      }

      .cls-11 {
        fill: #ca6b59;
      }

      .cls-12 {
        fill: #6d2119;
      }

      .cls-13 {
        fill: #b4dff7;
      }

      .cls-14 {
        fill: #e9dde3;
      }

      .cls-15 {
        fill: #823c36;
      }

      .cls-16 {
        fill: #8f91c7;
      }

      .cls-17 {
        fill: url(#linear-gradient);
      }

      .cls-18 {
        fill: #b1afd7;
      }

      .cls-19 {
        fill: #b7d6e7;
      }

      .cls-20 {
        font-size: 20.87px;
      }

      .cls-20, .cls-21, .cls-22 {
        isolation: isolate;
      }

      .cls-20, .cls-22 {
        font-family: Arial-BoldMT, Arial;
        font-weight: 700;
      }

      .cls-20, .cls-23 {
        fill: #fff;
      }

      .cls-24 {
        fill: #9ca7ae;
      }

      .cls-25 {
        fill: #b69698;
      }

      .cls-26 {
        fill: #e07c32;
      }

      .cls-27 {
        fill: #68c4a8;
      }

      .cls-28 {
        fill: #d8eaf6;
      }

      .cls-29 {
        fill: #b07671;
      }

      .cls-30 {
        fill: #d24b42;
      }

      .cls-31 {
        fill: #4763ae;
      }

      .cls-22 {
        font-size: 21.52px;
      }

      .cls-22, .cls-32 {
        fill: #2392c7;
      }

      .cls-33 {
        fill: #a67b7d;
      }

      .cls-34 {
        fill: #e9a482;
      }

      .cls-35 {
        fill: #1c76a5;
      }

      .cls-36 {
        fill: #204473;
      }

      .cls-37 {
        fill: #2891c0;
      }

      .cls-38 {
        fill: #8bc4e0;
      }

      .cls-39 {
        fill: #5772b7;
      }

      .cls-40 {
        fill: #101010;
      }

      .cls-41 {
        fill: #dabdb8;
      }

      .cls-42 {
        fill: #b35d43;
      }

      .cls-43 {
        fill: #982b20;
      }

      .cls-44 {
        fill: #f2c3c4;
      }

      .cls-45 {
        fill: #a8635c;
      }

      .cls-46 {
        fill: #83d4f1;
      }

      .cls-47 {
        fill: #d7cac8;
      }

      .cls-48 {
        fill: #53b4db;
      }

      .cls-49 {
        fill: #216194;
      }

      .cls-50 {
        letter-spacing: -.07em;
      }

      .cls-51 {
        letter-spacing: -.07em;
      }

      .cls-52 {
        fill: #5fa3c7;
      }

      .cls-53 {
        fill: #3193c9;
      }

      .cls-54 {
        fill: #c95328;
      }

      .cls-55 {
        fill: #451614;
      }

      .cls-56 {
        fill: #32a5d2;
      }

      .cls-57 {
        letter-spacing: -.04em;
      }

      .cls-58 {
        fill: #ba8781;
      }

      .cls-59 {
        fill: #bb4627;
      }

      .cls-60 {
        fill: #a94837;
      }

      .cls-61 {
        fill: #6f7bbb;
      }

      .cls-62 {
        fill: #e3f4fd;
      }

      .cls-63 {
        fill: #c1aab0;
      }

      .cls-64 {
        fill: #b0b0af;
      }
    </style>
    <linearGradient id="linear-gradient" x1="166.91" y1="166.71" x2="114.59" y2="161.08" gradientTransform="translate(0 202) scale(1 -1)" gradientUnits="userSpaceOnUse">
      <stop offset="0" stop-color="#dfdcdb"/>
      <stop offset=".06" stop-color="#b2b8bf"/>
      <stop offset=".2" stop-color="#dbdddc"/>
      <stop offset=".28" stop-color="#e5e4e4"/>
      <stop offset=".34" stop-color="#e7e6e5"/>
      <stop offset=".57" stop-color="#e0dedd"/>
      <stop offset=".59" stop-color="#dddddc"/>
      <stop offset=".63" stop-color="#dbdada"/>
      <stop offset=".96" stop-color="#99a4ac"/>
      <stop offset="1" stop-color="#dddada"/>
    </linearGradient>
    <linearGradient id="linear-gradient-2" x1="142.66" y1="165.94" x2="143.42" y2="158.18" gradientTransform="translate(0 202) scale(1 -1)" gradientUnits="userSpaceOnUse">
      <stop offset="0" stop-color="#ad3e26"/>
      <stop offset="1" stop-color="#491715"/>
    </linearGradient>
    <linearGradient id="linear-gradient-3" x1="127.33" y1="164.86" x2="129.29" y2="157.62" gradientTransform="translate(0 202) scale(1 -1)" gradientUnits="userSpaceOnUse">
      <stop offset="0" stop-color="#9b3021"/>
      <stop offset="1" stop-color="#4a1815"/>
    </linearGradient>
    <linearGradient id="linear-gradient-4" x1="158.42" y1="163.86" x2="157.57" y2="158.82" gradientTransform="translate(0 202) scale(1 -1)" gradientUnits="userSpaceOnUse">
      <stop offset="0" stop-color="#912a1f"/>
      <stop offset="1" stop-color="#541713"/>
    </linearGradient>
    <linearGradient id="linear-gradient-5" x1="163.93" y1="165.38" x2="117.37" y2="160.62" gradientTransform="translate(0 202) scale(1 -1)" gradientUnits="userSpaceOnUse">
      <stop offset=".09" stop-color="#32a3cc"/>
      <stop offset=".39" stop-color="#78c9e5"/>
      <stop offset=".53" stop-color="#56b8dc"/>
      <stop offset="1" stop-color="#1b89b5"/>
    </linearGradient>
    <linearGradient id="linear-gradient-6" x1="140.29" y1="164.53" x2="127.79" y2="158.08" gradientTransform="translate(0 202) scale(1 -1)" gradientUnits="userSpaceOnUse">
      <stop offset="0" stop-color="#44b2d9"/>
      <stop offset="1" stop-color="#2f97c4"/>
    </linearGradient>
  </defs>
  <rect class="cls-40" width="200.99" height="202"/>
  <g>
    <polygon class="cls-32" points="122.22 98.33 120.05 97.41 115 44.23 138.18 47.31 160.01 45.29 167.78 42.36 162.58 98.9 122.22 98.33"/>
    <polygon class="cls-32" points="116.72 120.98 122.13 115.11 118.65 91.56 22.1 92.69 29.72 103.22 34.54 117.23 43.28 123.49 106.22 123.47 116.72 120.98"/>
    <path class="cls-23" d="M119.5,115.11c.05,0,.1-.01.15-.02-.05.12-.1.23-.15.35-1.56,3.32-6.79,6.92-10.63,7.29-.88.08-1.77.01-2.65.01-15.76.18-31.02.41-46.29.56-2.14.02-5.27.16-7.41,0-3.35-.37-6.47-.05-9.25-.54-8.65-1.51-10.87-10.38-12.88-16.2-.01-.03-.02-.07-.03-.1,0-.08.02-.15.03-.23.21-1.34.63-2.84,1.56-4.5,2.1-3.73,6.49-6.45,11.34-6.2.71.04,5.68.19,7.42,2.41.44.55,1.64,2.08,1.25,4-.23,1.13-.9,1.88-1.25,2.23.12-.44.16-.88.11-1.31-.05-.43-.19-.85-.4-1.22-.18-.35-.44-.74-.82-1.08-1.41-1.3-3.32-1.01-3.86-.93-2.19.33-3.43,1.94-3.72,2.32.39-.31,1.02-.75,1.89-1.04.51-.17,1.25-.43,2.18-.32.04,0,.07,0,.11.02-1.16.61-1.56,1.79-1.76,2.36-.55,1.61-.11,3.09.18,3.82.04.09.07.16.1.23.18.39.39.74.63,1.05,0,0,.02.02.03.03,1.32,1.71,3.71,1.96,5.38.79.31-.22.6-.49.85-.81,0,0,.02-.02.03-.03.36-.46.67-.88.94-1.26,1.53-2.12,1.89-3.02,2.93-3.77.23-.17,1.7-1.21,3.62-.98.31.04,2.01.28,3.09,1.72.3.4.99,1.31.77,2.44-.04.22-.11.41-.2.59h-.5c-.02-.2-.07-.39-.15-.58-.1-.32-.31-.76-.72-1.14-.95-.87-2.24-.68-2.6-.62-1.47.22-2.31,1.3-2.5,1.56.26-.21.69-.5,1.27-.7.34-.12.84-.29,1.47-.22.25.03.47.09.67.18-.07.02-.14.05-.2.08-.73.35-.99,1.06-1.12,1.44,0,.01,0,.03-.01.04-.4,1.17.05,2.21.17,2.47.16.33.36.6.57.83.55.59,1.19.88,1.53,1.04.35.16.63.36.95.43.41.2.88.22,1.34.28,1.31.16,4.61-.23,8.11-.74.23-1.11.66-2.32,1.46-3.64,2.1-3.47,6.49-6.01,11.34-5.76.71.04,5.68.17,7.43,2.24.44.51,1.64,1.94,1.25,3.72-.23,1.05-.9,1.75-1.25,2.08.12-.41.16-.82.11-1.22-.05-.4-.19-.79-.41-1.14-.18-.33-.44-.69-.81-1.01-1.41-1.21-3.32-.94-3.86-.87-2.19.31-3.43,1.8-3.72,2.16.39-.29,1.02-.7,1.89-.97.51-.16,1.25-.4,2.18-.3.04,0,.07,0,.11.01-1.16.57-1.56,1.66-1.76,2.2-.55,1.5-.11,2.88.18,3.55.04.08.07.15.1.21.18.36.39.69.63.98,0,0,.02.02.03.03,1.32,1.59,3.71,1.83,5.38.74.31-.21.6-.46.85-.76,0-.01.02-.02.02-.03.36-.43.67-.82.94-1.17,1.53-1.97,1.9-2.81,2.93-3.51.23-.16,1.7-1.13,3.62-.91.31.04,2.01.26,3.1,1.6.3.37.99,1.22.76,2.27-.04.2-.12.39-.2.55h-.5c-.02-.19-.07-.37-.15-.54-.1-.3-.31-.71-.72-1.06-.95-.82-2.24-.63-2.6-.58-1.47.21-2.31,1.21-2.5,1.45.26-.2.69-.47,1.27-.65.34-.11.84-.27,1.46-.2.25.03.47.09.67.16-.07.02-.14.05-.21.08-.73.33-.99.99-1.12,1.34,0,.01,0,.02-.01.03-.4,1.09.05,2.06.17,2.3.16.3.36.56.57.78.55.55,1.19.82,1.53.97.35.15.63.34.95.4.41.19.88.21,1.34.26,2.36.26,11.15-1.12,15.99-1.81h0Z"/>
    <path class="cls-23" d="M164.1,86.62l-4.08,32.98s-5.93,5.57-19.18,5.57c-11.51,0-18.59-6.01-18.59-6.01l-2.58-25.52h.06c-.02-.13-.04-.25-.06-.38.12-.11-.76-6.32-.75-6.48.13-2.19,0-5.06,1.96-8.57,2.27-4.03,7.01-6.97,12.25-6.69.77.04,6.13.2,8.02,2.6.47.6,1.77,2.24,1.35,4.31-.24,1.22-.97,2.03-1.35,2.41.13-.47.17-.95.11-1.42-.05-.47-.2-.92-.44-1.32-.19-.38-.47-.8-.88-1.17-1.53-1.41-3.59-1.09-4.17-1-2.37.36-3.71,2.09-4.01,2.51.42-.34,1.1-.81,2.04-1.13.55-.19,1.35-.46,2.35-.34.04,0,.08,0,.12.02-1.25.66-1.68,1.93-1.9,2.55-.6,1.74-.12,3.34.2,4.12.04.09.07.17.1.24.19.42.42.8.68,1.13,0,.01.02.02.03.04,1.42,1.84,4.01,2.12,5.81.86.34-.24.65-.53.92-.88,0-.01.02-.02.03-.04.39-.5.72-.95,1.02-1.36,1.65-2.29,2.04-3.26,3.16-4.07.25-.18,1.84-1.31,3.91-1.05.33.04,2.16.3,3.34,1.86.32.43,1.07,1.41.83,2.63-.05.24-.12.45-.22.63h-.54c-.02-.22-.08-.43-.16-.62-.11-.34-.33-.82-.77-1.23-1.03-.95-2.41-.74-2.81-.67-1.59.24-2.49,1.41-2.7,1.69.28-.23.74-.54,1.37-.76.37-.13.91-.31,1.58-.23.27.03.51.1.73.19-.08.03-.15.06-.22.09-.79.38-1.07,1.15-1.21,1.55,0,.01,0,.03-.01.04-.43,1.26.05,2.39.18,2.67.17.36.39.65.62.9.59.64,1.29.96,1.65,1.12.38.17.68.39,1.02.47.44.22.95.24,1.44.3,3.29.39,7.52-2.42,9.76-2.52h0Z"/>
    <path class="cls-36" d="M165.23,33.65c-7.68-3.9-39.53-5.3-49.47.5-3.64,2.12-4.35,3.97-2.62,7.87,2.05,10.52,2.23,21.39,3.64,32.27-24.54-.03-49.04.1-73.58-.19-5.81-.07-9.49,2.13-12.01,7.07-.51,1.01-1.33,2.41-2.2,2.58-3.37.64-4.99,3.27-6.97,5.5-2.53,2.84-1.61,6.63,1.72,8.41,3.63,2.57,5.12,8.47,7.4,14.07,2.69,6.63,6.49,12.85,16.23,12.68,19.26-.13,38.52-.26,57.78.06,6.43.11,11.5-1.62,15.51-6.58.06-.07.32.02.66.04-.14,1.37.25,2.38.93,3.18.74.87,1.83,1.48,2.95,1.98,11.27,5.12,22.44,4.87,33.33-1.09,1.04-.57,1.96-2.17,2.13-3.41.74-5.35,1.19-10.73,1.78-16.37,2.29-20.44,4.01-40.35,6.51-60.6.64-4.42.2-5.99-3.71-7.98h0ZM42.71,76.62c23.66.14,47.32.29,70.98.45,1.06,0,2.13.12,3.38.2.34,3.17.75,6.17.94,9.19.12,1.86-3.98,4.33-7.06,4.33-11.69.01-23.37,0-35.06,0-10.01,0-19.44-.11-28.87.06-3.55.07-6.74-.51-9.7-2.51-1.69-1.14-3.57-2.01-5.33-2.99,1.52-6.07,4.81-8.75,10.71-8.71h0ZM31.11,87.67c1.3.66,2.58,1.34,3.86,2.03.32.17.61.41,1.62,1.09h-11.55c.78-3.84,2.79-4.78,6.07-3.12h0ZM109.54,121.94c-.88.08-1.77.01-2.65.01-15.76.18-31.02.41-46.29.56-2.14.02-5.27.16-7.41,0-3.35-.37-6.47-.05-9.25-.54-8.65-1.51-10.87-10.38-12.88-16.2-.44-1.27-.87-2.4-1.36-3.28l-6.34-8.63c28.43-1.16,63.38,0,95.46,0,.62,6.21,1.53,12.51,1.79,18.83.02.62-.14,1.27-.46,1.94-1.56,3.32-6.79,6.92-10.63,7.29h0ZM163.4,81.33c-.15.7-.22.89-.28,1.07-.21.07-.25.08-.26.09-.4,4.84-.7,9.71-1.18,14.57-.68,6.9-1.43,13.81-2.33,20.69-.14,1.05-1,2.34-1.91,2.9-5.34,3.3-11.38,4.25-17.48,3.95-4.05-.2-8.12-1.15-12.04-2.23-2.53-.7-4.42-2.01-5.25-4.49-.23-.67-.37-1.42-.44-2.26-.03-.41-.07-.82-.1-1.23-.97-12.16-2.33-24.29-3.54-36.43-.16-1.77-.34-3.04-.51-4.31,0-1.24-.06-1.99-.12-2.75-.41-4.01-.95-7.56-1.36-11.13-.59-5.15-1.07-10.32-1.61-15.53,17.47,5.65,34.69,5.77,52.27-.27-1.28,12.36-2.57,24.86-3.86,37.37h0Z"/>
    <path class="cls-32" d="M75.61,90.78c-9.72,0-19.15-.11-28.57.06-3.55.07-6.74-.51-9.7-2.51-1.69-1.14-3.57-2.01-5.33-2.99,1.52-6.07,4.81-8.75,10.71-8.71,23.66.14,47.32.29,70.98.45,1.07,0,2.13.12,3.38.2.34,3.17.75,6.17.95,9.19.12,1.86-3.98,4.33-7.06,4.33-11.69.01-23.37,0-35.35,0h0Z"/>
    <path class="cls-32" d="M24.8,90.75c1.03-3.8,3.03-4.74,6.31-3.08,1.3.66,2.58,1.34,3.86,2.03.32.17.61.41,1.62,1.09-4.33,0-7.94,0-11.79-.04h0Z"/>
    <path class="cls-53" d="M162.97,82.45c-.08-.13-.01-.31.19-.55.08.13.01.32-.19.55Z"/>
    <ellipse class="cls-46" cx="140.82" cy="38.48" rx="27.43" ry="6.91"/>
    <g id="Generative_Object" data-name="Generative Object">
      <path class="cls-10" d="M135.85,35.45c-.27.01-.53.04-.8.05-.75.04-1.49.09-2.24.15l-3.2.25c-.2-.48-.52-.86-.77-1.32-.18-.33-.28-1.02-.65-1.34-.31-.28-.27,0-.42.02-.65.11-1.41.11-1.94.2-.26.05-.56.07-.74.1-.24.04-.99.39-1.39.45-.17.02-.76-.12-1.04-.05-.05.01-.48.37-.55.4-.25.08-1.01.02-1.29.1-.2.05-.32.3-.35.3-.02,0-.19-.22-.4-.1-.1.06.08.26.07.27-.02.15-1.41.3-1.56.37-.08.04-.16.29-.25.35-.12.07-.56.38-.6.4-.59.28-1.38.16-1.74.99l-1.07.84c-.03-.19-.14-.14-.15-.17-.04-.23.15-.65.25-.3.07-.33.3-.54.5-.8.03-.04.03-.28.07-.32.02-.02.4-.16.45-.2.2-.17.1-.31.25-.45.36-.35,1.31-.63,1.69-.8.28-.12.55-.26.84-.35l-.12-.15c1.97-.69,4.2-1.22,6.26-1.59.02.55.77.07.92.05.79-.11,1.62-.19,2.34-.15.08,0,.14.15.15.15.15,0,.67-.2.8-.2.17,0,.3.18.65.15.26-.02,1.23-.61,1.32-.42.14.31-.15.25-.32.32.3-.07.78.07,1.04.05.05,0,.08-.15.1-.15.64-.03,1.3.1,1.89-.15.17.1-.07.2-.07.37l2.04,1.99c.12.25.22.4.05.67h0Z"/>
      <path class="cls-27" d="M137.24,31.58c.22.61,1.08.88,1.56,1.29.28.23,1.21,1.18,1.37,1.47.14.24.22.86.25.89.07.08.36-.07.35.12-1.64,0-3.28.02-4.92.1.17-.27.07-.42-.05-.67l-2.04-1.99c0-.17.24-.27.07-.37-.59.25-1.25.12-1.89.15-.02,0-.05.15-.1.15-.27.02-.74-.11-1.04-.05.17-.08.46-.01.32-.32-.08-.19-1.06.4-1.32.42-.35.03-.48-.15-.65-.15-.12,0-.65.2-.8.2,0,0-.07-.15-.15-.15-.72-.04-1.55.04-2.34.15-.15.02-.9.5-.92-.05,3.92-.7,8.28-1.08,12.27-1.19h0Z"/>
      <path class="cls-10" d="M143.55,45.29c.24-.21.94-.08,1.12-.2.12-.08.12-.48.15-.5.08-.06,1.76-.13,2.04-.15,4.2-.28,8.56-.8,12.52-1.74,1.67-.39,3.71-.98,5.27-1.74,1.2-.59,2.9-1.78,2.76-3.3,0,0-.15-.14-.15-.15-.08-.39-.02-.41.3-.62,1.18,1.33.78,2.45-.47,3.53-4.23,3.64-17.95,4.84-23.53,4.87h0Z"/>
      <path class="cls-64" d="M132.82,35.65c-1,.08-1.99.17-2.98.3-3.17.39-6.37,1-9.39,2.04-1.38.48-2.87,1.04-4.02,1.94-1.02-.67-1.3-.82-1.49-2.04l1.07-.84c.36-.83,1.15-.72,1.74-.99.03-.02.48-.32.6-.4.09-.05.17-.31.25-.35.15-.07,1.54-.22,1.56-.37,0-.01-.18-.22-.07-.27.21-.12.37.1.4.1.02,0,.15-.24.35-.3.28-.07,1.04-.02,1.29-.1.07-.02.5-.39.55-.4.29-.07.88.07,1.04.05.4-.06,1.15-.4,1.39-.45.19-.03.49-.05.74-.1.53-.09,1.28-.09,1.94-.2.15-.02.11-.3.42-.02.37.32.47,1.01.65,1.34.25.46.57.84.77,1.32l3.2-.25h0Z"/>
      <g>
        <path class="cls-27" d="M167.55,36.89c-.31.21-.38.23-.3.62,0,0,.15.14.15.15.14,1.53-1.55,2.72-2.76,3.3-1.56.76-3.6,1.34-5.27,1.74-3.96.94-8.32,1.46-12.52,1.74-.27.02-1.95.09-2.04.15-.03.02-.03.42-.15.5-.17.12-.88-.01-1.12.2h-.1c-.63,0-1.25.02-1.86-.1-7.83-.09-16.9-.49-24.42-3.33-.01,0-.04,0-.05,0-.21-.34-.71-.38-1.02-.55-.39-.21-1.12-.64-1.47-.89-.02-.03.04-.14-.15-.1-.07-.05-.1-.1-.15-.15l-.15-.15c-.06-.08-.05-.07-.1-.15-.04-.07-.04-.17-.15-.15-2.04-2.77,2.77-4.67,4.77-5.37l.12.15c-.29.09-.57.23-.84.35-.38.16-1.33.44-1.69.8-.15.14-.05.28-.25.45-.05.04-.43.18-.45.2-.04.05-.05.29-.07.32-.19.25-.42.47-.5.8-.1-.35-.29.07-.25.3,0,.03.12-.01.15.17.19,1.22.47,1.37,1.49,2.04.26.17.48.26.74.4.14.07.25.13.4.2.87.42,1.52.65,2.44.94,3.11,1.01,6.42,1.62,9.66,2.04.07,0,.5.07.52-.05,1,.38,4.58.49,5.84.55,2.92.12,5.9.1,8.82,0,2.97-.1,5.95-.32,8.89-.74,3.46-.5,6.93-1.24,10.16-2.58.07-.09-.65-.32-.74-.35-.5-.17-1.14-.37-1.69-.55-.26-.08-1.01-.12-1.12-.2s.06-.14-.07-.2c-.06-.03-.22.05-.35,0s-1.03-.49-1.04-.55l.12-.15c.16.09.47.37.7.22-.33-.11-.55-.4-.82-.57-.22-.14-.61.02-.22-.42l-.07-.12c-.16,0-.53-.02-.62-.2,1.45.36,3.07.8,4.4,1.39.3.14,2.07,1.07,2.06,1.32-.14.16-.33.13-.52.12.29.35.98-.36,1.32-.52-2.24-1.47-5.02-2.35-7.63-2.96-5.47-1.28-11.21-1.59-16.82-1.59,0-.2-.27-.04-.35-.12-.03-.03-.11-.65-.25-.89-.16-.28-1.09-1.23-1.37-1.47-.49-.41-1.34-.68-1.56-1.29,4.99-.14,10.28,0,15.23.6,3.77.45,12.55,1.86,15.08,4.72h0Z"/>
        <g>
          <path class="cls-10" d="M143.45,45.29c-5.14.12-10.33-.06-15.43-.74-3.65-.49-7.46-1.26-10.86-2.68,7.52,2.84,16.59,3.24,24.42,3.33.61.12,1.23.1,1.86.1Z"/>
          <path class="cls-10" d="M117.12,41.86c-.66-.25-2.05-.91-2.48-1.44.35.25,1.08.69,1.47.89.31.16.81.21,1.02.55Z"/>
          <path class="cls-10" d="M114.08,39.88c-.12.03-.1-.08-.15-.15.11-.02.11.08.15.15Z"/>
          <path class="cls-10" d="M114.33,40.17c-.06-.06-.09-.08-.15-.15l.15.15Z"/>
          <path class="cls-10" d="M114.63,40.42s-.1-.06-.15-.1c.19-.04.13.07.15.1Z"/>
          <path class="cls-18" d="M159.82,38.98s.2.05.17.12c-.01.03-.3-.05-.17-.12Z"/>
        </g>
      </g>
      <g>
        <path class="cls-61" d="M140.27,36.05c-.02.2.04.14.17.15.5.05,1.08-.02,1.59,0,.09,0,.24-.05.22.1-3.59-.09-7.51.1-10.96.7-1.57.27-6.27,1.48-7.13,2.71-.44.62-.36,1.04.17,1.56.65.63,3.07,1.38,3.93,1.49.33.04,1.54-.11,1.66.22.03.08-.03.4,0,.45.04.06.19,0,.25.02-.02.12-.45.06-.52.05-3.25-.41-6.56-1.03-9.66-2.04.1-.05.13-.39.15-.42.79-1.29,4.72-2.91,6.21-3.3.27-.07.74-.34.77.05,1.84-.59,3.73-.93,5.64-1.19,2.47-.34,5-.53,7.5-.55h0Z"/>
        <path class="cls-61" d="M160.34,39.58c.1.07.86.12,1.12.2.55.18,1.19.38,1.69.55.09.03.82.26.74.35-3.23,1.35-6.7,2.09-10.16,2.58l.22-.35c.71-.34,1.46-.59,2.16-.94,1.19-.6,2.47-1.34.92-2.58-2.79-2.23-11.2-2.99-14.78-3.08.02-.15-.13-.1-.22-.1-.51-.02-1.09.05-1.59,0-.14-.01-.2.05-.17-.15,5.46-.03,13.52.65,18.21,3.53.2.12.55.52.7.6,0,0,.08-.14.2-.1.02,0,.23.25.25.25.14.02.6-.63.72-.74Z"/>
        <path class="cls-16" d="M157.36,37.49c-.31.39.55.39.82.55.1.06.13.28.15.3.06.05.31.02.35.05.09.06.12.19.32.3l-.12.15c.01.06.91.49,1.04.55s.29-.03.35,0c.14.06-.03.12.07.2-.12.11-.59.76-.72.74-.02,0-.23-.24-.25-.25-.11-.04-.19.1-.2.1-.14-.07-.5-.47-.7-.6-4.69-2.88-12.75-3.56-18.21-3.53-2.5.01-5.03.21-7.5.55.13-.18.1-.32.1-.55.26-.02.53-.03.8-.05.69-.06,1.39-.11,2.09-.15,7.24-.4,14.57-.02,21.61,1.64h0Z"/>
        <path class="cls-61" d="M140.77,35.35c5.61,0,11.35.31,16.82,1.59,2.61.61,5.39,1.49,7.63,2.96-.34.17-1.03.87-1.32.52.19,0,.39.03.52-.12,0-.24-1.76-1.18-2.06-1.32-1.32-.59-2.94-1.03-4.4-1.39-.2-.05-.39-.05-.6-.1-7.05-1.66-14.38-2.04-21.61-1.64l.12-.25-.82-.1c.26-.01.53-.04.8-.05,1.64-.07,3.28-.1,4.92-.1h0Z"/>
        <path class="cls-31" d="M128.79,36.55c0,.12.06.17-.07.25-.28.18-2.48.48-3.03.65-.02,0-.08.07-.12.07.35.18.79-.46.8.22-1.49.4-5.42,2.01-6.21,3.3-.02.04-.05.37-.15.42-.92-.3-1.56-.52-2.44-.94.12-.05-.12-.03-.02-.15.27-.34,2.06-1.27,2.53-1.49.35-.16,1-.27,1.17-.6,1.3-.45,2.43-.74,3.78-1.04.89-.2,1.78-.4,2.68-.55.36-.06.73-.1,1.09-.15h0Z"/>
        <path class="cls-3" d="M125.31,36.84c.08.38-.21.13-.3.4-1.35.3-2.47.6-3.78,1.04-1.43.49-2.94,1.02-4.07,2.04-.27-.14-.48-.23-.74-.4,1.15-.9,2.64-1.46,4.02-1.94.04.14.18.07.27.05,1.59-.42,2.95-.87,4.6-1.19h0Z"/>
        <path class="cls-16" d="M156.12,41.96c-.7.35-1.45.6-2.16.94l-.22.35c-2.94.42-5.92.65-8.89.74.12-.21.53-.06.72-.1.03,0,.17-.19.2-.2.38-.06.97.04,1.34,0s.8-.22,1.09-.25c.51-.06,1.24,0,1.89-.1.03,0,.12-.15.15-.15.02,0,.19.14.45.1.21-.03.77-.31,1.04-.35.09-.01.17.15.2.15.3-.04.6-.15.89-.2,1.04,0,2.05-.73,3.03-1.09l.27.15h0Z"/>
        <path class="cls-49" d="M121.24,38.28c-.17.33-.82.44-1.17.6-.48.22-2.27,1.15-2.53,1.49-.09.12.15.1.02.15-.14-.07-.26-.12-.4-.2,1.13-1.02,2.64-1.54,4.07-2.04h0Z"/>
        <path class="cls-18" d="M157.96,37.59c.09.17.46.2.62.2l.07.12c-.39.44,0,.28.22.42.27.17.49.46.82.57-.22.15-.53-.14-.7-.22-.2-.11-.23-.24-.32-.3-.04-.03-.29,0-.35-.05-.02-.01-.05-.24-.15-.3-.27-.16-1.13-.15-.82-.55.2.05.4.05.6.1h0Z"/>
        <path class="cls-39" d="M135.05,35.5l.82.1-.12.25c-.7.04-1.39.09-2.09.15l.17-.3-4,.25c.99-.12,1.98-.22,2.98-.3.75-.06,1.49-.11,2.24-.15h0Z"/>
        <path class="cls-31" d="M133.66,36c-.26.02-.53.03-.8.05-1.36.12-2.72.3-4.07.5-.36.05-.73.09-1.09.15l-.12-.3c-.76.13-1.51.3-2.26.45-1.65.32-3.01.77-4.6,1.19-.1.03-.23.09-.27-.05,3.02-1.04,6.22-1.64,9.39-2.04l4-.25-.17.3h0Z"/>
        <path class="cls-61" d="M132.87,36.05c0,.22.03.36-.1.55-1.91.26-3.8.6-5.64,1.19-.03-.39-.5-.12-.77-.05,0-.69-.44-.04-.8-.22.04,0,.1-.07.12-.07.55-.17,2.75-.47,3.03-.65.13-.08.06-.13.07-.25,1.35-.2,2.71-.38,4.07-.5h0Z"/>
        <path class="cls-49" d="M127.7,36.7c-.91.15-1.79.35-2.68.55.08-.27.38-.01.3-.4.75-.15,1.5-.32,2.26-.45l.12.3h0Z"/>
        <g>
          <path class="cls-16" d="M142.26,36.3c3.58.09,11.99.85,14.78,3.08,1.56,1.24.28,1.98-.92,2.58l-.27-.15c-.98.37-1.99,1.1-3.03,1.09-.3.05-.6.16-.89.2-.02,0-.11-.16-.2-.15-.27.04-.84.32-1.04.35-.26.04-.42-.1-.45-.1-.03,0-.12.15-.15.15-.64.09-1.38.04-1.89.1-.29.03-.72.21-1.09.25s-.96-.06-1.34,0c-.03,0-.16.19-.2.2-.19.04-.6-.11-.72.1-2.92.1-5.9.12-8.82,0-1.26-.05-4.84-.16-5.84-.55-.06-.02-.21.03-.25-.02-.03-.04.03-.37,0-.45-.12-.33-1.33-.18-1.66-.22-.85-.11-3.28-.86-3.93-1.49-.53-.52-.61-.94-.17-1.56.86-1.23,5.56-2.44,7.13-2.71,3.44-.6,7.36-.79,10.96-.7h0Z"/>
          <path class="cls-18" d="M126.7,39.92c.03-.06.31-.3.37-.4-.03.18.45.27.47.37,0,.02-.12.08-.1.15.25.74.95,1.08,1.56,1.27,1.23.59,2.75,1.01,4.1,1.04,4.27.7,15.93.97,19.65-1.04,1.04-.56,1.43-1.29.4-2.14-.48-.39-1.08-.56-1.62-.8-.25-.11-.6-.17-.74-.35s-.08-.11-.05-.35c.86.22,1.89.42,2.71.74.01,0,.07.14.2.2.11.05.19-.05.2-.05.05.02,0,.13.05.15.11.05.26.03.3.05.05.02-.07.09.05.15.08.04.15-.07.2-.05.12.06.27.28.4.35.56.31.81.07.62,1.12-.04.2-.6.92-.77,1.02-.21.12-.57.12-.74.2-.11.05-.24.28-.3.3-3.71,1.42-11.37,1.58-15.4,1.44-2.78-.09-8.49-.58-10.78-1.99-.48-.29-1.05-.82-.77-1.39h0Z"/>
          <path class="cls-16" d="M150.75,37.69c-.03.24-.09.17.05.35-.59.13-1.15-.22-1.71-.35-5.58-1.28-13.49-1.25-18.91.65-.04.01-.06-.07-.12-.05-.68.25-2.19.99-2.06,1.86.19,1.26,4.05,2.04,5.12,2.21-1.35-.04-2.87-.45-4.1-1.04-.62-.18-1.32-.52-1.56-1.27-.02-.07.1-.13.1-.15-.02-.1-.51-.2-.47-.37-.06.1-.34.34-.37.4-.53.19.22-.78.27-.8.25-.08.28.1.3.1.05,0,0-.12.05-.15,1.79-1.01,3.76-1.66,5.81-1.99,5.51-.89,12.21-.78,17.61.6h0Z"/>
          <path class="cls-16" d="M130.18,38.34c-1.4.7-2.52,1.72-.57,2.73,3.99,2.08,16.23,1.8,20.67.74,1.09-.26,4.12-1.1,2.44-2.63-.35-.31-.94-.43-1.17-.8.54.23,1.13.4,1.62.8,1.04.85.65,1.57-.4,2.14-3.72,2.01-15.38,1.74-19.65,1.04-1.06-.17-4.93-.96-5.12-2.21-.13-.88,1.38-1.62,2.06-1.86.06-.02.09.06.12.05h0Z"/>
          <g>
            <path class="cls-61" d="M150.8,38.04c.14.18.49.24.74.35.23.36.82.48,1.17.8,1.69,1.53-1.35,2.38-2.44,2.63-4.44,1.05-16.68,1.33-20.67-.74-1.95-1.01-.82-2.03.57-2.73,5.42-1.9,13.33-1.93,18.91-.65.56.13,1.13.48,1.71.35Z"/>
            <path class="cls-16" d="M132.17,38.53c.06.21-.39.39-.52.5l-.05-.1c-1.99,1.42,1.22,2.29,2.31,2.53-2.04-.05-5.42-1.49-1.74-2.93Z"/>
            <path class="cls-16" d="M149.86,40.82c.92-.49,1.42-1.06.4-1.84.71.41,1.41.98.42,1.64-.1.06-.74.4-.82.2Z"/>
            <g>
              <path class="cls-16" d="M150.26,38.98c1.03.78.53,1.35-.4,1.84-3.08,1.64-12.5,1.43-15.95.65-1.09-.25-4.3-1.11-2.31-2.53l.05.1c.13-.11.58-.29.52-.5,4.11-1.61,14.22-1.78,18.09.45h0Z"/>
              <path class="cls-16" d="M147.97,38.98c-.35-.15-1.18-.54-1.39-.15-2.09-1.02-8.46-.86-10.76-.3-.97.24-2.14.63-.87,1.59-.01,0-.16.06-.32,0-.13-.05-.72-.46-.77-.42-.05.54.35.69.8.87-.38-.03-1.14-.25-1.34-.6.04-.99.87-1.25,1.66-1.54l-.12-.15c3.35-.96,8.68-.86,12.05-.05.23.06,1.93.56,1.99.65.21.32-.22.24-.25.25-.05.02-.17.2-.2.2-.03,0-.26-.26-.47-.35h0Z"/>
              <path class="cls-61" d="M147.97,38.98c.44.57.27.94-.32,1.29-2.19,1.31-10.6,1.24-12.99.3-.45-.18-.84-.33-.8-.87.05-.04.65.37.77.42.16.06.31,0,.32,0,2.78.95,8.26,1.26,11.06.35.92-.3,1.88-1,.57-1.64.22-.39,1.04,0,1.39.15h0Z"/>
              <path class="cls-16" d="M134.85,38.28l.12.15c-.79.3-1.62.55-1.66,1.54-.19-.32-.02-.35-.05-.47,0-.01-.22,0-.25-.15-.12-.61,1.45-.96,1.84-1.07h0Z"/>
              <g>
                <path class="cls-16" d="M146.58,38.83c1.31.64.35,1.34-.57,1.64-2.79.91-8.28.6-11.06-.35-1.27-.96-.1-1.35.87-1.59,2.3-.56,8.67-.72,10.76.3h0Z"/>
                <path class="cls-61" d="M143.85,38.73c-.33.55.92.41.65.97-.05.1-.52.16-.62.27-.24.03-.02-.17-.15-.3-.19.12-.46.12-.62.15.1-.58-1.38-.67-1.81-.7-.42-.02-2.48.08-2.73.3-.49.42.96.6,1.19.6.12,0,.41-.08.57-.07l-.57-.27,2.19-.05.05.1c-.08.08-1.4.32-.22.3.03.06.03.27-.02.3-.25.11-3.04-.07-3.48-.15-.32-.06-1.33-.24-1.22-.62.12-.43,1.78-.65,2.21-.67l-.02-.3c1.46-.1,3.18-.11,4.62.15h0Z"/>
                <path class="cls-61" d="M139.23,38.58l.02.3c-.43.02-2.09.24-2.21.67-.11.38.9.56,1.22.62.44.08,3.22.26,3.48.15.05-.02.05-.24.02-.3.48,0,.88-.12,1.34-.2.16-.03.43-.03.62-.15.13.13-.09.33.15.3.1-.11.57-.18.62-.27.27-.56-.98-.42-.65-.97.38.07,2.47.45,1.62,1.09-1.21.91-7.81,1.04-9.04.15-.17-.13-.36-.42-.27-.62.23-.54,2.52-.73,3.08-.77h0Z"/>
                <path class="cls-39" d="M143.1,39.83c-.46.08-.86.19-1.34.2-1.18.02.15-.22.22-.3l-.05-.1-2.19.05.57.27c-.16,0-.45.07-.57.07-.23,0-1.68-.18-1.19-.6.26-.22,2.31-.32,2.73-.3.43.02,1.91.12,1.81.7h0Z"/>
              </g>
            </g>
          </g>
        </g>
      </g>
    </g>
    <g id="Generative_Object1" data-name="Generative Object1">
      <path class="cls-35" d="M167.7,37.09c.24.63.17,1.33-.15,1.91-.19.35-1.48,1.52-.12.62l.82-.94c-.09.73-.67,1.29-1.19,1.74l-2.96,1.39-.02.3c-4.93,2-11.84,2.78-17.17,3.08-7.71.43-16.61.13-24.15-1.54-2.32-.51-8.96-2.2-9.37-4.97.52.58,1.03,1.25,1.79,1.54,3.25,2.52,13.21,3.84,17.42,4.17,8.68.69,19.62.45,28.02-1.84,2-.54,9.52-2.98,6.43-6.11.29.12.47.41.65.65h0Z"/>
      <path class="cls-2" d="M168.24,38.68l-.82.94c-1.35.89-.07-.28.12-.62.32-.59.39-1.29.15-1.91.42.55.64.82.55,1.59h0Z"/>
      <path class="cls-44" d="M115.18,40.22c-.76-.29-1.26-.96-1.79-1.54-.1-.66.06-.87.4-1.39-.22,1.24.46,2.21,1.39,2.93h0Z"/>
      <path class="cls-30" d="M167.05,40.42c-.86.74-1.93,1.27-2.98,1.69l.02-.3,2.96-1.39h0Z"/>
      <g>
        <path class="cls-17" d="M167.05,36.45c3.09,3.13-4.43,5.57-6.43,6.11-8.41,2.29-19.34,2.53-28.02,1.84-4.2-.34-14.17-1.65-17.42-4.17-.93-.73-1.61-1.69-1.39-2.93,2.05-3.18,11.89-4.79,15.53-5.22,7.04-.83,14.91-.83,21.96-.1,3.71.38,13.18,1.84,15.78,4.47h0Z"/>
        <g>
          <g>
            <path class="cls-24" d="M166.45,37.09l-2.04,2.14c-.45-.28-1.01-.53-1.49-.74.84-.69,1.45-1.64,1.96-2.58.53.25,1.24.7,1.56,1.19h0Z"/>
            <path class="cls-24" d="M117.86,38.88c-.38.2-.83.5-1.14.8-.15.08-.27.14-.35.3-1.08-.73-2.14-1.73-1.07-3.03.81.73.83,1.43,1.99,1.74.12.03.66-.04.57.2h0Z"/>
            <path class="cls-24" d="M166.45,37.09c.84,1.27-.15,2.15-1.14,2.83-.29-.23-.58-.51-.89-.7l2.04-2.14h0Z"/>
          </g>
          <g>
            <path class="cls-26" d="M159.35,37.24l.05.07-.2.07c-1.04-.29-3.01-.9-4.02-.89-.1,0-.21-.01-.3,0-.12-.11-.52-.22-.67-.25-6.99-1.4-16.56-1.33-23.63-.45v-.2c8.93-1.11,20.12-.9,28.77,1.64h0Z"/>
            <path class="cls-54" d="M130.58,35.6v.2c-3.34.42-7.3,1.2-10.46,2.34-.48.17-1.02.4-1.47.65-.26,0-1.64.72-1.94.89.31-.29.76-.6,1.14-.8,3.53-1.85,8.77-2.79,12.72-3.28h0Z"/>
            <path class="cls-43" d="M162.68,38.38c.08.03.17.07.25.1.48.22,1.04.47,1.49.74.31.19.61.47.89.7-.16.11-.33.2-.5.3-.15-.24-.68-.51-.97-.65-.95-.46-2.01-.82-3.01-1.14.03-.16.02-.37.2-.45.39.13,1.16.46,1.49.52.16.03.16.05.15-.12h0Z"/>
            <path class="cls-43" d="M118.65,38.78c.08,0,.52.16.65.2-.14.02-2.15.93-2.31,1.04-.12.09-.15.07-.12.25-.16-.09-.34-.19-.5-.3.08-.16.2-.22.35-.3.3-.17,1.68-.89,1.94-.89h0Z"/>
            <path class="cls-54" d="M162.68,38.38c0,.17.01.15-.15.12-.33-.06-1.1-.39-1.49-.52-.62-.21-1.2-.42-1.84-.6l.2-.07-.05-.07c1.13.33,2.25.67,3.33,1.14h0Z"/>
            <path class="cls-59" d="M154.88,36.5c-.37.05-.92.36-1.24.35-.12,0-.7-.22-.92-.25-3.65-.46-7.25-.77-10.93-.84-.48,0-1.14-.07-1.56.1-.06-.07-.11-.17-.2-.2-.06-.02-.21,0-.3,0,0-.08-.03-.18-.12-.2-.54-.12-2.46.02-3.13.05-2.25.11-4.51.38-6.73.7-.53.08-4.38.63-4.55.8-.07.07-.01.18.02.25-1.21.28-2.39.64-3.58.99-.7.21-1.54.35-2.14.74-.06,0-.14,0-.2,0-.12-.03-.56-.2-.65-.2.44-.25.99-.47,1.47-.65,3.16-1.14,7.12-1.92,10.46-2.34,7.07-.89,16.64-.95,23.63.45.16.03.55.14.67.25h0Z"/>
            <path class="cls-43" d="M140.62,36.64c-.25.04-.85.52-1.12.65.41-.08.82-.4,1.17-.65.15-.01.43-.02.45.2,0,0,.03.15-.12.25-.12.08-.66.17-.84.25-1.45.62-1.23.46-2.76.15-.03-.1.05-.15.05-.25.42,0,.84-.04,1.27-.05.09,0,.24.05.22-.1.22,0,.41.12.67.05.05-.01.72-.43.84-.5.08-.05.22-.08.12-.2,0,.01.19-.02.05.2h0Z"/>
            <path class="cls-12" d="M136.54,39.28l-2.81.74-.1.1c.66-.11,1.31-.32,1.96-.5.08.16.23.07.02.25l-1.02.55c-.31.06-.54.04-.84.05-.46-.08-.79-.02-1.22-.1l-.32-.2s.26-.04.3-.05c.21-.03.28.02.6-.05.07-.02.14-.05.15-.05.49-.12.96-.27,1.44-.4.61-.16,1.24-.26,1.84-.45,0,.03,0,.07,0,.1h0Z"/>
            <g>
              <path class="cls-19" d="M154.88,36.5c.09-.01.2,0,.3,0,.16.17.3.47.5.6l.42.7c-.52.02-1.46.11-1.89.4-.1.07-.35.48-.45.5-.02,0-.34-.11-.47-.1-.24-.19-.6-.02-.6-.4l.32-.6s.23.68.45.74c.13.04.55-.05.57-.17.02-.14-.67-.8-.8-.94.22-.03.06-.2.4-.32v-.05c.32,0,.88-.3,1.24-.35h0Z"/>
              <path class="cls-28" d="M153.64,36.89c-.34.12-.18.3-.4.32.12.15.82.8.8.94-.02.12-.44.21-.57.17-.22-.07-.4-.74-.45-.74l-.32.6c0-.06.31-1.12.35-1.17.06-.07.48-.07.6-.12h0Z"/>
            </g>
            <path class="cls-12" d="M132.17,40.37c.06.21.47.19.65.32l-.25.27c-.12-.04-.74-.17-.77-.2-.13-.12.21-.02-.22-.25l.05-.1c.14.04.51-.06.55-.05h0Z"/>
            <path class="cls-12" d="M133.76,40.47c-.16,0-.48-.03-.55.1-.36-.05-.69-.14-1.04-.2-.02-.07-.02-.15.05-.2l.32.2c.42.08.75.01,1.22.1h0Z"/>
            <path class="cls-34" d="M139.72,35.65c-.11,0-.23,0-.35,0s-.29.04-.45.05c-.22,0-.46.09-.65.1-3.39.15-6.78.35-10.14.89.38-.08,1.12-.15,1.42-.25.15-.05.2-.06.17-.25,2.23-.32,4.48-.59,6.73-.7.67-.03,2.59-.17,3.13-.05.09.02.12.12.12.2h0Z"/>
            <path class="cls-11" d="M129.74,36.2c.03.18-.02.2-.17.25-.29.09-1.03.17-1.42.25-.97.2-1.97.33-2.93.55-.04-.07-.09-.18-.02-.25.16-.16,4.01-.72,4.55-.8h0Z"/>
            <path class="cls-43" d="M121.64,38.24l.1.1c-.26.17-.96,1.01-1.19,1.29.14-.44-.68-.65-1.04-.65.6-.39,1.44-.54,2.14-.74h0Z"/>
            <path class="cls-12" d="M126.16,40.07c-.35.42-.96.67-1.42.99-.34.24-.31.55-.92.65-.26-.09-.65-.07-.12-.1.05-.03.01-.14.02-.15.31-.18,1.35-.74,1.34-1.17,0-.02-.13-.24-.15-.27.25-.16,1.33.33.99-.25.14.11.18.13.25.3h0Z"/>
            <path class="cls-12" d="M135.4,42.46s0,.1,0,.15c-.01.15.02.17.1.3-.37-.18-.1.41-.2.6-.04-.07-.19-.26-.2-.32-.03-.25.2-.41.05-.52.14-.22.22-.17.25-.2h0Z"/>
            <path class="cls-59" d="M159.2,37.39c.64.18,1.22.39,1.84.6-.18.07-.17.28-.2.45-1.42-.46-2.9-.83-4.35-1.19-.28-.07-.48.08-.82-.15-.19-.13-.34-.42-.5-.6,1.02,0,2.99.6,4.02.89h0Z"/>
            <g>
              <g>
                <path class="cls-28" d="M151.5,37.04c-.03.2-.29.22-.4.37-.06.09.18.03.02.17-.1.09-.24.04-.25.05-.02.01-.12.24-.25.25-.07,0-.19-.1-.2-.1-.22,0-.19.1-.2.1-.33-.04-1.83-.69-2.04-.6-.1.04-.08.17-.07.25-.04-.01-.06-.05-.1-.05.09-.31.74-.8,1.02-.84.24-.04,2.25.28,2.46.4h0Z"/>
                <path class="cls-4" d="M148.12,37.54c.12.04.13-.07.32-.05.37.05.67.11.82.37.03.05.13,0,.15.05,0,.02-.13.34-.15.47-.35.1-.2.78-.35,1.04-.35-.01-.61-.08-.94-.1-.04-.09,0-1.67.05-1.84.04,0,.06.03.1.05Z"/>
                <path class="cls-19" d="M151.85,37.94c.02.08.04.16.05.25-.28.15-.19.72-.35.99,0,0-.02.02-.05.05-.21.24-.25-.1-.6.15-.02-.05.03-.16-.02-.2l-.27.15s-.1.01-.1-.02c0-.02.1-.08.1-.1,0-.29-.15-1.02-.1-1.14.02-.06.99-.6,1.12-.72l-.22.27c.28-.07.23.14.25.15.16.09.07-.27.2.17h0Z"/>
                <path class="cls-4" d="M151.9,38.19c0,.07.05.52.05.55-.02.35-.01.42-.4.45.16-.27.07-.84.35-.99h0Z"/>
              </g>
              <g>
                <path class="cls-55" d="M150.16,42.56c.44.19,1.81.74,2.21.6.08-.03.69-.5.82-.6.17-.13.34-.26.5-.4-.01.13-.08.12-.1.25,0,.05.2.49-.1.7-.16.14-.42.21-.35.3-.25.03-.72.14-.94.1-.17-.03-.19-.15-.2-.15-.79-.21-1.58-.44-2.38-.6-.26-.44-.5-.93-.74-1.34.29.09.04-.07.15-.25.15.25.33.94.5,1.12.14.14.45.19.65.27h0Z"/>
                <path class="cls-28" d="M151.5,39.23c.26.19.6.2.89.3.04.01.06.03.1.05.15.06.59.19.67.25.35.24.64,1.82.57,2.24-.36-.26-.79-.6-1.22-.45-.13-.13.27-.01.05-.15-.44-.27-.72-.23-1.14-.65-.04-.04-.1.05-.1.05-.15-.19-.29-1.16-.42-1.49.34-.25.39.09.6-.15h0Z"/>
                <path class="cls-4" d="M153.19,42.56c-.13.1-.74.57-.82.6-.4.14-1.77-.4-2.21-.6.04-.02.14-.15.15-.15.01,0,.04,0,.05,0,.01,0,.11.16.22.2.1.03.05-.13.15-.1.07.02.14.24.3.25.29.02,1.2-.73,1.24-1.09l1.24.45-.32.45h0Z"/>
                <g>
                  <path class="cls-4" d="M151.85,37.94c-.13-.44-.04-.08-.2-.17-.02,0,.03-.21-.25-.15l.22-.27c-.13.12-1.09.66-1.12.72-.05.12.1.85.1,1.14,0,.02-.1.08-.1.1,0,.04.1.02.1.02,0,.03-.07.14-.1.17l.25-.1.37,1.27c.02-.19-.29-1.35-.35-1.39-.04-.03-.11.08-.17.05l.27-.15c.06.04,0,.15.02.2.14.33.28,1.3.42,1.49,0,0,.06-.09.1-.05.42.42.71.38,1.14.65.22.14-.18.02-.05.15.42-.15.86.19,1.22.45,0,.05-.04.05-.05.1-.16.14-.33.27-.5.4l.32-.45-1.24-.45c-.04.37-.95,1.11-1.24,1.09-.16-.01-.23-.23-.3-.25-.1-.03-.05.13-.15.1-.11-.03-.21-.2-.22-.2.2-.21.64-.77.87-.89.08-.05.35.07.47-.12-.38-.68-1.15.65-1.59.84l.2.17s-.11.13-.15.15c-.2-.08-.51-.13-.65-.27-.17-.18-.35-.87-.5-1.12.11-.18,1.02-1.1.99-1.17l-2.04-.67c.33.02.59.09.94.1.01,0,.15.2.25.02-.02-.36.05-.71.1-1.07.02-.13.16-.45.15-.47-.02-.05-.12,0-.15-.05-.15-.26-.45-.33-.82-.37-.2-.02-.2.09-.32.05,0-.08-.02-.21.07-.25.21-.09,1.71.56,2.04.6.01,0-.02-.09.2-.1.01,0,.13.11.2.1.13,0,.22-.23.25-.25.01,0,.15.04.25-.05.15-.15-.09-.08-.02-.17.1-.15.37-.17.4-.37.3.17.37.57.35.89h0Z"/>
                  <path class="cls-19" d="M150.48,39.92c.24,0,.66.97.62,1.22-.07.12-1.01.97-1.07.92.02-.7-.31-1.81.45-2.14h0Z"/>
                  <path class="cls-52" d="M150.36,42.41s-.04,0-.05,0l-.2-.17c.44-.2,1.21-1.53,1.59-.84-.13.2-.39.08-.47.12-.23.12-.67.69-.87.89Z"/>
                  <path class="cls-19" d="M149.26,38.38c-.05.35-.12.71-.1,1.07-.09.17-.23-.02-.25-.02.15-.27,0-.94.35-1.04Z"/>
                  <path class="cls-19" d="M150.6,39.33c.06.03.13-.08.17-.05.06.04.37,1.2.35,1.39l-.37-1.27-.25.1s.1-.14.1-.17Z"/>
                </g>
              </g>
            </g>
            <g>
              <path class="cls-19" d="M139.72,35.65c.09,0,.23-.02.3,0l-.65,1.17c.15-.13.18.09.32-.02.11-.09.06-.29.25-.35.24-.08.43.28.17-.47l.2.12c.09.12.17.22.25.35.09.12-.04.15-.12.2-.12.07-.8.48-.84.5-.26.07-.45-.05-.67-.05-.33,0-.66,0-.99,0l-.42-.15c.4-.12.82-.09,1.22-.15.1-.01.3.03.37,0,.14-.05.67-.85.62-1.07l-.35-.07c.11,0,.23,0,.35,0h0Z"/>
              <path class="cls-28" d="M140.22,35.85c.06.06.08.22.1.25l-.2-.12c.25.75.07.39-.17.47-.19.06-.14.25-.25.35-.15.12-.17-.1-.32.02l.65-1.17c.09.03.14.13.2.2Z"/>
              <path class="cls-58" d="M140.67,36.64c-.35.24-.75.56-1.17.65.27-.13.87-.6,1.12-.65.02,0,.03,0,.05,0Z"/>
              <path class="cls-28" d="M138.93,35.7c-.04.19.23.21.25.27.05.23-.77.54-.45.82-.4.06-.82.02-1.22.15l.42.15c-.15,0-.38-.04-.5.05,0,0-.11-.04-.1-.07.04-.21.77-1.05.94-1.27.19,0,.43-.09.65-.1h0Z"/>
              <path class="cls-42" d="M137.93,37.09c.33,0,.66,0,.99,0,.02.15-.13.1-.22.1-.42.01-.84.04-1.27.05v-.1c.12-.09.35-.05.5-.05h0Z"/>
              <path class="cls-28" d="M139.38,35.65l.35.07c.05.22-.48,1.02-.62,1.07-.07.03-.27-.01-.37,0-.32-.28.5-.59.45-.82-.01-.07-.29-.08-.25-.27.15,0,.33-.05.45-.05h0Z"/>
            </g>
            <g>
              <path class="cls-9" d="M153.64,36.84v.05c-.12.05-.54.06-.6.12-.04.05-.35,1.11-.35,1.17,0,.37.35.21.6.4-.09,0-.2.06-.3.07l.25.17c-.25-.06-.87-.45-.92-.45-.02,0-.11.09-.12.1-.11.06-.17,0-.25.25,0-.03-.04-.48-.05-.55-.01-.09-.02-.16-.05-.25.03-.32-.04-.73-.35-.89-.21-.12-2.22-.44-2.46-.4-.28.05-.93.53-1.02.84-.05.17-.09,1.74-.05,1.84l2.04.67c.03.07-.89.99-.99,1.17s.14.34-.15.25c-.04-.06-.1-.12-.12-.2-.26-.01.49,1.51.92,1.69.57.23,1.7.32,2.34.45.01,0,.03.12.2.15-5.03.65-10.13.74-15.2.6.06,0,.22-.05.27-.1-.25-.04-.66.05-.89,0-.13-.03-.12-.15-.12-.15l2.96.15.42-.5c.21-.19.42-.57.65-.77-.41-.45-.85-1.89-1.29-2.21-.07-.05-.09-.09-.2-.1s-1.98.54-2.09.6c.02-.21-.04-.15-.17-.1-.33.11-.52.24-.92.35-.07-.12-.22-.03-.3,0l-2.19-.15c-.18-.05-.37-.09-.55-.15l.25-.27c-.17-.13-.58-.11-.65-.32.35.06.69.15,1.04.2.41.05.94.25,1.37.2.15-.02,2.76-1.14,2.88-1.24.08-.07.15-.16.22-.22.09-.42-.85-.81-1.17-.92.15.3.95.44.77.87-.1.24-1.77.99-1.79.89-.01-.06.38-.14.22-.22-.34.18-.74.42-1.12.5l1.02-.55c.21-.18.06-.09-.02-.25.35-.09.72-.15,1.07-.25.05-.11-.13-.09-.12-.1,0-.03,0-.07,0-.1,0,0,.15.05.1-.17-.07-.28-.64-1.61-.8-1.91.29.25.81.08,1.24.4,1.65.75,2.02.37,3.45-.15.38-.14,1.6-.1.65-.6-.02.05-.04.06-.07.1-.01-.22-.29-.21-.45-.2-.02,0-.03,0-.05,0,.15-.22-.04-.19-.05-.2-.08-.12-.16-.23-.25-.35-.02-.02-.04-.19-.1-.25.43-.17,1.08-.11,1.56-.1,3.68.07,7.29.38,10.93.84.22.03.8.24.92.25h0Z"/>
              <g>
                <path class="cls-58" d="M133.21,40.57c.07-.13.38-.09.55-.1.3-.01.54,0,.84-.05.38-.07.78-.32,1.12-.5.16.09-.23.16-.22.22.02.1,1.69-.65,1.79-.89.17-.43-.62-.57-.77-.87.32.11,1.26.5,1.17.92-.08.07-.14.16-.22.22-.12.1-2.73,1.22-2.88,1.24-.42.05-.95-.15-1.37-.2h0Z"/>
                <path class="cls-58" d="M146.7,39.48c.85.76-.06.56-.55.74-.29.11-.91.56-1.14.6-.55.07-1.54-.63-2.11-.77l2.01.62c.26-.24,1.73-.72,1.81-.92.04-.09-.11-.18-.02-.27h0Z"/>
                <path class="cls-58" d="M137.09,37.49c.06-.11.21-.02.3,0,1.53.31,1.3.47,2.76-.15.18-.08.72-.17.84-.25.15-.1.11-.24.12-.25.03-.03.06-.05.07-.1.95.49-.27.46-.65.6-1.43.52-1.8.9-3.45.15h0Z"/>
                <path class="cls-58" d="M135.3,41.27c-.08.03-.16.01-.15.15-.86.16-1.23-.06-2.04-.3l2.19.15h0Z"/>
                <path class="cls-43" d="M140.32,40.32c-.11-.23-.23.09,0,.05,0,.04.1.22.05.32-.22.49-1.33-.45-.17-.67l.12.07c.05.07,0,.21,0,.22h0Z"/>
                <path class="cls-45" d="M148.86,41.41c.25.41.48.9.74,1.34.03.05.06.09.05.15-.43-.18-1.18-1.7-.92-1.69.02.08.09.14.12.2h0Z"/>
                <path class="cls-45" d="M142.65,40.62s-.14.03-.15.05c-.53-.22-.83-.34-1.29-.7l.1-.1c.38.31.94.46,1.34.74h0Z"/>
                <path class="cls-63" d="M152,43.35c-.64-.13-1.76-.21-2.34-.45.01-.06-.02-.1-.05-.15.81.16,1.59.38,2.38.6h0Z"/>
                <path class="cls-12" d="M146.28,41.96s-.14.19.15.05c.15.09.15.02.15.02,0,.25-.23.43-.47.37-.33-.08-.26-.8.17-.45h0Z"/>
                <path class="cls-29" d="M147.2,38.78c.04.21-.26.25-.17.57.06.22.75.42.82.67-.57-.24-1.56-.65-.65-1.24Z"/>
                <path class="cls-58" d="M141.31,39.88l-.1.1c-.53-.41-.93-.69,0-1.07-.58.38-.33.62.1.97Z"/>
                <path class="cls-15" d="M142.03,43.45c.34.06.12.24.22.47l-.12.12c-.36-.1-.47-.43-.1-.6Z"/>
                <path class="cls-41" d="M142.65,40.62c.07,0,.97.32,1.02.35.09.06.08.09,0,.15-.44-.07-.78-.28-1.17-.45.01-.02.14-.05.15-.05h0Z"/>
                <path class="cls-15" d="M140.2,41.02c.09.07.26-.07.32.07.15.35-.6.35-.32-.07Z"/>
                <path class="cls-15" d="M141.44,42.21s.26,0,.27.02c.12.29-.45.59-.27-.02Z"/>
                <path class="cls-63" d="M140.32,40.32s0,.03,0,.05c-.23.04-.11-.28,0-.05Z"/>
                <path class="cls-29" d="M146.43,42.01c-.29.14-.14-.04-.15-.05.12-.1.11.03.15.05Z"/>
                <path class="cls-14" d="M151.82,36.89c.14.05-.16.23-.12.07,0,0,.12-.08.12-.07Z"/>
                <g>
                  <path class="cls-28" d="M143.7,36.64c.06.25,1.06.6,1.19.35.12.04.23.1.35.15l.35.27-1.27,1.12-1.84-.65c.59-.28-.02-.05-.05-.3-.13.22-.03.39-.32.1.11-.18.98-1.11,1.12-1.14.19-.05.32.07.47.1h0Z"/>
                  <path class="cls-4" d="M144.59,39.48c.02.26-.01.53,0,.8-.09,0-.29-.04-.4-.05.21-.29-.15-.78.22-.94l.17.2h0Z"/>
                  <path class="cls-28" d="M144.89,36.99c-.13.25-1.13-.1-1.19-.35.35.07.86.23,1.19.35Z"/>
                  <path class="cls-28" d="M144.74,39.43c.09-1.01.27-.77.84-1.39.37.81-.29,1.02-.84,1.39Z"/>
                  <g>
                    <path class="cls-19" d="M146.08,39.53l-.22-.74c-.15.28-.2.86-.37,1.09-.07.09-.49.32-.6.35-.31-.03-.17-.54-.15-.8.55-.37,1.21-.59.84-1.39.18-.2.46-.41.17-.6-.17.54-1.24.96-1.27,1.56,0,.06.09.35.1.47l-.17-.2c-.37.16,0,.65-.22.94-.23-.03-2.18-.52-2.24-.62-.05-.08-.08-1.55-.05-1.69.02-.11.18-.19.2-.22.29.29.19.12.32-.1.03.25.64.02.05.3l1.84.65,1.27-1.12-.35-.27c.21.08.67.1.74.37.03.11.12,1.91.1,2.01h0Z"/>
                    <path class="cls-28" d="M145.59,38.04c-.57.62-.75.38-.84,1.39-.02.25-.16.76.15.8-.11.03-.17.05-.3.05-.01-.26.02-.53,0-.8,0-.12-.1-.41-.1-.47.03-.61,1.1-1.02,1.27-1.56.28.19,0,.4-.17.6h0Z"/>
                    <path class="cls-4" d="M146.08,39.53c-.05.28-.34.3-.6.35.18-.23.22-.81.37-1.09l.22.74h0Z"/>
                    <path class="cls-4" d="M142.03,37.89c.06-.04,1.09.37,1.22.47-.07.05-.69-.01-.72-.02-.05-.02,0-.13-.05-.15-.04-.01-.74-.11-.45-.3h0Z"/>
                  </g>
                </g>
                <g>
                  <path class="cls-12" d="M145.31,42.61c.3-.08.65.18.57.52-.1.4-1,.33-.7-.05-.35.09,0-.44.12-.47h0Z"/>
                  <path class="cls-33" d="M145.26,42.76c.2-.09.07.13-.05.2-.06-.03-.02-.17.05-.2Z"/>
                  <path class="cls-41" d="M145.56,42.91c.06-.04.07.19,0,.15-.04-.02-.04-.12,0-.15Z"/>
                </g>
              </g>
            </g>
            <g>
              <path class="cls-28" d="M135.85,37.09c.15.3.73,1.63.8,1.91.05.22-.1.16-.1.17-.6.18-1.23.29-1.84.45-.29-.35-.46-.86-.6-1.29.03.03.11.05.12.15l.07-.07c.02-.22-.35-.7-.35-.74,0-.13,1.39-.8,1.52-1.02-.61.13-1.2.73-1.74.94-.37.15-1.86.37-2.04.5-.09.07-.08.12-.07.22,0,.09.6,1.19.7,1.47-.17-.32-.85-1.42-.8-1.71.12-.29.53-.37.74-.52-.09.15.01.09.1.07.53-.11,1.84-.44,2.26-.72.06-.04.03-.2.25-.3-.25.12-.66.02-.87.05.96-.05,1.35-.52,1.84.45h0Z"/>
              <path class="cls-63" d="M135.6,39.63c-.65.18-1.3.39-1.96.5l.1-.1,2.81-.74s.17,0,.12.1c-.35.09-.72.15-1.07.25h0Z"/>
              <path class="cls-19" d="M132.27,37.54c.61-.43.97-.8,1.74-.89.21-.03.62.07.87-.05-.22.1-.19.26-.25.3-.43.28-1.73.61-2.26.72-.09.02-.19.08-.1-.07Z"/>
              <g>
                <path class="cls-4" d="M134.11,38.34c-.03-.1,0-.31-.12-.4-.05.1.07.32.12.4.14.43.31.94.6,1.29-.48.13-.95.28-1.44.4l-.42-1.84c-.25.52-.1,1.43.27,1.89-.31.07-.39.02-.6.05-.13-.07-.15-.22-.2-.35-.1-.27-.69-1.38-.7-1.47,0-.1-.01-.16.07-.22.17-.13,1.67-.35,2.04-.5.53-.21,1.12-.82,1.74-.94-.12.22-1.51.89-1.52,1.02,0,.04.37.52.35.74l-.07.07c-.01-.1-.1-.11-.12-.15h0Z"/>
                <path class="cls-19" d="M133.26,40.02s-.08.03-.15.05c-.37-.46-.52-1.37-.27-1.89l.42,1.84h0Z"/>
                <path class="cls-28" d="M133.79,37.89c.27.58.52,1.18.7,1.79-.09.04-.7-1.63-.7-1.79Z"/>
                <path class="cls-28" d="M134.11,38.34c-.06-.07-.18-.29-.12-.4.13.09.09.3.12.4Z"/>
              </g>
            </g>
            <g>
              <path class="cls-4" d="M124.17,39.68l.1-.02c-.11-.08-.25-.25-.35-.32.27-.32.29.18.55.2.09.11.4.43.45.5.02.03.15.26.15.27,0,.43-1.04.98-1.34,1.17-.08,0-.17-.01-.25,0-.04-.34.78-.94.4-1.04-.05-.01-.38-.08-.4-.07-.05.03-.46.91-.4,1.02-.07.06-.05.11-.2.12l.1.07c-.52.02-.77-.1-1.24-.25-.09-.29.05,0,.1-.17.01-.04-.27-.12.1-.17,0,0-.11.12.02.1.09-.14,1.11-1.17.94-1.24-.06.15-.44.39-.57.4.26-.22.51-.81.05-.99-.1-.32-.5-.66-.8-.55.13-.15.24-.3.42-.4l.52.52-.35-.15c.11.25.54.4.65.5s.25.45.37.52c.24.13,1.04.15,1.34.3-.06-.11-.27-.23-.37-.3h0Z"/>
              <path class="cls-19" d="M122.38,39.23c.46.18.21.77-.05.99-.35.02-.58-.52-1.32-.4-.34.06-1.17.62-.45.84.31-.6,1.81-.63,1.37.3-.37.06-.09.13-.1.17-.05.18-.19-.11-.1.17-.32-.1-1.49-.56-1.69-.74v-.22l1.44-1.52c-.05.06-.34.47-.32.5.43-.02.75-.28,1.22-.1h0Z"/>
              <path class="cls-28" d="M124.47,39.53c-.26-.02-.28-.52-.55-.2-.3-.22-.74-.37-1.02-.65l-.57-.22c.34.39.69.81,1.17,1.02.04.02.35,0,.67.2.11.07.31.19.37.3-.3-.15-1.1-.17-1.34-.3-.13-.07-.27-.43-.37-.52s-.53-.24-.65-.5l.35.15-.52-.52c-.18.09-.29.25-.42.4-.03.04-.07.1-.1.15l-1.44,1.52v.22c-.05-.05-.16-.08-.15-.17.21-.26.43-.51.65-.77.23-.28.93-1.12,1.19-1.29.13-.09.19-.16.37-.15.1,0,1.83.72,1.94.8.12.09.3.4.42.55h0Z"/>
              <path class="cls-19" d="M123.47,41.47c-.15.02-.35.09-.5.1l-.1-.07c.15-.01.13-.06.2-.12.29-.27.66-.55.8-.94.39.1-.44.7-.4,1.04h0Z"/>
              <path class="cls-28" d="M122.33,40.22c.13,0,.51-.25.57-.4.16.07-.85,1.1-.94,1.24-.13.02-.02-.1-.02-.1.45-.93-1.06-.9-1.37-.3-.73-.22.11-.79.45-.84.73-.12.96.42,1.32.4h0Z"/>
              <path class="cls-19" d="M123.92,39.33c.1.07.24.24.35.32l-.1.02c-.32-.2-.63-.18-.67-.2-.48-.21-.83-.63-1.17-1.02l.57.22c.28.28.72.42,1.02.65h0Z"/>
              <path class="cls-4" d="M122.38,39.23c-.46-.18-.79.08-1.22.1-.02-.03.28-.43.32-.5.03-.04.06-.11.1-.15.3-.11.69.23.8.55Z"/>
              <path class="cls-4" d="M123.87,40.42c-.13.39-.5.67-.8.94-.06-.11.35-.99.4-1.02.02,0,.35.06.4.07Z"/>
            </g>
            <g>
              <path class="cls-8" d="M138.28,35.8c-.17.22-.9,1.06-.94,1.27,0,.03.1.07.1.07v.1c0,.09-.08.15-.05.25-.09-.02-.24-.11-.3,0-.43-.32-.95-.15-1.24-.4-.49-.96-.88-.49-1.84-.45-.77.09-1.13.46-1.74.89-.22.15-.62.24-.74.52-.06.29.62,1.39.8,1.71.04.12.07.28.2.35-.04,0-.29.04-.3.05-.07.05-.07.13-.05.2-.04,0-.41.08-.55.05-.36-.09-.71-.36-.37-.7-.81.33-.03.61.32.8.43.22.09.13.22.25.03.03.65.16.77.2.18.06.37.1.55.15.81.24,1.17.45,2.04.3.17-.03.29-.11.45-.15.4-.11.59-.23.92-.35.13-.05.19-.11.17.1-.19.1-1.07,1.19-1.29,1.44-.02.03-.11-.03-.25.2-.35.58.02.67.25,1.19-.56.17-1.48-.07-2.01-.1-4.13-.25-8.41-.8-12.5-1.94-.4-.12-.85-.26-1.24-.4-.05-.02-.11-.03-.15-.05-.14-.06-.44-.31-.6-.15-.67-.25-1.41-.59-2.04-.94-.02-.18,0-.16.12-.25.16-.11,2.17-1.02,2.31-1.04.06,0,.14,0,.2,0,.37,0,1.18.21,1.04.65-.21.26-.44.51-.65.77,0,.1.1.13.15.17.2.19,1.37.64,1.69.74.48.15.73.26,1.24.25.15,0,.35-.08.5-.1.08-.01.17,0,.25,0-.01,0,.02.12-.02.15-.52.03-.13,0,.12.1-.03,0-.07,0-.1,0-.25.03-.54,0-.8-.02,0,.11.68.18.8.17.78-.02,1.07-.55,1.62-.99.24-.2.6-.32.82-.55.49-.51-.3-.83-.74-.77.15.06.37.13.5.22.34.58-.74.09-.99.25-.05-.07-.35-.39-.45-.5-.13-.15-.3-.45-.42-.55-.1-.08-1.83-.79-1.94-.8-.18,0-.24.06-.37.15l-.1-.1c1.18-.36,2.37-.72,3.58-.99.96-.22,1.96-.35,2.93-.55,3.36-.55,6.75-.74,10.14-.89h0Z"/>
              <g>
                <path class="cls-55" d="M135.4,43.85s.13.02.15-.02c-.07-.09-.2-.23-.25-.32.1-.18-.17-.77.2-.6.04.06.09.15.15.2.04.11.27.46.35.55.12.13.09.11.25.2,0,0,0,.12.12.15.23.05.64-.04.89,0-.05.05-.22.09-.27.1-1.08.14-3.83-.19-5.04-.3-3.73-.34-7.49-.95-11.06-1.99,4.09,1.14,8.37,1.68,12.5,1.94.53.03,1.45.27,2.01.1h0Z"/>
                <path class="cls-55" d="M120.89,41.81c-.5-.14-.73-.2-1.24-.4.39.14.84.28,1.24.4Z"/>
                <path class="cls-55" d="M119.5,41.37c-.14-.05-.4-.08-.6-.15.16-.16.46.09.6.15Z"/>
                <path class="cls-55" d="M119.65,41.41s-.07-.02-.15-.05c.04.02.1.03.15.05Z"/>
                <path class="cls-47" d="M135.6,41.27c-.16.04-.27.12-.45.15-.02-.14.07-.12.15-.15s.23-.12.3,0Z"/>
                <path class="cls-28" d="M129.54,37.34c-.15.54-.29.21-.55.42-.17.14-.2.41-.22.42-.09.04-.54-.06-.67.1-.07-.02-.15-.05-.22-.05-.08-.12.59-.93.65-.94.05-.02.94.03,1.02.05h0Z"/>
                <path class="cls-4" d="M129.93,37.79c.06.3,0,.2-.2.4-.1.1-.35.23-.45.35-.36-.22-.82-.14-1.19-.25.13-.16.58-.06.67-.1.02-.01.06-.28.22-.42.26-.22.4.11.55-.42.02,0,.03,0,.05,0,.01.34-.62.77-.22.99.05-.11.35-.43.37-.47.07-.15-.33-.03-.02-.37l.22.3h0Z"/>
                <path class="cls-58" d="M130.31,41.51c.12-.03-.02.16-.02.17-.12.15-1.14.85-1.32.87-.59.07-1.88-.41-2.56-.37.69-.23,1.74.32,2.41.22.33-.05,1.12-.75,1.49-.89h0Z"/>
                <path class="cls-45" d="M126.16,40.32c-.22.23-.58.35-.82.55-.55.44-.83.97-1.62.99v-.15s.07,0,.1,0c.6-.1.58-.4.92-.65.46-.32,1.07-.58,1.42-.99.08.21-.06.13,0,.25Z"/>
                <path class="cls-45" d="M119.08,40.07c.14.07-.09.17-.07.32.05.4,1.98.79,1.99.94-.08.08-.1.13-.22.12-.09,0-1.62-.6-1.69-.65-.37-.26-.29-.46,0-.74h0Z"/>
                <path class="cls-28" d="M129.93,37.79l-.22-.3c-.3.34.09.22.02.37-.02.04-.33.36-.37.47-.4-.22.24-.65.22-.99.2.05.31.26.35.45h0Z"/>
                <path class="cls-12" d="M133.98,42.66c.28-.03.54.52.1.55-.33.02-.33-.52-.1-.55Z"/>
                <path class="cls-58" d="M126.16,40.32c-.06-.12.08-.04,0-.25-.07-.17-.11-.19-.25-.3-.12-.09-.35-.16-.5-.22.45-.06,1.23.26.74.77h0Z"/>
                <path class="cls-45" d="M131.62,40.42l-.05.1c-.36-.19-1.13-.47-.32-.8-.34.33.01.6.37.7h0Z"/>
                <path class="cls-58" d="M127.32,38.53c.37.47.96.23,1.47.27-.43.14-1.36.3-1.47-.27Z"/>
                <path class="cls-63" d="M135.3,43.5c.05.09.18.23.25.32-.02.05-.11.01-.15.02-.22-.52-.6-.62-.25-1.19.15.11-.08.27-.05.52,0,.06.16.25.2.32h0Z"/>
                <path class="cls-45" d="M129.19,38.68c.06,0,.05-.05.05-.05.16-.1,0-.05.05-.1.09-.12.35-.25.45-.35-.12.34-.24.49-.55.5h0Z"/>
                <path class="cls-63" d="M123.72,41.71v.15c-.12,0-.8-.06-.8-.17.25.02.54.06.8.02h0Z"/>
                <path class="cls-63" d="M129.24,38.63s0,.06-.05.05c-.29,0-.59-.03-.87-.1l.92.05h0Z"/>
                <path class="cls-33" d="M127.87,41.96c.24,0,.52.03.72.17,0,.04-.69-.07-.72-.17Z"/>
                <path class="cls-1" d="M130.65,37.09c.1.01.1.24,0,.25-.12.02-.12-.26,0-.25Z"/>
                <g>
                  <path class="cls-4" d="M129.34,40.22c-.48.3-.79.98-.47,1.54.06-.33.7-.48.72-.52.09-.19-.26-.55,0-.77.78.9.15,1.13-.62,1.64l.84-.8c-.3.05-.79.68-1.04.7-.06,0-.6-.15-.87-.15.12-.16-.09-.28-.05-.37.07-.15.31,0,.4-.15-.08-.04-.11-.01-.2-.07.43-.06.45-.17.65-.47.06-.09.18-.48.2-.5.02-.02.14.2.25-.17.21.03.14.07.2.1h0Z"/>
                  <path class="cls-28" d="M129.59,40.47c-.26.22.09.58,0,.77-.02.04-.66.2-.72.52-.32-.56,0-1.24.47-1.54.11.06.17.15.25.25h0Z"/>
                  <path class="cls-19" d="M129.14,40.12c-.11.38-.22.15-.25.17-.02.02-.14.41-.2.5-.2.3-.22.41-.65.47-.07-.05-.2-.05-.2-.17,0-.14.73-.48.62-.72-.03-.02-.76.08-.8.1-.12.05-.27.48-.47.25.14-.16.11-.24.37-.35.22-.09,1.34-.28,1.56-.25h0Z"/>
                  <g>
                    <path class="cls-28" d="M128.05,41.27c.09.06.11.04.2.07-.09.15-.33,0-.4.15-.04.09.17.21.05.37-.48,0-.96.04-1.44.02.25-.37.45-.84.74-1.17.2.23.35-.2.47-.25.04-.01.76-.12.8-.1.11.24-.61.58-.62.72,0,.13.13.12.2.17h0Z"/>
                    <path class="cls-19" d="M127.18,41.37c.6-.09-.23.36-.47.27.06-.04.45-.27.47-.27Z"/>
                  </g>
                </g>
                <g>
                  <path class="cls-60" d="M125.09,38.19c.76-.1.68,1.12-.05.8-.35-.16-.25-.76.05-.8Z"/>
                  <path class="cls-1" d="M125.34,38.48c.09,0,.16-.05.17.07.01.08-.26.07-.17-.07Z"/>
                  <path class="cls-1" d="M125.04,38.43s.03.04.02.07c-.03.18-.09-.07-.02-.07Z"/>
                </g>
              </g>
            </g>
            <g>
              <path class="cls-7" d="M160.84,38.43c1,.33,2.06.68,3.01,1.14.28.14.82.4.97.65-2.95,1.72-8.27,2.83-11.68,3.18-.07-.09.18-.16.35-.3.26-.22.65-.41.1-.7.02-.13.09-.12.1-.25,0-.05.04-.05.05-.1.07-.42-.22-2-.57-2.24-.08-.06-.52-.19-.67-.25l-.07-.35-.02.3c-.29-.1-.63-.1-.89-.3.03-.03.05-.05.05-.05.38-.03.38-.09.4-.45.08-.26.14-.19.25-.25,1.07.71,2.23.8,3.25-.05-.9.27-1.22.64-2.21.4l-.25-.17c.1-.01.21-.07.3-.07.14,0,.45.1.47.1.09-.02.35-.43.45-.5.43-.29,1.37-.37,1.89-.4l-.42-.7c.34.23.54.08.82.15,1.45.37,2.93.73,4.35,1.19h0Z"/>
              <g>
                <path class="cls-45" d="M153.24,38.83c.99.24,1.31-.13,2.21-.4-1.02.85-2.19.76-3.25.05.01,0,.11-.1.12-.1.05,0,.66.39.92.45h0Z"/>
                <path class="cls-58" d="M156.24,38.53c.26-.05.91.2.87.52-.07.64-2.79.93-3.33.8.44.01,3.15-.38,2.98-.99-.02-.07-.45-.24-.52-.32Z"/>
                <path class="cls-12" d="M155.67,41.81c-.04-.13-.17-.14-.25-.02,0,.03.23.06.25.07.09.06.17.02.15.17-.15.4-.85.39-.8-.12.39.06.12-.09.15-.22,0-.01.31.04.15-.17.23-.04.64.09.35.3h0Z"/>
                <path class="cls-63" d="M155.55,37.89h.35c-.15.18-.67.12-.94.2-.3.08-.58.26-.87.37.36-.44.97-.42,1.47-.57Z"/>
                <path class="cls-63" d="M153.49,43.11c.3-.2.09-.65.1-.7.55.29.16.47-.1.7Z"/>
                <path class="cls-15" d="M155.32,41.51c.16.22-.15.16-.15.17-.03.13.24.28-.15.22.02-.18.06-.36.3-.4h0Z"/>
                <path class="cls-45" d="M156.59,37.59c.15.22.14.55-.15.65.11-.27.19-.33.15-.65Z"/>
                <path class="cls-58" d="M152.49,39.58s-.06-.04-.1-.05l.02-.3.07.35h0Z"/>
                <path class="cls-25" d="M155.67,41.81v.05s-.24-.05-.25-.07c.07-.11.21-.1.25.02h0Z"/>
                <g>
                  <path class="cls-28" d="M161.39,40.72s.06-.24.02-.25l-1.42-.02c.26-.1,1.32,0,1.47-.07.57-.3-1.36-.09-1.44-.1-.14-.02-.3-.27-.35-.3-.1-.06,0,.16-.1.1-.09-.06-.27-.43-.57-.65-.02-.18-.28-.39-.45-.32l.27.37-.1-.3c.09.09.17.17.27.25,0,.03,0,.07,0,.1,0,0-.1-.01-.1.02,0,.14.26.17.02.37-.06,0-.32-.59-.92-.15,0-.12.13-.2.2-.3.11-.14.26-.44.42-.5.07-.03,1.46-.16,1.54-.15.1.02,1.41,1.41,1.42,1.52,0,.02-.14.34-.2.37h0Z"/>
                  <path class="cls-4" d="M161.39,40.72c-.03.15-.12.32-.2.45-.49-.16-1.58.31-1.96.2-.09-.03-.61-.65-.77-.74.22.14.42.22.57.45.19-.02.6-.71.57-.84-.02-.1-.24-.34-.35-.4-.07-.1-.1-.24-.25-.3,0-.03,0-.07,0-.1.3.22.48.59.57.65.1.07,0-.16.1-.1.05.03.21.28.35.3.08.01,2.01-.2,1.44.1-.14.08-1.21-.03-1.47.07l1.42.02s-.02.21-.02.25h0Z"/>
                  <path class="cls-4" d="M159,39.53c.15.05.18.19.25.3.09.14.15.37.35.4.03.14-.38.83-.57.84-.16-.22-.35-.31-.57-.45-.42-.26-1.11-.36-.45-.84.6-.44.86.15.92.15.24-.2-.01-.23-.02-.37,0-.04.1-.02.1-.02h0Z"/>
                  <path class="cls-4" d="M159,39.43c-.1-.07-.19-.16-.27-.25l.1.3-.27-.37c.17-.07.42.14.45.32h0Z"/>
                  <path class="cls-28" d="M159.6,40.22c-.2-.03-.26-.26-.35-.4.1.06.32.3.35.4Z"/>
                </g>
                <g>
                  <path class="cls-12" d="M158.21,39.48c-.07.1-.19.18-.2.3-.66.49.03.59.45.84.16.09.68.72.77.74.38.12,1.47-.36,1.96-.2-.01.02.1.08-.02.15-.59-.15-1.64.42-2.14.3-.18-.05-.51-.52-.7-.65-.11-.08-.32-.14-.47-.25-.35-.24-.96-.37-.57-.84l-.32.15c.17-.33.73-.18.87-.25.09-.04.16-.36.37-.3h0Z"/>
                  <path class="cls-29" d="M157.86,40.72c-.32-.08-1.14-.22-.89-.7l.32-.15c-.39.47.22.6.57.84Z"/>
                  <path class="cls-25" d="M158.53,40.87l.62.57c-.2-.04-.55-.37-.62-.57Z"/>
                </g>
              </g>
            </g>
            <g>
              <path class="cls-4" d="M139.62,43.5s-.42.32-.47.3c-.2-.45-.99-1.43-.92-1.86.01-.08.35-.52.22-.57,0,0-.12.29-.17.12l.7-.97c.44.32.88,1.76,1.29,2.21-.23.2-.44.58-.65.77h0Z"/>
              <path class="cls-28" d="M138.78,40.42c-.07.12-.6.82-.6.87,0,.08.16-.09.15.05,0,.02-.26.34-.27.42-.88.3-1.84.39-2.66.84,0-.05,0-.1,0-.15.22-.25,1.1-1.34,1.29-1.44.11-.06,1.98-.6,2.09-.6h0Z"/>
              <path class="cls-4" d="M138.98,40.52l-.7.97c.05.17.16-.13.17-.12.12.05-.21.5-.22.57-.07.43.72,1.41.92,1.86.05.02.43-.26.47-.3l-.42.5-2.96-.15c-.16-.09-.13-.07-.25-.2.54.03,1.19.32,1.69.05.44.22.72,0,1.17,0-.07-.15-.67-1.22-.74-1.24-.15-.04-.13.1-.15.1-.03,0-.13-.15-.15-.15-.3,0-.51.15-.82.2-.02-.05.03-.15-.07-.2-.44.07-.84.26-1.29.25-.09.01,0,.38.02.45-.06-.04-.11-.14-.15-.2-.08-.12-.11-.15-.1-.3.82-.46,1.78-.55,2.66-.84.02-.08.27-.4.27-.42.01-.14-.15.03-.15-.05,0-.05.53-.75.6-.87.11,0,.13.05.2.1h0Z"/>
              <path class="cls-4" d="M136.99,42.61c.05.12.03.16.05.25,0,0-.09.03-.05.17.09.34.32.29.35.32.06.06.31.33.35.35-.51.27-1.15-.02-1.69-.05-.08-.08-.31-.44-.35-.55-.03-.07-.12-.43-.02-.45.45.01.86-.18,1.29-.25.11.05.05.15.07.2h0Z"/>
              <path class="cls-4" d="M137.68,43.7s-.28-.29-.35-.35l-.3-.5c-.02-.09,0-.13-.05-.25.31-.04.52-.2.82-.2.02,0,.11.14.15.15.02,0,0-.14.15-.1.07.02.67,1.09.74,1.24-.44,0-.73.22-1.17,0h0Z"/>
              <path class="cls-19" d="M137.34,43.35s-.26.02-.35-.32c-.04-.15.05-.16.05-.17l.3.5h0Z"/>
            </g>
          </g>
        </g>
      </g>
    </g>
    <g id="Generative_Object2" data-name="Generative Object2">
      <path class="cls-36" d="M154.93,43.65c.01.12.15.57.07.65s-1.91.25-2.19.3c-.04,0-.07.1-.07.1-8.38,1.3-19.64.9-27.97-.65.32-.06.26-.38.3-.65,9.25,1.58,20.58,1.58,29.86.25h0Z"/>
      <path class="cls-36" d="M152.74,44.69s.03-.09.07-.1c.28-.04,2.11-.22,2.19-.3s-.06-.52-.07-.65c3.2-.46,10.79-1.84,12.87-4.35.16-.19.25-.45.45-.62-.26,2.64-6.6,4.36-8.77,4.87-2.21.52-4.48.83-6.73,1.14h0Z"/>
      <path class="cls-36" d="M125.06,43.4c-.03.26.02.58-.3.65-2.52-.47-10.78-2.2-11.33-5.17.1-.05.02-.16.15-.02.24.24.41.59.72.87,2.15,1.94,7.87,3.18,10.76,3.68h0Z"/>
      <g>
        <path class="cls-36" d="M168.24,38.68c-.2.17-.29.43-.45.62-2.08,2.51-9.67,3.89-12.87,4.35-9.29,1.33-20.61,1.33-29.86-.25-2.88-.49-8.61-1.74-10.76-3.68-.31-.28-.48-.63-.72-.87-.13-.13-.05-.02-.15.02-.52-2.82,4.79-4.48,6.83-5.07,10.76-3.12,28.25-3.05,39.15-.5,2.32.54,9.12,2.26,8.82,5.37h0Z"/>
        <g>
          <path class="cls-56" d="M156.52,39.53s.13-.13.25-.07c-.06-.72.59.1.5.35-.02.07-.63.3-.47.37.37-.05.74.12,1.07-.05-.58.56-1.19,1.27-1.64,1.94-.11.28.04.51.2.74-.22.04-.43.07-.65.1-.3-.88-.97-1.49-1.59-2.14-.17-.17-.32-.36-.5-.52.54-.07,1.37-.22,1.44-.87.01-.12-.01-.23-.1-.32.42-.05,1.15.53,1.49.47h0Z"/>
          <path class="cls-37" d="M164.07,40.77c-.79.36-1.6.64-2.44.89-.03-.11.05-.17.1-.25.27-.41.08-.5-.3-.8-.09-.07-.25-.14-.35-.2l.02-.2c.42-.12,1.73.74,2.09.8.24.04.62-.29.87-.25h0Z"/>
          <path class="cls-56" d="M127.75,40.62h.05c.01.08.1.03.1.07.04.51-1.1.87-1.49,1.04l.5-.02c-.66.26-1.82.73-2.51.65-.42-.05-.83-.52-1.09-.55-.13-.01-.19.15-.2.15-.19-.04-1.29-.47-1.32-.62-.01-.58.88-.5,1.09-.87.13.62.12,1.1.72,1.39.95.46,1.73.12,2.63-.25.33-.13,1.49-.65,1.52-.99h0Z"/>
          <path class="cls-38" d="M139.28,37.74c-2.12.35-4.26.59-6.31,1.24-.06-.07-.35-.27-.45-.35,2.17-.69,4.48-.9,6.76-.89Z"/>
          <path class="cls-48" d="M151.5,37.84c-.16.15-.43.21-.55.4-.18.28-.04.85.1,1.19l-.3.2c-.05-.16-.15-.39-.2-.52-.16-.43-.34-.86-.55-1.27.26-.01.53,0,.8,0,.16,0,.37.06.47.05.01,0,.04-.12.2-.15.04,0,.02.1.02.1h0Z"/>
          <g>
            <path class="cls-13" d="M158.26,42.11c-.11.12-.21.26-.3.4-.52.1-1.02.21-1.54.3-.15-.23-.31-.47-.2-.74.06-.14,1.52-1.75,1.74-1.96.11-.11.7-.7.82-.67.11.25.69,1,.67,1.22-.03.27-1.11,1.1-1.19,1.47h0Z"/>
            <path class="cls-13" d="M161.73,41.41c-.05.08-.13.13-.1.25-1.23.37-2.43.6-3.68.84.08-.14.19-.27.3-.4.17-.2,1.2-1.26,1.37-1.29.41-.08,1.69.42,2.11.6h0Z"/>
            <path class="cls-13" d="M161.09,40.42c.1.06.26.13.35.2.02.16.62.61.27.65-.1.01-1.71-.52-1.84-.6-.47-.26-.78-.9-1.07-1.34.3-.04,1.94.87,2.29,1.09h0Z"/>
            <path class="cls-23" d="M161.44,40.62c.38.3.57.38.3.8-.43-.17-1.71-.68-2.11-.6-.16.03-1.19,1.1-1.37,1.29.08-.37,1.17-1.2,1.19-1.47.02-.22-.57-.97-.67-1.22-.12-.03-.71.56-.82.67-.22.21-1.68,1.82-1.74,1.96.45-.67,1.06-1.37,1.64-1.94.2-.2.67-.76.94-.8.29.44.59,1.08,1.07,1.34.13.07,1.74.61,1.84.6.35-.04-.25-.49-.27-.65h0Z"/>
          </g>
          <g>
            <path class="cls-5" d="M164.07,40.77c-.25-.05-.63.29-.87.25-.35-.05-1.67-.92-2.09-.8l-.02.2c-.35-.22-1.98-1.13-2.29-1.09-.27.03-.74.6-.94.8-.33.17-.7,0-1.07.05-.15-.08.45-.31.47-.37.09-.25-.55-1.07-.5-.35-.12-.06-.24.07-.25.07-.48-.3-1.04-.37-1.54-.55-.19-.07-.44-.33-.74-.3-.03-.04-.08-.23-.2-.2-.06-.2-.36-1.03-.5-1.14,0,0-.03-.09-.07-.1-.05-.01-.21,0-.27,0-.53.03-1.19.49-1.64.6-.02,0-.03,0-.05,0,0,0,.01-.11-.02-.1-.16.03-.19.15-.2.15-.1,0-.31-.05-.47-.05-.26-.02-.16-.19-.17-.2-.12-.05-.26.07-.35.05-2.19-.46-5.45-.41-8-.45-.33,0-.95-.07-1.14.1l.4.05c-.32,0-2.31-.03-2.41.17,0,0,.19.05.15.17-2.28,0-4.58.2-6.76.89-.27-.22-.58-.44-.89-.6-.27-.19-.39-.36-.77-.3-.09.01-1.44.88-1.56.99-.4.36-.36.43-.45.94-.04.26-.15,1.17-.15,1.34-.22.02-.33.33-.52.45-.19.12-.45.13-.62.2l.1-.07-.2-.07c.06-.03.11-.05.12-.05.35-.17.66-.33.92-.62.04-.22-.66-.56-.74-.45,0,.09.04.13.05.22h-.05c0-.07-.3-1.3-.35-1.47-.06-.19-.23-.7-.35-.82-.08-.3-.81-.21-1.09-.2-.77.03-2.36.45-2.98.89-.02.01-.16.04-.2.1-.11.16-.14.81-.1,1.04,0,.07-.05.05-.1.05-.39.02-.79.17-1.14.35-.08.04-.08.02-.2.1-.17.11-.33.18-.4.4-.16.5.26.47.5.77-.07.24-1.61-.4-1.81-.47-.1-.03-.19-.08-.25-.1-.02,0-.24,0-.25,0-.05-.02,0-.13-.05-.15-.01,0-.02.11-.2.05-.07-.02-.07-.14-.1-.15-.04-.01-.57-.03-.72-.1-.57-.24-1.13-.49-1.66-.8-.06-.1.19-.29.25-.35,2.9-2.67,13.58-4.14,17.59-4.42,7.65-.54,23.46-.16,30.06,3.78.17.1,1.26.82,1.22.97-.42.27-.89.46-1.34.67h0Z"/>
            <path class="cls-56" d="M122.26,39.92c.12,0,.24,0,.15.15-.34-.08-2.73.84-2.81.72-.36-.55,2.43-.88,2.66-.87h0Z"/>
          </g>
          <g>
            <path class="cls-13" d="M127.05,38.34c.12.12.29.63.35.82.05.16.35,1.39.35,1.47-.03.34-1.19.86-1.52.99-.9.37-1.69.7-2.63.25-.6-.29-.59-.77-.72-1.39,0-.02,0-.03,0-.05-.05-.26-.13-.59-.15-.84l.1-.32c.03-.05,1.04.24,1.12.27.68.31.67,1.64.99,2.29l-.47-2.16c.07-.25,2.12-1.4,2.41-1.42.04,0,.15.08.17.1h0Z"/>
            <path class="cls-13" d="M125.96,38.14c.13.14.59-.08.52.2-1.39.46-1.79,1.55-3.38.89-.12-.05-.24-.05-.12-.2.62-.44,2.22-.86,2.98-.89Z"/>
            <path class="cls-23" d="M127.05,38.34s-.13-.1-.17-.1c-.29.01-2.34,1.16-2.41,1.42l.47,2.16c-.32-.64-.31-1.97-.99-2.29-.08-.04-1.09-.32-1.12-.27l-.1.32c0-.16,0-.3.05-.45.04-.06.18-.09.2-.1-.11.15,0,.15.12.2,1.59.65,1.99-.44,3.38-.89.06-.28-.39-.06-.52-.2.28-.01,1.01-.1,1.09.2h0Z"/>
          </g>
          <path class="cls-56" d="M127.45,41.51c-.15.07-.38.13-.55.2l-.5.02c.39-.18,1.53-.53,1.49-1.04,0-.04-.09,0-.1-.07-.01-.09-.06-.14-.05-.22.08-.11.79.23.74.45-.26.29-.57.45-.92.62,0,0-.06.02-.12.05h0Z"/>
          <path class="cls-56" d="M122.73,39.58c.01.26.1.58.15.84-.08.08-.2-.23-.2-.25-.04-.24-.01-.88.1-1.04-.05.15-.06.29-.05.45Z"/>
          <path class="cls-48" d="M146.68,38.73c-.26.14-.66.31-.84.55-.25.32-.24.44-.1.84.02.24.25.84.35,1.09-.01.08-.16.08-.2.1.07-.12.25-.13.02-.25l-2.61.99s0-.11-.05-.2c.43-.29.97-.4,1.37-.74,1.39-1.19-1-2.23-1.69-3.03l3.75.65h0Z"/>
          <g>
            <path class="cls-13" d="M154.18,42.51s-.82.61-.89.65c-.6.32-1.45.27-2.14.35-.2-.39-.5-.73-.65-1.14.24-.35,1.06-.28,1.52-.35.12-.02.52-.19.65-.2.47-.04,1.68-.02,1.52.7h0Z"/>
            <path class="cls-13" d="M155.13,39.38c-.07.65-.9.8-1.44.87.18.16.33.35.5.52-.02.14.45.48.45.52-.04.3-.5-.13-.6-.25-.11-.14-.11-.62-.35-.5.24.42.44,1.33.7,1.69.23.33.82.42,1.09.72-.58.09-1.52.34-2.06.3-.03,0-.16-.02-.12-.1.07-.04.86-.6.89-.65.05-.08.04-.12.1-.17-.27-.74-.55-1.48-.84-2.21.61-.18,1.29-.2,1.69-.74h0Z"/>
            <path class="cls-13" d="M154.18,40.77c.62.64,1.29,1.26,1.59,2.14-.1.02-.2.03-.3.05-.28-.3-.86-.39-1.09-.72-.25-.36-.45-1.27-.7-1.69.24-.12.24.35.35.5.09.12.55.55.6.25,0-.04-.46-.38-.45-.52h0Z"/>
            <path class="cls-13" d="M153.44,40.12c.3.73.58,1.47.84,2.21-.06.06-.05.1-.1.17.16-.71-1.05-.74-1.52-.7-.13.01-.53.18-.65.2-.45.07-1.28,0-1.52.35-.2-.56-.23-.79.27-1.19.68-.55,1.87-.81,2.66-1.04h0Z"/>
          </g>
          <g>
            <path class="cls-13" d="M153.54,37.34c.14.11.44.94.5,1.14.2.72.1,1.02-.7,1.24.03-.34-.55-1.56-.5-1.76.01-.05.57-.6.7-.62Z"/>
            <path class="cls-13" d="M151.55,37.84c.45-.11,1.11-.57,1.64-.6.23.12-.31.6-.42.65-.35.16-.93.08-1.29.25-.18-.22.11-.14.07-.3h0Z"/>
            <path class="cls-62" d="M153.54,37.34c-.12.02-.68.58-.7.62-.05.2.53,1.42.5,1.76,0,0,.01.03-.1.05,0-.27-.37-1.67-.57-1.74-.5-.07-1.04.2-1.49.25-.01,0-.02-.12-.22-.05.12-.19.38-.25.55-.4.02,0,.03,0,.05,0,.03.16-.25.08-.07.3.37-.17.94-.09,1.29-.25.11-.05.65-.53.42-.65.07,0,.23-.01.27,0,.04.01.07.1.07.1h0Z"/>
            <path class="cls-13" d="M153.24,39.78c-.27.05-1.69.11-1.91.05s-.21-.23-.27-.4c-.14-.34-.28-.92-.1-1.19.21-.07.21.05.22.05.45-.05.99-.32,1.49-.25.2.07.58,1.47.57,1.74h0Z"/>
          </g>
          <g>
            <path class="cls-56" d="M154.23,38.68c.16.2.46.17.6.42l.15-.12c.5.18,1.06.25,1.54.55-.34.06-1.07-.52-1.49-.47.08.09.11.2.1.32-.4.55-1.08.57-1.69.74-.78.23-1.98.5-2.66,1.04-.5.4-.47.64-.27,1.19.15.41.45.75.65,1.14-8.92.99-24.94.91-33.19-2.58.15.07.68.09.72.1.03,0,.03.13.1.15.18.06.18-.06.2-.05.05.02,0,.13.05.15.01,0,.23,0,.25,0,.06.02.15.07.25.1.21.07,1.74.71,1.81.47-.24-.3-.66-.27-.5-.77.09.77,1.09.91,1.71,1.09,4.1,1.19,9.14,1.44,13.37,1.59,1.47.05,3.28.29,4.77.1.11-.01.18,0,.17-.15.13.07,2.64-.05,2.66-.65.12.07-.13.55-.27.57.42.1.67-.64.35-.89h.3c-.05-.18-.46-.3-.5-.35,0-.01-.06-.24-.1-.32l2.61-.99c.22.12.04.13-.02.25-.52.26-1.1.39-1.56.7.67-.04,1.28-.3,1.91-.45,1.23-.29,2.51-.49,3.73-.8.1-.03.09-.05.1-.05.35-.09.92,0,.89-.5,0-.06-.16-.48-.2-.6l.3-.2c.07.16.06.34.27.4s1.64,0,1.91-.05c.11-.02.09-.05.1-.05.8-.22.9-.52.7-1.24.12-.03.16.16.2.2h0Z"/>
            <path class="cls-38" d="M154.98,38.98l-.15.12c-.13-.25-.43-.22-.6-.42.31-.03.56.23.74.3h0Z"/>
            <path class="cls-38" d="M154.7,39.18c.09,0,.12,0,.17.07.3.72-2.98.93-3.38.74.8-.21,1.84.11,2.56-.32.19-.12.34-.49.65-.5h0Z"/>
            <path class="cls-38" d="M146.23,41.56c-.64.15-1.25.41-1.91.45.46-.3,1.04-.44,1.56-.7.04-.02.19-.02.2-.1.03.08.16.22.15.35h0Z"/>
          </g>
          <g>
            <path class="cls-13" d="M149.96,40.77c-1.22.31-2.49.5-3.73.8.01-.13-.12-.26-.15-.35-.1-.25-.32-.85-.35-1.09-.01-.11.03-.46.02-.6.12-.14,3.15-.73,3.43-.65.3.1.64,1.57.77,1.89h0Z"/>
            <path class="cls-13" d="M150.95,40.22c.02.49-.54.4-.89.5-.1-.76-.79-1.52-.5-2.29.44.2.87,1.75,1.14,1.91.16.09.17-.07.25-.12h0Z"/>
            <path class="cls-13" d="M150.75,39.63c.04.12.2.54.2.6-.08.06-.09.22-.25.12-.27-.16-.7-1.71-1.14-1.91.08-.22.29-.39.4-.6h.05c.21.41.39.84.55,1.27.05.13.15.36.2.52h0Z"/>
            <path class="cls-23" d="M149.96,37.84c-.11.2-.32.38-.4.6-.29.76.4,1.52.5,2.29,0,0,0,.02-.1.05-.13-.31-.47-1.79-.77-1.89-.28-.09-3.31.51-3.43.65,0,.14-.04.49-.02.6-.14-.4-.15-.52.1-.84.07.02.15.1.22.1.15,0,2.86-.63,3.03-.7.2-.08.6-.49.67-.67.09-.21-.04-.06-.1-.17.14-.02.2,0,.3,0Z"/>
            <path class="cls-13" d="M149.66,37.84c.06.11.19-.03.1.17-.07.18-.47.59-.67.67-.17.07-2.88.69-3.03.7-.07,0-.15-.08-.22-.1.18-.24.58-.41.84-.55s.65-.21.84-.45c.61,0,1.42-.36,2.14-.45h0Z"/>
          </g>
          <g>
            <path class="cls-6" d="M150.8,37.84c-.27,0-.53-.01-.8,0h-.05c-.09,0-.16-.02-.3,0-.72.08-1.52.45-2.14.45-.83,0-1.86-.27-2.71-.35-.77-.07-1.59-.01-2.31-.1-.09-.01-.17-.16-.5-.15-.2,0-.2.05-.35.1-.42.15-2.17,1.4-2.34,1.79-.26.62.6,1.68,1.09,2.06-.21.24-.57.24-.65.57-.15.64.23.73.8.7,0,.06.1.06-.02.15-.45-.09-.92.02-1.04-.55-.4.79.94.62,1.19.74.06.03.13.42.17.45,0,.14-.07.14-.17.15-1.49.19-3.3-.05-4.77-.1-4.23-.15-9.27-.4-13.37-1.59-.62-.18-1.62-.32-1.71-1.09.07-.22.23-.29.4-.4.08.03.17-.09.2-.1.11-.04.87-.3.92-.3.13,0,.04.09.1.15l.12-.2s.1.02.1-.05c0,.02.12.33.2.25,0,.02,0,.03,0,.05-.22.37-1.11.29-1.09.87.02.15,1.13.59,1.32.62.01,0,.07-.16.2-.15.26.03.67.5,1.09.55.69.08,1.85-.39,2.51-.65.17-.07.4-.13.55-.2l.2.07-.1.07c-.48.2-1.07.45-1.56.6-.19.06-.47-.06-.45.15.83-.11,1.63-.35,2.41-.65l.72.45c.14-.05.35.09.45.1.22.01-.03-.12.32-.1.32.02.68.21,1.02.25.2.02,1.01.04,1.17,0,.17-.04.08-.08.1-.1,0,0,.1-.05.1-.05,0,.06.05.06.1.05.75-.15.83-.51,1.09-1.14.37-.89.67-1.49-.05-2.24,2.05-.65,4.19-.9,6.31-1.24.05-.12-.15-.16-.15-.17.1-.21,2.09-.18,2.41-.17l-.4-.05c.2-.17.81-.1,1.14-.1,2.54.04,5.81-.01,8,.45.09.02.23-.1.35-.05.02,0-.08.18.17.2h0Z"/>
            <g>
              <path class="cls-38" d="M128.69,41.02c0,.05.04.4.05.45-.27.09-.53.2-.8.3-.78.29-1.58.53-2.41.65-.02-.21.26-.09.45-.15.49-.15,1.09-.39,1.56-.6.17-.07.43-.08.62-.2.19-.12.3-.42.52-.45h0Z"/>
              <path class="cls-56" d="M122.58,40.22l-.12.2c-.06-.06.03-.14-.1-.15-.05,0-.81.26-.92.3.36-.18.75-.33,1.14-.35h0Z"/>
              <path class="cls-56" d="M121.44,40.57s-.12.13-.2.1c.12-.08.12-.06.2-.1Z"/>
              <g>
                <path class="cls-38" d="M139.15,42.26c.08.06.08.13.07.22-.08.68-2.41.87-2.93.65,0-.16,2.89.01,2.86-.87h0Z"/>
                <g>
                  <path class="cls-13" d="M137.88,42.31c-.12-.8-.69-1.08-1.24-1.54-.18-.15-.22-.14-.2-.35.22-.06.5-.01.67-.05.02,0,.16-.21.4-.25.25-.04.68.05.82.27.05.07-.11.08-.1.1.02.05.19.16.2.2.03.21-.09.81-.05.89.02.04.68.15.7.45,0,.05-.23.45-.32.52-.13.1-.98.34-1.12.32-.38-.05.54-.31.62-.37.41-.3.1-.35.2-.65l.47.17-.52-.32c-.19.38-.12.39-.52.6h0Z"/>
                  <path class="cls-13" d="M136.44,40.42c-.02.21.02.2.2.35.44.49,1.15.82,1.04,1.59-1.1.21-.56-.34-.99-.82-.38-.42-.96.14-1.04,0,.19-.44.27-.98.8-1.12h0Z"/>
                  <path class="cls-13" d="M137.51,42.51h.15c.24.13-1.59.36-1.66.22.43-.08,1.09-.22,1.52-.22h0Z"/>
                  <path class="cls-62" d="M137.88,42.31c-.06.03-.13.04-.2.05.11-.77-.61-1.1-1.04-1.59.55.46,1.12.74,1.24,1.54Z"/>
                </g>
                <path class="cls-13" d="M137.36,42.76c.07,0,.13.04.12.12-.08.11-1.19.08-1.39.05l1.27-.17h0Z"/>
              </g>
            </g>
          </g>
          <g>
            <path class="cls-13" d="M131.62,38.04c.25.17,1.56,1.2,1.59,1.42.07.48-.88,1.63-1.22,2.01l-2.96-2.31.25-.42c.13-.11,1.47-.98,1.56-.99.38-.06.5.11.77.3h0Z"/>
            <path class="cls-13" d="M133.01,41.22c-.26.64-.34.99-1.09,1.14l.02-.45c-.1.07-.11.38-.12.4,0,0-.09.04-.1.05-.5-.27-2.81-.24-2.98-.72-.01-.04.01-.12,0-.17,0-.05-.05-.4-.05-.45,0-.18.11-1.08.15-1.34.21.07.02-.52.32-.35l2.83,2.53,1.34-2.09-.32,1.44h0Z"/>
            <path class="cls-23" d="M132.52,38.63c.1.08.38.28.45.35.72.74.42,1.35.05,2.24l.32-1.44-1.34,2.09-2.83-2.53c-.31-.17-.12.41-.32.35.08-.52.04-.59.45-.94l-.25.42,2.96,2.31c.34-.38,1.29-1.54,1.22-2.01-.03-.21-1.34-1.24-1.59-1.42.31.16.62.38.89.6h0Z"/>
            <path class="cls-56" d="M128.74,41.47c.01.05-.01.13,0,.17.17.48,2.48.45,2.98.72-.02.02.07.06-.1.1-.59-.15-1.21-.28-1.81-.35-.02,0-.49-.06-.37.1-.35-.02-.1.11-.32.1-.1,0-.31-.15-.45-.1l-.72-.45c.26-.1.53-.21.8-.3h0Z"/>
            <path class="cls-38" d="M131.62,42.46c-.16.04-.97.02-1.17,0-.34-.03-.7-.23-1.02-.25-.12-.16.35-.1.37-.1.6.07,1.23.2,1.81.35h0Z"/>
            <path class="cls-13" d="M131.92,42.36s-.1.01-.1-.05c.01-.02.03-.33.12-.4l-.02.45Z"/>
          </g>
          <g>
            <g>
              <path class="cls-13" d="M142.01,37.69l1.09,2.26c-.03.33-1.82,1.73-2.14,2.01-.44-.35-.76-.12-1.09.25-.02,0-.07,0-.1,0,.08-.33.43-.33.65-.57-.5-.38-1.36-1.44-1.09-2.06.66.04,1.89.37,2.29-.32.29-.5.08-.95.05-1.47.15-.05.15-.09.35-.1h0Z"/>
              <path class="cls-13" d="M142.51,37.84c.72.08,1.54.03,2.31.1.85.07,1.88.34,2.71.35-.19.24-.57.31-.84.45l-3.75-.65c.69.81,3.08,1.84,1.69,3.03-.4.34-.94.45-1.37.74-.03-.07-.25-.49-.27-.5-.55.12-1.1.26-1.62.5.31-.28,1.56-1.67,1.86-1.74.51-.13,1.06.29,1.56.32-.45-.32-1.23-.32-1.59-.74-.06-.07-.83-1.6-.84-1.69-.03-.17.07-.13.15-.17h0Z"/>
              <path class="cls-62" d="M139.32,39.58c.16-.39,1.92-1.64,2.34-1.79.03.52.24.97-.05,1.47-.4.7-1.63.37-2.29.32h0Z"/>
              <path class="cls-62" d="M142.51,37.84c-.08.05-.18,0-.15.17.02.09.78,1.62.84,1.69.36.42,1.14.42,1.59.74-.5-.04-1.05-.45-1.56-.32-.3.07-1.55,1.46-1.86,1.74,0,0,.02.07-.02.1-.08.04-.08-.11-.1-.1-.13.05.02.15-.05.2-.02.02-.42.12-.42.17,0,.09.36-.12.17.07l-.27-.05c.06-.07.23-.23.3-.3.31-.29,2.11-1.68,2.14-2.01l-1.09-2.26c.32-.01.4.14.5.15h0Z"/>
            </g>
            <path class="cls-38" d="M139.87,42.21c.27.09.37.45.65.45,0,.11.04.15.05.25-.57.03-.95-.06-.8-.7.03,0,.07,0,.1,0h0Z"/>
            <path class="cls-56" d="M140.96,41.96c-.07.07-.24.23-.3.3-.02.02-.14.08-.15.12-.02.06,0,.19,0,.27-.28,0-.37-.36-.65-.45.33-.36.65-.6,1.09-.25h0Z"/>
            <g>
              <path class="cls-13" d="M143.25,41.86c.04.09.04.18.05.2.04.08.09.31.1.32.03.05.45.17.5.35h-.3c.32.26.07,1-.35.89.14-.02.39-.5.27-.57-.02.59-2.53.71-2.66.65-.05-.02-.11-.42-.17-.45-.26-.13-1.59.04-1.19-.74.13.57.6.46,1.04.55.12-.09.03-.08.02-.15,0-.1-.06-.13-.05-.25,0-.08-.02-.22,0-.27.01-.05.13-.1.15-.12l.27.05c.19-.19-.18.01-.17-.07,0-.05.4-.15.42-.17.07-.05-.08-.15.05-.2.02,0,.02.14.1.1.05-.03.02-.1.02-.1.51-.23,1.07-.38,1.62-.5.03,0,.24.43.27.5h0Z"/>
              <path class="cls-23" d="M142.63,41.71c-.33.45.09.71.1,1.19-.33-1.12-.56-.78-1.52-.72.46-.2,1.07-.04,1.42-.47Z"/>
              <path class="cls-62" d="M142.78,42.96c.05-.01.16.38.1.4-.07-.03-.15-.38-.1-.4Z"/>
            </g>
          </g>
        </g>
      </g>
    </g>
    <path class="cls-53" d="M121.29,118.49h.02c-.01.12-.02.23-.02.35,0-.11,0-.23,0-.35Z"/>
    <g class="cls-21">
      <text class="cls-22" transform="translate(14.35 149.27) scale(1.08 1)"><tspan class="cls-50" x="0" y="0">P</tspan><tspan x="12.76" y="0">ACIFIC </tspan><tspan class="cls-51" x="90.45" y="0">P</tspan><tspan x="103.21" y="0">APER</tspan></text>
    </g>
    <g class="cls-21">
      <text class="cls-20" transform="translate(14.35 168.95)"><tspan x="0" y="0">CUPS</tspan><tspan class="cls-57" x="57.99" y="0"> </tspan><tspan x="63.01" y="0">AND MORE</tspan></text>
    </g>
    <polygon class="cls-36" points="137.26 44 132.49 43.78 127.34 17.64 131.98 16.72 137.26 44"/>
  </g>
</svg>